<svg version="1.1" xmlns="http://www.w3.org/2000/svg" viewBox="0 0 642.8934140236489 471.38638567700986" width="642.8934140236489" height="471.38638567700986">
  <!-- svg-source:excalidraw -->
  
  <defs>
    <style class="style-fonts">
      @font-face {
        font-family: "Virgil";
        src: url("https://file%2B.vscode-resource.vscode-cdn.net/c%3A/Users/samra/.vscode/extensions/pomdtr.excalidraw-editor-3.7.4/public//dist/excalidraw-assets/Virgil.woff2");
      }
      @font-face {
        font-family: "Cascadia";
        src: url("https://file%2B.vscode-resource.vscode-cdn.net/c%3A/Users/samra/.vscode/extensions/pomdtr.excalidraw-editor-3.7.4/public//dist/excalidraw-assets/Cascadia.woff2");
      }
      @font-face {
        font-family: "Assistant";
        src: url("https://file%2B.vscode-resource.vscode-cdn.net/c%3A/Users/samra/.vscode/extensions/pomdtr.excalidraw-editor-3.7.4/public//dist/excalidraw-assets/Assistant-Regular.woff2");
      }
    </style>
    
  </defs>
  <rect x="0" y="0" width="642.8934140236489" height="471.38638567700986" fill="#ffffff"></rect><g stroke-linecap="round" transform="translate(15.122896062340601 21.162321611121286) rotate(0 267.50001525878906 189.60001373291016)"><path d="M165.07 14.86 C182.84 6.37, 207.95 4.16, 229.93 1.76 C251.9 -0.63, 274.92 -1.41, 296.92 0.49 C318.92 2.38, 341.22 7.56, 361.91 13.12 C382.61 18.68, 402.84 24.99, 421.07 33.85 C439.31 42.7, 456.88 54.27, 471.35 66.25 C485.82 78.23, 498.37 91.62, 507.9 105.71 C517.43 119.8, 524.01 135.13, 528.54 150.79 C533.07 166.46, 535.9 183.88, 535.09 199.71 C534.27 215.54, 530.18 230.74, 523.66 245.75 C517.13 260.76, 507.66 276.45, 495.93 289.77 C484.2 303.08, 469.29 314.81, 453.29 325.64 C437.3 336.46, 419.34 346.77, 399.97 354.71 C380.6 362.65, 358.46 369.24, 337.07 373.25 C315.67 377.27, 293.69 378.76, 271.58 378.82 C249.46 378.88, 226.11 377.28, 204.37 373.62 C182.62 369.95, 160.79 364.12, 141.11 356.81 C121.43 349.51, 102.45 340.2, 86.27 329.79 C70.09 319.39, 56.02 307.68, 44.04 294.37 C32.06 281.07, 21.72 265.08, 14.38 249.98 C7.05 234.89, 1.67 219.48, 0.05 203.79 C-1.56 188.1, 0.7 171.28, 4.69 155.83 C8.68 140.37, 15.12 125.28, 24.02 111.07 C32.91 96.86, 44.32 82.82, 58.05 70.56 C71.78 58.29, 85.43 47.68, 106.39 37.47 C127.34 27.25, 167.35 13.82, 183.79 9.24 C200.22 4.66, 203.34 6.9, 205.01 9.98 M222.45 2.68 C242.31 -2.89, 264.9 -0.84, 286.89 0.35 C308.89 1.55, 332.97 4.66, 354.42 9.86 C375.87 15.07, 397.28 22.93, 415.59 31.59 C433.9 40.25, 449.48 50.06, 464.26 61.83 C479.04 73.59, 493.72 88.06, 504.29 102.17 C514.85 116.29, 522.36 131.29, 527.64 146.51 C532.92 161.72, 536.47 177.97, 535.97 193.45 C535.47 208.93, 530.44 224.14, 524.64 239.38 C518.83 254.63, 511.91 271.16, 501.14 284.94 C490.37 298.72, 475.68 310.8, 460.02 322.04 C444.36 333.29, 426.08 344.16, 407.19 352.4 C388.29 360.64, 367.72 367.22, 346.65 371.47 C325.59 375.73, 303.23 377.25, 280.78 377.93 C258.33 378.61, 233.96 378.78, 211.94 375.56 C189.92 372.34, 168.61 365.43, 148.68 358.61 C128.76 351.78, 108.93 344.77, 92.4 334.62 C75.86 324.46, 61.88 310.59, 49.48 297.68 C37.09 284.78, 25.76 271.63, 18.03 257.17 C10.3 242.71, 5.52 226.8, 3.1 210.92 C0.67 195.04, 0.49 177.32, 3.49 161.89 C6.49 146.46, 12.71 132.91, 21.11 118.33 C29.52 103.75, 40.87 87.4, 53.92 74.4 C66.96 61.4, 82.27 49.88, 99.37 40.31 C116.48 30.75, 136.32 23.34, 156.53 17.03 C176.74 10.71, 209.69 3.91, 220.63 2.4 C231.57 0.89, 221.14 4.62, 222.19 7.97" stroke="none" stroke-width="0" fill="#ffc9c9"></path><path d="M242.06 0.27 C262.78 -4.14, 287.48 -0.33, 309.37 2.21 C331.26 4.75, 353.03 9.22, 373.41 15.52 C393.8 21.82, 414.06 30.46, 431.69 40 C449.32 49.53, 465.67 60.48, 479.19 72.71 C492.71 84.94, 504.22 99.04, 512.82 113.39 C521.42 127.74, 527.42 143.34, 530.79 158.82 C534.16 174.31, 535.1 190.42, 533.03 206.3 C530.97 222.17, 525.76 238.98, 518.43 254.08 C511.1 269.17, 501.23 283.83, 489.05 296.85 C476.88 309.88, 462.16 322.01, 445.36 332.22 C428.57 342.44, 408.13 350.95, 388.27 358.13 C368.4 365.31, 347.72 371.89, 326.18 375.3 C304.63 378.71, 281.18 379.25, 259.01 378.6 C236.84 377.95, 214.42 375.69, 193.16 371.4 C171.9 367.12, 150.63 360.74, 131.45 352.89 C112.27 345.04, 93.89 335.43, 78.09 324.3 C62.29 313.18, 47.81 299.8, 36.64 286.13 C25.47 272.46, 17.22 257.43, 11.07 242.28 C4.91 227.14, 0.48 210.94, -0.28 195.26 C-1.03 179.57, 1.63 163.4, 6.53 148.19 C11.43 132.98, 19.19 118.13, 29.11 104.01 C39.04 89.89, 51.38 75.43, 66.08 63.48 C80.77 51.54, 98.76 41.03, 117.29 32.35 C135.81 23.68, 154.34 16.64, 177.24 11.45 C200.14 6.26, 239.3 2.34, 254.68 1.2 C270.05 0.05, 269.06 1.44, 269.48 4.57 M253.52 -0.68 C274.76 -4.89, 300.17 -0.46, 322.05 2.69 C343.93 5.84, 365.09 11.08, 384.77 18.22 C404.46 25.36, 423.33 34.99, 440.18 45.54 C457.04 56.09, 473.21 68.99, 485.91 81.52 C498.61 94.04, 508.38 106.07, 516.37 120.69 C524.36 135.32, 531.4 153.46, 533.85 169.28 C536.3 185.1, 534.35 200.13, 531.07 215.63 C527.79 231.12, 522.33 247.79, 514.16 262.23 C506 276.67, 495.36 289.87, 482.08 302.27 C468.8 314.66, 451.83 326.6, 434.48 336.59 C417.12 346.59, 397.73 355.44, 377.96 362.23 C358.18 369.03, 337.44 374.61, 315.85 377.35 C294.26 380.08, 270.97 379.99, 248.4 378.65 C225.83 377.32, 201.58 374.55, 180.42 369.32 C159.27 364.1, 139.96 355.67, 121.47 347.3 C102.98 338.94, 84.39 330.48, 69.48 319.12 C54.57 307.76, 42.44 293.11, 32 279.12 C21.56 265.12, 12.12 250.38, 6.86 235.16 C1.6 219.95, 0.17 203.52, 0.46 187.83 C0.75 172.15, 2.87 156.32, 8.61 141.05 C14.35 125.79, 23.89 110.26, 34.89 96.25 C45.9 82.23, 59.22 68.17, 74.66 56.97 C90.1 45.78, 108.73 37.35, 127.52 29.09 C146.32 20.83, 166.14 12.27, 187.44 7.42 C208.75 2.57, 244.3 0.72, 255.36 -0.03 C266.41 -0.78, 253.77 -0.08, 253.76 2.9" stroke="#1e1e1e" stroke-width="2" fill="none"></path></g><g stroke-linecap="round" transform="translate(199.46722334889637 148.38866331027447) rotate(0 94.60000610351562 78)"><path d="M126.36 4.29 C138.38 6.65, 150.9 13.67, 160.22 21.3 C169.53 28.93, 177.56 39.97, 182.25 50.06 C186.95 60.15, 188.74 71.59, 188.37 81.84 C188 92.09, 185.48 102.36, 180.06 111.58 C174.63 120.8, 165.65 130.16, 155.82 137.17 C145.99 144.17, 133.6 150.46, 121.09 153.63 C108.57 156.79, 93.54 157.79, 80.72 156.17 C67.91 154.56, 55.05 149.92, 44.2 143.95 C33.35 137.98, 22.85 129.02, 15.63 120.37 C8.41 111.71, 3.17 102.37, 0.9 92.04 C-1.37 81.72, -1.32 68.73, 2.03 58.42 C5.37 48.1, 12.82 38.48, 20.96 30.13 C29.1 21.78, 39.54 13.17, 50.84 8.33 C62.13 3.49, 74.35 1.08, 88.73 1.09 C103.1 1.1, 127.82 6.24, 137.08 8.38 C146.35 10.53, 144.99 12.74, 144.31 13.96 M83.02 -0.53 C94.9 -2.94, 108.9 1.09, 121.37 4.52 C133.84 7.95, 148.11 13.46, 157.84 20.06 C167.58 26.66, 174.46 34.46, 179.78 44.1 C185.09 53.74, 189.51 67.33, 189.72 77.91 C189.93 88.49, 186.06 98.01, 181.06 107.58 C176.05 117.16, 169.07 127.89, 159.67 135.35 C150.28 142.8, 136.94 149.1, 124.69 152.31 C112.44 155.52, 98.94 155.71, 86.18 154.61 C73.42 153.51, 59.21 150.67, 48.11 145.72 C37.02 140.77, 27 133.4, 19.59 124.92 C12.18 116.44, 6.45 104.97, 3.65 94.84 C0.85 84.71, 0.5 74.36, 2.8 64.13 C5.1 53.9, 10.19 42.51, 17.43 33.46 C24.67 24.4, 35.37 15.14, 46.22 9.81 C57.07 4.48, 76.45 2.86, 82.52 1.47 C88.6 0.09, 82.2 0.32, 82.67 1.49" stroke="none" stroke-width="0" fill="#a5d8ff"></path><path d="M53.3 7.19 C63.54 1.81, 78.87 -0.12, 91.7 -0.32 C104.52 -0.51, 118.39 1.7, 130.25 6 C142.11 10.31, 153.78 17.72, 162.86 25.51 C171.93 33.29, 180.44 42.94, 184.72 52.7 C189 62.46, 189.76 73.49, 188.53 84.08 C187.29 94.67, 183.44 107.06, 177.31 116.24 C171.18 125.41, 161.95 132.79, 151.75 139.11 C141.56 145.44, 128.63 151.46, 116.13 154.19 C103.63 156.93, 89.25 157.65, 76.74 155.52 C64.22 153.4, 51.53 147.55, 41.02 141.42 C30.51 135.29, 20.22 127.68, 13.66 118.76 C7.1 109.84, 3.14 98.31, 1.67 87.88 C0.21 77.46, 1.21 66.42, 4.86 56.19 C8.51 45.95, 13.85 34.97, 23.58 26.47 C33.31 17.97, 54.8 8.96, 63.23 5.19 C71.66 1.42, 73.57 2.78, 74.18 3.85 M131.65 4.99 C143.14 7.7, 153.5 17.13, 162 24.78 C170.49 32.44, 178.39 40.85, 182.63 50.92 C186.86 60.98, 188.12 74.58, 187.4 85.17 C186.69 95.76, 184.13 105.22, 178.34 114.44 C172.54 123.66, 162.73 133.86, 152.64 140.51 C142.56 147.15, 130.3 152.15, 117.83 154.32 C105.37 156.5, 90.59 155.39, 77.88 153.55 C65.17 151.72, 52.17 149.41, 41.55 143.33 C30.94 137.25, 21.11 126.55, 14.19 117.09 C7.26 107.62, 1.83 96.76, 0 86.54 C-1.83 76.32, -0.46 65.75, 3.23 55.78 C6.91 45.8, 13.66 34.52, 22.13 26.7 C30.61 18.89, 42.19 13.16, 54.06 8.88 C65.93 4.59, 80.49 1.29, 93.37 1 C106.26 0.72, 125.14 6.01, 131.36 7.16 C137.58 8.32, 131.17 6.7, 130.69 7.91" stroke="#1e1e1e" stroke-width="2" fill="none"></path></g><g transform="translate(235.24497673691326 176.23433437772377) rotate(0 58.92994689941406 50)"><text x="58.92994689941406" y="0" font-family="Virgil, Segoe UI Emoji" font-size="20px" fill="#1e1e1e" text-anchor="middle" style="white-space: pre;" direction="ltr" dominant-baseline="text-before-edge">Siddhashram</text><text x="58.92994689941406" y="25" font-family="Virgil, Segoe UI Emoji" font-size="20px" fill="#1e1e1e" text-anchor="middle" style="white-space: pre;" direction="ltr" dominant-baseline="text-before-edge"></text><text x="58.92994689941406" y="50" font-family="Virgil, Segoe UI Emoji" font-size="20px" fill="#1e1e1e" text-anchor="middle" style="white-space: pre;" direction="ltr" dominant-baseline="text-before-edge"></text><text x="58.92994689941406" y="75" font-family="Virgil, Segoe UI Emoji" font-size="20px" fill="#1e1e1e" text-anchor="middle" style="white-space: pre;" direction="ltr" dominant-baseline="text-before-edge"></text></g><g transform="translate(220.92291437288748 39.562346025183786) rotate(0 38.569976806640625 12.5)"><text x="0" y="0" font-family="Virgil, Segoe UI Emoji" font-size="20px" fill="#1e1e1e" text-anchor="start" style="white-space: pre;" direction="ltr" dominant-baseline="text-before-edge">Tataka</text></g><g transform="translate(117.72284113069998 110.76228193826972) rotate(0 33.33995819091797 12.5)"><text x="0" y="0" font-family="Virgil, Segoe UI Emoji" font-size="20px" fill="#1e1e1e" text-anchor="start" style="white-space: pre;" direction="ltr" dominant-baseline="text-before-edge">horrific</text></g><g transform="translate(378.7229021658562 85.16230635233222) rotate(0 40.989959716796875 12.5)"><text x="0" y="0" font-family="Virgil, Segoe UI Emoji" font-size="20px" fill="#1e1e1e" text-anchor="start" style="white-space: pre;" direction="ltr" dominant-baseline="text-before-edge">dreadful</text></g><g transform="translate(273.9229143728875 114.76231245584785) rotate(0 16.839981079101562 12.5)"><text x="0" y="0" font-family="Virgil, Segoe UI Emoji" font-size="20px" fill="#1e1e1e" text-anchor="start" style="white-space: pre;" direction="ltr" dominant-baseline="text-before-edge">ruin</text></g><g transform="translate(131.5229204764031 279.56231550760566) rotate(0 27.399978637695312 12.5)"><text x="0" y="0" font-family="Virgil, Segoe UI Emoji" font-size="20px" fill="#1e1e1e" text-anchor="start" style="white-space: pre;" direction="ltr" dominant-baseline="text-before-edge">havoc</text></g><g transform="translate(73.63291345736013 207.66229109354316) rotate(0 35.08995819091797 12.5)"><text x="0" y="0" font-family="Virgil, Segoe UI Emoji" font-size="20px" fill="#1e1e1e" text-anchor="start" style="white-space: pre;" direction="ltr" dominant-baseline="text-before-edge">terrible</text></g><g transform="translate(442.6330507864617 157.66229109354316) rotate(0 12.289985656738281 12.5)"><text x="0" y="0" font-family="Virgil, Segoe UI Emoji" font-size="20px" fill="#1e1e1e" text-anchor="start" style="white-space: pre;" direction="ltr" dominant-baseline="text-before-edge">sin</text></g><g transform="translate(287.61294733187185 330.0623765427619) rotate(0 27.309967041015625 12.5)"><text x="0" y="0" font-family="Virgil, Segoe UI Emoji" font-size="20px" fill="#1e1e1e" text-anchor="start" style="white-space: pre;" direction="ltr" dominant-baseline="text-before-edge">fierce</text></g><g transform="translate(412.4630602469109 227.66232161112129) rotate(0 58.85993957519531 12.5)"><text x="0" y="0" font-family="Virgil, Segoe UI Emoji" font-size="20px" fill="#1e1e1e" text-anchor="start" style="white-space: pre;" direction="ltr" dominant-baseline="text-before-edge">impenetrable</text></g><g stroke-linecap="round"><g transform="translate(369.78373993674654 404.89402128912735) rotate(0 -23.107411765368226 -50.280563372147526)"><path d="M0.38 0.95 C-7.24 -15.87, -39.15 -83.58, -46.86 -100.43 M-0.87 0.4 C-8.01 -16.25, -36.89 -81.71, -44.49 -98.82" stroke="#1e1e1e" stroke-width="2" fill="none"></path></g><g transform="translate(369.78373993674654 404.89402128912735) rotate(0 -23.107411765368226 -50.280563372147526)"><path d="M-44.83 -100.48 L-34.18 -88.26 L-42.96 -83.6 L-43.64 -100.3" stroke="none" stroke-width="0" fill="#1e1e1e" fill-rule="evenodd"></path><path d="M-44.49 -98.82 C-40.89 -97.6, -39.55 -94.32, -33.19 -88.95 M-44.49 -98.82 C-40.26 -95.65, -37.56 -92.82, -33.19 -88.95 M-33.19 -88.95 C-36.51 -87.44, -40.74 -84.31, -44.79 -83.82 M-33.19 -88.95 C-37.14 -87.43, -40.87 -85.51, -44.79 -83.82 M-44.79 -83.82 C-45.52 -89.49, -43.69 -92.79, -44.49 -98.82 M-44.79 -83.82 C-44.87 -87.59, -43.94 -91.66, -44.49 -98.82 M-44.49 -98.82 C-44.49 -98.82, -44.49 -98.82, -44.49 -98.82 M-44.49 -98.82 C-44.49 -98.82, -44.49 -98.82, -44.49 -98.82" stroke="#1e1e1e" stroke-width="2" fill="none"></path></g></g><mask></mask><g stroke-linecap="round"><g transform="translate(69.1228960623406 23.562300248816598) rotate(0 84.30000305175781 72.80001068115234)"><path d="M0.53 0.73 C28.68 24.93, 141.55 120.88, 169.71 144.99 M-0.66 0.06 C27.37 24.44, 141.04 121.78, 169.34 146.21" stroke="#1e1e1e" stroke-width="2" fill="none"></path></g><g transform="translate(69.1228960623406 23.562300248816598) rotate(0 84.30000305175781 72.80001068115234)"><path d="M168.31 146.42 L152.92 141.72 L164.09 130.67 L168.27 145.8" stroke="none" stroke-width="0" fill="#1e1e1e" fill-rule="evenodd"></path><path d="M169.34 146.21 C165.01 146.19, 158.1 144.41, 154.9 142.16 M169.34 146.21 C164.69 144.88, 160.71 143.83, 154.9 142.16 M154.9 142.16 C156 140.81, 158.98 137.08, 163.17 132.54 M154.9 142.16 C157.1 138.55, 159.94 136.37, 163.17 132.54 M163.17 132.54 C164.46 137.88, 166.49 142.9, 169.34 146.21 M163.17 132.54 C165.65 137.48, 168.17 141.49, 169.34 146.21 M169.34 146.21 C169.34 146.21, 169.34 146.21, 169.34 146.21 M169.34 146.21 C169.34 146.21, 169.34 146.21, 169.34 146.21" stroke="#1e1e1e" stroke-width="2" fill="none"></path></g></g><mask></mask><g stroke-linecap="round"><g transform="translate(9.922914372887476 355.56231550760566) rotate(0 94.75252359424007 -56.655245571616376)"><path d="M1.01 -0.11 C32.66 -18.77, 157.81 -93.51, 189.42 -112.39 M0.08 -1.22 C31.61 -20.17, 156.69 -95.55, 188.43 -114.03" stroke="#1e1e1e" stroke-width="2" fill="none"></path></g><g transform="translate(9.922914372887476 355.56231550760566) rotate(0 94.75252359424007 -56.655245571616376)"><path d="M189.77 -114.3 L179.06 -102.31 L171.57 -113.98 L186.84 -113.96" stroke="none" stroke-width="0" fill="#1e1e1e" fill-rule="evenodd"></path><path d="M188.43 -114.03 C186.07 -110.87, 185.18 -106.12, 179.98 -101.64 M188.43 -114.03 C186.04 -111.2, 183.38 -106.77, 179.98 -101.64 M179.98 -101.64 C177.59 -104.44, 175.49 -110.27, 173.51 -112.54 M179.98 -101.64 C178.22 -105, 176.16 -107.01, 173.51 -112.54 M173.51 -112.54 C179.87 -113.13, 186.29 -114.25, 188.43 -114.03 M173.51 -112.54 C178.59 -113, 185.07 -113.92, 188.43 -114.03 M188.43 -114.03 C188.43 -114.03, 188.43 -114.03, 188.43 -114.03 M188.43 -114.03 C188.43 -114.03, 188.43 -114.03, 188.43 -114.03" stroke="#1e1e1e" stroke-width="2" fill="none"></path></g></g><mask></mask><g stroke-linecap="round"><g transform="translate(184.92285333773123 460.3623033005744) rotate(0 28.189231217203258 -81.9386177379194)"><path d="M-1.14 1.02 C8.53 -26.29, 47.43 -137.04, 57.06 -164.63 M0.46 0.52 C10.12 -26.59, 47.21 -136.14, 56.47 -163.49" stroke="#1e1e1e" stroke-width="2" fill="none"></path></g><g transform="translate(184.92285333773123 460.3623033005744) rotate(0 28.189231217203258 -81.9386177379194)"><path d="M56.74 -164.27 L57.04 -147.03 L48.05 -150.82 L55.95 -164.74" stroke="none" stroke-width="0" fill="#1e1e1e" fill-rule="evenodd"></path><path d="M56.47 -163.49 C58.02 -159.33, 56.16 -156.57, 58.11 -148.58 M56.47 -163.49 C56.97 -160.5, 57.36 -155.86, 58.11 -148.58 M58.11 -148.58 C56.1 -148.73, 52.33 -151.29, 46.1 -152.65 M58.11 -148.58 C54.3 -150.62, 50.22 -151.58, 46.1 -152.65 M46.1 -152.65 C50.51 -156.05, 54.68 -159.58, 56.47 -163.49 M46.1 -152.65 C49.06 -156.23, 52.91 -159.09, 56.47 -163.49 M56.47 -163.49 C56.47 -163.49, 56.47 -163.49, 56.47 -163.49 M56.47 -163.49 C56.47 -163.49, 56.47 -163.49, 56.47 -163.49" stroke="#1e1e1e" stroke-width="2" fill="none"></path></g></g><mask></mask><g stroke-linecap="round"><g transform="translate(411.522889958825 10.762312455847848) rotate(0 -37.699981689453125 77.20000457763672)"><path d="M0.51 -0.76 C-12.14 24.98, -63.52 129.41, -76.18 155.09 M-0.68 1.45 C-12.92 26.79, -61.28 127.89, -73.88 153.32" stroke="#1e1e1e" stroke-width="2" fill="none"></path></g><g transform="translate(411.522889958825 10.762312455847848) rotate(0 -37.699981689453125 77.20000457763672)"><path d="M-75.85 153.56 L-72.66 138.06 L-63.47 144.42 L-75.58 152.9" stroke="none" stroke-width="0" fill="#1e1e1e" fill-rule="evenodd"></path><path d="M-73.88 153.32 C-74.85 148.21, -72.97 144.94, -73.65 138.33 M-73.88 153.32 C-74.2 149.71, -73.24 147.13, -73.65 138.33 M-73.65 138.33 C-70.19 139.12, -67.79 140.5, -62.24 143.87 M-73.65 138.33 C-69.57 140.46, -66.35 142.33, -62.24 143.87 M-62.24 143.87 C-64.47 144.97, -68.66 148.91, -73.88 153.32 M-62.24 143.87 C-67.15 146.78, -70.48 150.85, -73.88 153.32 M-73.88 153.32 C-73.88 153.32, -73.88 153.32, -73.88 153.32 M-73.88 153.32 C-73.88 153.32, -73.88 153.32, -73.88 153.32" stroke="#1e1e1e" stroke-width="2" fill="none"></path></g></g><mask></mask><g stroke-linecap="round"><g transform="translate(633.1229265799187 242.76229719705879) rotate(0 -121.87710482787224 -12.926098053241589)"><path d="M-0.23 -0.4 C-41.07 -4.51, -203.86 -20.57, -244.5 -24.97 M-1.81 -1.66 C-42.31 -6.06, -201.65 -22.57, -242.17 -26.63" stroke="#1e1e1e" stroke-width="2" fill="none"></path></g><g transform="translate(633.1229265799187 242.76229719705879) rotate(0 -121.87710482787224 -12.926098053241589)"><path d="M-240.4 -28.48 L-228.83 -29.56 L-230.25 -17.26 L-243.81 -25.75" stroke="none" stroke-width="0" fill="#1e1e1e" fill-rule="evenodd"></path><path d="M-242.17 -26.63 C-237.79 -29.22, -231.31 -30.32, -228 -31.56 M-242.17 -26.63 C-239.64 -28.06, -236.01 -28.53, -228 -31.56 M-228 -31.56 C-227.69 -28.48, -229.85 -23.56, -229.29 -18.94 M-228 -31.56 C-228.67 -27.11, -229.04 -23.28, -229.29 -18.94 M-229.29 -18.94 C-232.65 -21.52, -237.69 -22.14, -242.17 -26.63 M-229.29 -18.94 C-233.76 -20.89, -239 -24.12, -242.17 -26.63 M-242.17 -26.63 C-242.17 -26.63, -242.17 -26.63, -242.17 -26.63 M-242.17 -26.63 C-242.17 -26.63, -242.17 -26.63, -242.17 -26.63" stroke="#1e1e1e" stroke-width="2" fill="none"></path></g></g><mask></mask><g stroke-linecap="round" transform="translate(205.6750782592777 215.60882956871535) rotate(0 88.34379806225888 22.74606097409813)"><path d="M101.32 0.9 C114.53 1.18, 129.66 2.68, 140.58 4.58 C151.5 6.49, 160.9 9.16, 166.82 12.3 C172.74 15.43, 176.22 19.74, 176.1 23.39 C175.97 27.05, 172.71 31.22, 166.07 34.23 C159.43 37.24, 147.9 39.45, 136.27 41.46 C124.63 43.47, 109.65 45.92, 96.26 46.29 C82.88 46.65, 68.63 45.01, 55.97 43.62 C43.31 42.24, 29.17 40.56, 20.31 37.97 C11.45 35.38, 5.76 31.69, 2.81 28.08 C-0.15 24.47, -0.81 19.85, 2.57 16.32 C5.96 12.79, 13.68 9.45, 23.11 6.89 C32.53 4.32, 43.52 1.79, 59.12 0.95 C74.73 0.11, 105.05 1.57, 116.74 1.83 C128.43 2.09, 129.75 2.13, 129.26 2.51 M128.55 2.77 C140.67 3.87, 151.87 6.43, 159.96 9.34 C168.06 12.25, 175.08 16.56, 177.1 20.23 C179.13 23.9, 177.07 28.2, 172.1 31.39 C167.14 34.57, 157.39 37.16, 147.32 39.34 C137.26 41.51, 124.82 43.74, 111.71 44.44 C98.6 45.14, 82 44.46, 68.67 43.53 C55.33 42.6, 42.26 41.07, 31.68 38.87 C21.1 36.67, 10.44 33.34, 5.19 30.33 C-0.06 27.33, -1.62 24.05, 0.17 20.83 C1.96 17.61, 8.39 14.26, 15.91 11.01 C23.43 7.77, 33.68 3.4, 45.28 1.38 C56.87 -0.64, 71.81 -1.09, 85.51 -1.1 C99.2 -1.1, 120.75 0.55, 127.44 1.33 C134.12 2.11, 126.46 3.21, 125.61 3.58" stroke="none" stroke-width="0" fill="#b2f2bb"></path><path d="M73.98 0.87 C86.72 0, 103.74 -0.59, 116.58 0.37 C129.42 1.32, 141.5 3.88, 151.02 6.61 C160.55 9.34, 169.6 13.39, 173.73 16.77 C177.86 20.14, 178.44 23.49, 175.78 26.85 C173.13 30.21, 166.64 34.17, 157.83 36.93 C149.02 39.69, 135.66 41.85, 122.92 43.4 C110.18 44.95, 94.9 46.62, 81.38 46.23 C67.86 45.84, 53.26 43.1, 41.8 41.04 C30.34 38.99, 19.46 36.93, 12.63 33.9 C5.81 30.87, 1.59 26.46, 0.86 22.85 C0.12 19.24, 2.46 15.4, 8.23 12.24 C13.99 9.07, 22.74 5.76, 35.44 3.87 C48.15 1.98, 74.68 1.58, 84.47 0.91 C94.26 0.24, 94.28 -0.47, 94.17 -0.14 M126.33 1.19 C138.36 2.3, 151.42 6.26, 159.72 9.09 C168.02 11.93, 173.96 14.62, 176.12 18.2 C178.29 21.78, 177.38 26.99, 172.7 30.56 C168.02 34.13, 158.41 37.13, 148.04 39.6 C137.67 42.08, 123.65 44.62, 110.48 45.42 C97.32 46.21, 82.29 45.09, 69.04 44.36 C55.8 43.63, 41.38 43.18, 31.01 41.04 C20.64 38.89, 11.72 34.9, 6.84 31.49 C1.95 28.08, 0.29 24.04, 1.69 20.59 C3.1 17.13, 8.22 13.51, 15.28 10.77 C22.33 8.03, 32.25 5.92, 44.02 4.14 C55.8 2.35, 72.15 0.17, 85.95 0.08 C99.75 -0.01, 120.27 3.32, 126.82 3.58 C133.36 3.84, 125.55 1.4, 125.22 1.62" stroke="#e03131" stroke-width="2" fill="none"></path></g><g transform="translate(237.48242261884855 228.27099658274602) rotate(0 56.567955017089844 10)"><text x="56.567955017089844" y="0" font-family="Virgil, Segoe UI Emoji" font-size="16px" fill="#e03131" text-anchor="middle" style="white-space: pre;" direction="ltr" dominant-baseline="text-before-edge">Accomplishment</text></g></svg>