<svg version="1.1" xmlns="http://www.w3.org/2000/svg" viewBox="0 0 1231.2555672012631 815.4523907178883" width="1231.2555672012631" height="815.4523907178883">
  <!-- svg-source:excalidraw -->
  
  <defs>
    <style class="style-fonts">
      @font-face {
        font-family: "Virgil";
        src: url("https://file%2B.vscode-resource.vscode-cdn.net/c%3A/Users/samra/.vscode/extensions/pomdtr.excalidraw-editor-3.7.4/public//dist/excalidraw-assets/Virgil.woff2");
      }
      @font-face {
        font-family: "Cascadia";
        src: url("https://file%2B.vscode-resource.vscode-cdn.net/c%3A/Users/samra/.vscode/extensions/pomdtr.excalidraw-editor-3.7.4/public//dist/excalidraw-assets/Cascadia.woff2");
      }
      @font-face {
        font-family: "Assistant";
        src: url("https://file%2B.vscode-resource.vscode-cdn.net/c%3A/Users/samra/.vscode/extensions/pomdtr.excalidraw-editor-3.7.4/public//dist/excalidraw-assets/Assistant-Regular.woff2");
      }
    </style>
    
  </defs>
  <rect x="0" y="0" width="1231.2555672012631" height="815.4523907178883" fill="#ffffff"></rect><g stroke-linecap="round" transform="translate(255.88374731365286 72.98326755813943) rotate(0 50.16367421118059 26.336154972620747)"><path d="M63.28 0.05 C71.87 0.84, 81.77 5.71, 87.77 9.31 C93.77 12.92, 97.98 17.18, 99.28 21.67 C100.58 26.15, 99.11 31.92, 95.56 36.2 C92.01 40.49, 85.24 44.71, 77.99 47.38 C70.73 50.04, 60.82 52.07, 52.05 52.19 C43.28 52.3, 33.09 50.25, 25.37 48.07 C17.65 45.89, 9.93 43.06, 5.74 39.1 C1.54 35.14, -0.82 29.1, 0.18 24.32 C1.18 19.54, 5.98 14.31, 11.76 10.39 C17.55 6.48, 26.07 2.47, 34.88 0.83 C43.69 -0.81, 59.49 0.34, 64.63 0.54 C69.77 0.74, 66.08 1.44, 65.73 2.04 M43.34 0.54 C51.75 -0.13, 62.71 1.03, 71.13 3.16 C79.56 5.28, 89.21 9.16, 93.88 13.28 C98.54 17.41, 99.5 23.22, 99.12 27.91 C98.75 32.6, 96.79 37.55, 91.65 41.43 C86.5 45.3, 76.78 49.32, 68.26 51.19 C59.74 53.06, 49.31 53.77, 40.52 52.66 C31.74 51.54, 22.01 47.54, 15.58 44.5 C9.14 41.47, 4.2 38.73, 1.93 34.44 C-0.35 30.14, -0.9 23.7, 1.94 18.73 C4.78 13.75, 12.05 7.57, 18.98 4.6 C25.91 1.62, 39.25 1.74, 43.54 0.89 C47.83 0.04, 44.22 -0.87, 44.71 -0.51" stroke="#1e1e1e" stroke-width="2" fill="none"></path></g><g transform="translate(275.93236538728115 89.19694875924023) rotate(0 30.14398193359375 10)"><text x="30.14398193359375" y="0" font-family="Virgil, Segoe UI Emoji" font-size="16px" fill="#1e1e1e" text-anchor="middle" style="white-space: pre;" direction="ltr" dominant-baseline="text-before-edge">himavat</text></g><g stroke-linecap="round" transform="translate(204.605267615157 171.08111131653177) rotate(0 44.03254701633182 22.95908410497138)"><path d="M27.41 1.69 C34.48 -0.38, 45.56 -0.48, 53.83 0.52 C62.09 1.52, 71.31 4.27, 77 7.68 C82.7 11.08, 87.16 16.52, 88 20.95 C88.84 25.38, 86.59 30.2, 82.06 34.25 C77.53 38.29, 68.97 43.26, 60.82 45.21 C52.67 47.17, 41.48 47.15, 33.17 45.99 C24.85 44.82, 16.33 41.9, 10.93 38.23 C5.52 34.56, 1.31 28.63, 0.72 23.97 C0.12 19.31, 0.96 14.18, 7.35 10.26 C13.74 6.34, 32.02 1.95, 39.06 0.45 C46.1 -1.05, 49.63 1.02, 49.6 1.26 M30.91 1.3 C38.95 -0.12, 51.94 0.33, 60.04 1.95 C68.13 3.57, 74.79 7.33, 79.48 11.02 C84.16 14.71, 88.51 19.62, 88.13 24.08 C87.75 28.54, 82.74 34.21, 77.21 37.77 C71.67 41.33, 63.09 44.52, 54.91 45.44 C46.73 46.35, 36 44.66, 28.13 43.27 C20.26 41.89, 12.46 40.58, 7.69 37.13 C2.92 33.68, -0.88 27.55, -0.49 22.59 C-0.1 17.64, 4.73 10.9, 10.01 7.4 C15.28 3.89, 27.42 2.79, 31.16 1.58 C34.9 0.36, 31.86 -0.19, 32.45 0.1" stroke="#1e1e1e" stroke-width="2" fill="none"></path></g><g transform="translate(223.77411284654778 183.8056713610456) rotate(0 24.727989196777344 10)"><text x="24.727989196777344" y="0" font-family="Virgil, Segoe UI Emoji" font-size="16px" fill="#1e1e1e" text-anchor="middle" style="white-space: pre;" direction="ltr" dominant-baseline="text-before-edge">Ganga</text></g><g stroke-linecap="round" transform="translate(351.33401973261664 170.83500232285095) rotate(0 44.032547016331826 22.959084104971353)"><path d="M44.05 -0.57 C52.43 -0.84, 63.49 1.53, 70.64 4.18 C77.78 6.84, 84.35 10.82, 86.91 15.36 C89.48 19.9, 89.01 26.89, 86.04 31.42 C83.07 35.96, 76.14 40.05, 69.11 42.56 C62.09 45.07, 52.38 46.78, 43.87 46.47 C35.37 46.17, 24.98 43.63, 18.08 40.74 C11.18 37.85, 5.02 33.31, 2.5 29.14 C-0.03 24.97, 0.23 19.78, 2.93 15.71 C5.64 11.64, 10.78 7.4, 18.74 4.73 C26.69 2.05, 44.47 0.35, 50.68 -0.33 C56.89 -1, 56.03 0.32, 56 0.67 M49.38 1.06 C57.47 1.33, 68.89 3.68, 75.01 6.8 C81.12 9.92, 84.85 15.3, 86.07 19.77 C87.3 24.23, 86.11 29.87, 82.38 33.59 C78.65 37.31, 71.14 39.86, 63.71 42.11 C56.27 44.36, 46.3 47.46, 37.79 47.09 C29.28 46.72, 18.74 43.49, 12.63 39.88 C6.52 36.26, 2.63 29.81, 1.14 25.4 C-0.35 20.99, -0.09 17.43, 3.69 13.42 C7.47 9.42, 15.78 3.54, 23.83 1.39 C31.88 -0.76, 47.74 0.56, 51.98 0.53 C56.22 0.5, 49.71 1.04, 49.29 1.19" stroke="#1e1e1e" stroke-width="2" fill="none"></path></g><g transform="translate(379.11886227846054 183.55956236736478) rotate(0 16.11199188232422 10)"><text x="16.11199188232422" y="0" font-family="Virgil, Segoe UI Emoji" font-size="16px" fill="#1e1e1e" text-anchor="middle" style="white-space: pre;" direction="ltr" dominant-baseline="text-before-edge">Uma</text></g><g stroke-linecap="round"><g transform="translate(288.21139484414664 124.81904900516471) rotate(0 -15.885162259916115 24.524455624065027)"><path d="M-0.22 -1.01 C-5.63 7.37, -27.11 40.6, -32.46 49.09 M-1.79 1.08 C-6.82 9.77, -24.84 42.82, -30.11 50.65" stroke="#1e1e1e" stroke-width="2" fill="none"></path></g><g transform="translate(288.21139484414664 124.81904900516471) rotate(0 -15.885162259916115 24.524455624065027)"><path d="M-30.64 49.14 L-27.75 34.04 L-19.24 41.33 L-30.56 48.69" stroke="none" stroke-width="0" fill="#1e1e1e" fill-rule="evenodd"></path><path d="M-30.11 50.65 C-30.75 45.26, -28.98 40.88, -28.57 35.73 M-30.11 50.65 C-28.68 44.98, -28.24 39.99, -28.57 35.73 M-28.57 35.73 C-23.9 37.49, -20.15 40.76, -17.69 42.24 M-28.57 35.73 C-25.77 37.28, -22.73 39.66, -17.69 42.24 M-17.69 42.24 C-19.87 42.97, -22.32 46.1, -30.11 50.65 M-17.69 42.24 C-22.19 45.11, -25.88 46.95, -30.11 50.65 M-30.11 50.65 C-30.11 50.65, -30.11 50.65, -30.11 50.65 M-30.11 50.65 C-30.11 50.65, -30.11 50.65, -30.11 50.65" stroke="#1e1e1e" stroke-width="2" fill="none"></path></g></g><mask></mask><g stroke-linecap="round"><g transform="translate(333.91604909632304 121.47479200921109) rotate(0 24.80314902259431 25.081831790057294)"><path d="M-0.69 0.04 C7.52 8.72, 40.85 42.62, 49.04 51.06 M1.15 -0.98 C9.17 7.45, 39.53 41.15, 47.8 49.41" stroke="#1e1e1e" stroke-width="2" fill="none"></path></g><g transform="translate(333.91604909632304 121.47479200921109) rotate(0 24.80314902259431 25.081831790057294)"><path d="M48.62 47.72 L32.3 42.97 L42.62 33.22 L47.9 49.54" stroke="none" stroke-width="0" fill="#1e1e1e" fill-rule="evenodd"></path><path d="M47.8 49.41 C43.97 47.06, 41.1 44.81, 33.86 43.87 M47.8 49.41 C43.58 48.03, 38.68 46.09, 33.86 43.87 M33.86 43.87 C36.73 42.11, 38.22 40.38, 43.08 35.17 M33.86 43.87 C35.99 41.66, 38.52 39.28, 43.08 35.17 M43.08 35.17 C45.58 40.27, 46.63 43.76, 47.8 49.41 M43.08 35.17 C44.26 39.37, 46.32 45.52, 47.8 49.41 M47.8 49.41 C47.8 49.41, 47.8 49.41, 47.8 49.41 M47.8 49.41 C47.8 49.41, 47.8 49.41, 47.8 49.41" stroke="#1e1e1e" stroke-width="2" fill="none"></path></g></g><mask></mask><g stroke-linecap="round" transform="translate(100.37633918617996 10) rotate(0 40.130924485452056 25.360522530819964)"><path d="M12.68 0 C27.5 -1.61, 40.14 2.14, 67.58 0 M12.68 0 C29.16 0.23, 43.99 0.22, 67.58 0 M67.58 0 C75.07 1.01, 80.8 4, 80.26 12.68 M67.58 0 C77.42 -0.52, 78.86 2.97, 80.26 12.68 M80.26 12.68 C80.92 19.34, 81.03 22.46, 80.26 38.04 M80.26 12.68 C79.35 22.04, 79.58 30.87, 80.26 38.04 M80.26 38.04 C79.41 44.87, 76.42 52.62, 67.58 50.72 M80.26 38.04 C79.46 47.34, 76.86 48.67, 67.58 50.72 M67.58 50.72 C52.98 52.65, 41.94 49.24, 12.68 50.72 M67.58 50.72 C49.78 49.46, 30.37 49.86, 12.68 50.72 M12.68 50.72 C3.77 48.77, 0.1 46.63, 0 38.04 M12.68 50.72 C4.58 52.64, 2.29 46.29, 0 38.04 M0 38.04 C-1.48 31.37, -0.02 20.74, 0 12.68 M0 38.04 C-0.72 30.16, 0.83 20.57, 0 12.68 M0 12.68 C0.66 4.65, 2.77 -0.43, 12.68 0 M0 12.68 C0.91 6.33, 2.12 1.45, 12.68 0" stroke="#1e1e1e" stroke-width="2" fill="none"></path></g><g transform="translate(114.09127093481561 25.360522530819964) rotate(0 26.415992736816406 10)"><text x="26.415992736816406" y="0" font-family="Virgil, Segoe UI Emoji" font-size="16px" fill="#1e1e1e" text-anchor="middle" style="white-space: pre;" direction="ltr" dominant-baseline="text-before-edge">Heaven</text></g><g stroke-linecap="round"><g transform="translate(206.27740674419977 184.45805425181732) rotate(0 -35.671936419646045 -61.31114437569563)"><path d="M1.13 -0.12 C-10.42 -1.73, -58.83 11.1, -70.42 -9.19 C-82.02 -29.49, -68.56 -103.1, -68.44 -121.88 M0.27 -1.23 C-11.26 -3.22, -59.37 9.56, -70.89 -10.87 C-82.41 -31.31, -69.03 -104.97, -68.86 -123.83" stroke="#1e1e1e" stroke-width="2" fill="none"></path></g><g transform="translate(206.27740674419977 184.45805425181732) rotate(0 -35.671936419646045 -61.31114437569563)"><path d="M-68.76 -123.69 L-63.5 -108.04 L-74.45 -111.06 L-68.8 -123.6" stroke="none" stroke-width="0" fill="#1e1e1e" fill-rule="evenodd"></path><path d="M-68.86 -123.83 C-67.91 -119.81, -65.66 -117.2, -63.81 -109.71 M-68.86 -123.83 C-67.47 -118.37, -65.08 -113.73, -63.81 -109.71 M-63.81 -109.71 C-69.05 -111.17, -72.59 -111.65, -76.43 -110.89 M-63.81 -109.71 C-68.48 -109.71, -72.1 -110.35, -76.43 -110.89 M-76.43 -110.89 C-74.54 -114.16, -74.56 -115.91, -68.86 -123.83 M-76.43 -110.89 C-73.13 -116.7, -70.88 -120.78, -68.86 -123.83 M-68.86 -123.83 C-68.86 -123.83, -68.86 -123.83, -68.86 -123.83 M-68.86 -123.83 C-68.86 -123.83, -68.86 -123.83, -68.86 -123.83" stroke="#1e1e1e" stroke-width="2" fill="none"></path></g></g><mask></mask><g stroke-linecap="round" transform="translate(613.7178425799656 50.13091916991897) rotate(0 54.06528611099441 26.753954972501077)"><path d="M69.55 0.55 C78.64 1.58, 88.88 5.57, 95.19 9.37 C101.5 13.17, 106.09 18.75, 107.41 23.37 C108.74 27.99, 107.23 32.92, 103.17 37.1 C99.11 41.27, 91.13 45.8, 83.05 48.4 C74.97 51.01, 64.27 52.47, 54.67 52.71 C45.07 52.95, 33.65 52.43, 25.44 49.85 C17.22 47.27, 9.46 41.69, 5.39 37.24 C1.32 32.8, -0.25 27.99, 1.04 23.19 C2.32 18.39, 6.8 12.23, 13.11 8.44 C19.41 4.65, 27.62 1.35, 38.88 0.44 C50.14 -0.48, 72.32 1.78, 80.66 2.97 C89.01 4.15, 89.26 7.17, 88.94 7.57 M62.98 1.17 C72.14 1.66, 83.72 2.83, 91.21 6.06 C98.7 9.29, 105.78 15.58, 107.93 20.54 C110.09 25.5, 107.57 31.47, 104.14 35.8 C100.72 40.14, 94.71 43.82, 87.38 46.54 C80.06 49.26, 70.02 51.54, 60.2 52.1 C50.38 52.67, 37.31 52.15, 28.46 49.94 C19.61 47.73, 11.82 42.86, 7.09 38.83 C2.37 34.8, -0.37 30.14, 0.12 25.77 C0.61 21.41, 4.2 16.63, 10.04 12.64 C15.87 8.65, 26.12 3.86, 35.11 1.85 C44.1 -0.15, 59.2 0.95, 63.96 0.62 C68.73 0.3, 63.72 -0.52, 63.68 -0.11" stroke="#1e1e1e" stroke-width="2" fill="none"></path></g><g transform="translate(644.569212354206 66.96697115780498) rotate(0 22.983985900878906 10)"><text x="22.983985900878906" y="0" font-family="Virgil, Segoe UI Emoji" font-size="16px" fill="#1e1e1e" text-anchor="middle" style="white-space: pre;" direction="ltr" dominant-baseline="text-before-edge">Sagar</text></g><g stroke-linecap="round" transform="translate(555.1935258789009 132.62227280479206) rotate(0 49.884959550519284 25.467260905337398)"><path d="M37.83 1.34 C45.83 -0.19, 57.36 -0.5, 65.79 0.76 C74.23 2.02, 82.77 5.32, 88.43 8.89 C94.09 12.45, 98.74 17.38, 99.77 22.15 C100.8 26.93, 98.68 33.45, 94.61 37.54 C90.54 41.63, 83.07 44.45, 75.34 46.69 C67.62 48.92, 57.25 51.2, 48.24 50.97 C39.22 50.75, 28.61 48.12, 21.24 45.34 C13.87 42.57, 7.39 38.5, 4.03 34.32 C0.68 30.15, -0.35 24.68, 1.12 20.32 C2.58 15.96, 5.48 11.57, 12.84 8.15 C20.19 4.74, 38.87 1.02, 45.24 -0.19 C51.62 -1.4, 51.3 0.5, 51.09 0.87 M63.16 1.01 C71.41 1.97, 79.03 5.31, 84.92 8.41 C90.8 11.5, 96.51 15.35, 98.48 19.57 C100.46 23.79, 100.26 29.38, 96.78 33.71 C93.29 38.05, 85.07 42.94, 77.57 45.56 C70.08 48.18, 60.59 49.1, 51.82 49.44 C43.05 49.78, 32.62 49.45, 24.94 47.6 C17.25 45.75, 9.6 42.47, 5.73 38.35 C1.86 34.22, 0.89 27.61, 1.73 22.86 C2.57 18.12, 5.46 13.62, 10.77 9.86 C16.09 6.1, 24.99 1.82, 33.61 0.3 C42.23 -1.22, 58.09 0.46, 62.5 0.73 C66.9 1.01, 60.28 1.47, 60.04 1.95" stroke="#1e1e1e" stroke-width="2" fill="none"></path></g><g transform="translate(583.2485077549611 148.08146082571832) rotate(0 22.055984497070312 10)"><text x="22.055984497070312" y="0" font-family="Virgil, Segoe UI Emoji" font-size="16px" fill="#1e1e1e" text-anchor="middle" style="white-space: pre;" direction="ltr" dominant-baseline="text-before-edge">keshni</text></g><g stroke-linecap="round" transform="translate(736.7581235893527 129.72865625807978) rotate(0 47.0980680894919 25.46727153640353)"><path d="M60.52 0.39 C69.16 1.43, 79.42 5.23, 85.08 9.43 C90.75 13.64, 94.35 20.64, 94.49 25.63 C94.63 30.62, 91.2 35.38, 85.91 39.38 C80.62 43.38, 71.54 48.07, 62.77 49.65 C53.99 51.23, 42.1 50.47, 33.26 48.86 C24.43 47.25, 15.25 43.92, 9.75 40 C4.24 36.09, 0.57 30.21, 0.25 25.37 C-0.07 20.53, 2.38 15.02, 7.83 10.96 C13.27 6.9, 23.06 2.38, 32.92 1 C42.78 -0.38, 60.73 2.22, 66.99 2.65 C73.25 3.09, 70.78 3.27, 70.48 3.61 M27.64 2.48 C35.17 0.09, 48.1 -1.31, 57.38 -0.46 C66.66 0.38, 77.41 3.68, 83.32 7.53 C89.23 11.38, 92.23 17.68, 92.86 22.62 C93.48 27.56, 91.64 32.76, 87.08 37.16 C82.52 41.56, 73.9 46.64, 65.49 49.03 C57.09 51.43, 45.4 52.69, 36.65 51.52 C27.89 50.35, 19.06 45.96, 12.98 42 C6.91 38.05, 1.26 32.94, 0.21 27.81 C-0.83 22.68, 1.84 15.52, 6.73 11.22 C11.61 6.92, 26.04 3.35, 29.54 2.01 C33.03 0.67, 27.42 2.75, 27.69 3.2" stroke="#1e1e1e" stroke-width="2" fill="none"></path></g><g transform="translate(758.4928460521745 145.18784739277322) rotate(0 25.559982299804688 10)"><text x="25.559982299804688" y="0" font-family="Virgil, Segoe UI Emoji" font-size="16px" fill="#1e1e1e" text-anchor="middle" style="white-space: pre;" direction="ltr" dominant-baseline="text-before-edge">sumati</text></g><g stroke-linecap="round"><g transform="translate(652.1766598295729 103.6388291149211) rotate(0 -21.73759605623593 16.163850342912312)"><path d="M-0.73 -0.66 C-8.25 4.82, -37.1 27.06, -44.39 32.62 M1.09 1.61 C-6.12 6.74, -34.97 25.83, -42.15 30.65" stroke="#1e1e1e" stroke-width="2" fill="none"></path></g><g transform="translate(652.1766598295729 103.6388291149211) rotate(0 -21.73759605623593 16.163850342912312)"><path d="M-41.48 31.13 L-35.62 19.73 L-25.5 28.75 L-41.49 31.07" stroke="none" stroke-width="0" fill="#1e1e1e" fill-rule="evenodd"></path><path d="M-42.15 30.65 C-40.14 24.94, -36.14 20.27, -34.36 17.84 M-42.15 30.65 C-40.24 26.8, -37.03 22.28, -34.36 17.84 M-34.36 17.84 C-32.54 19.54, -32.43 22.51, -27.33 28.39 M-34.36 17.84 C-31.39 21.42, -29.24 26.45, -27.33 28.39 M-27.33 28.39 C-31.63 28.09, -35.98 29.52, -42.15 30.65 M-27.33 28.39 C-31.23 28.43, -34.15 28.55, -42.15 30.65 M-42.15 30.65 C-42.15 30.65, -42.15 30.65, -42.15 30.65 M-42.15 30.65 C-42.15 30.65, -42.15 30.65, -42.15 30.65" stroke="#1e1e1e" stroke-width="2" fill="none"></path></g></g><mask></mask><g stroke-linecap="round"><g transform="translate(698.9960451516016 98.06508871713058) rotate(0 35.11458151578597 16.442533110375393)"><path d="M-0.91 0.29 C10.75 5.94, 57.32 27.74, 69.27 33.24 M0.81 -0.6 C12.91 4.74, 59.89 26.01, 71.48 31.31" stroke="#1e1e1e" stroke-width="2" fill="none"></path></g><g transform="translate(698.9960451516016 98.06508871713058) rotate(0 35.11458151578597 16.442533110375393)"><path d="M70.22 33.2 L58.31 31.82 L62.39 20.33 L70.02 30.88" stroke="none" stroke-width="0" fill="#1e1e1e" fill-rule="evenodd"></path><path d="M71.48 31.31 C68.26 30.03, 64.75 32, 56.48 31.46 M71.48 31.31 C66.5 31.54, 60.72 31.78, 56.48 31.46 M56.48 31.46 C56.63 29.06, 60.07 25.72, 61.72 19.91 M56.48 31.46 C57.8 27.92, 60.02 23.22, 61.72 19.91 M61.72 19.91 C66.07 24.08, 68.31 29.59, 71.48 31.31 M61.72 19.91 C63.57 21.68, 65.88 24.92, 71.48 31.31 M71.48 31.31 C71.48 31.31, 71.48 31.31, 71.48 31.31 M71.48 31.31 C71.48 31.31, 71.48 31.31, 71.48 31.31" stroke="#1e1e1e" stroke-width="2" fill="none"></path></g></g><mask></mask><g stroke-linecap="round" transform="translate(741.3564636699567 220.13000130252954) rotate(0 81.65526280821953 21)"><path d="M102.07 0.7 C113.98 1.12, 126.79 2.37, 136.2 4.41 C145.61 6.45, 154.06 9.81, 158.52 12.94 C162.97 16.07, 164.7 19.82, 162.92 23.2 C161.14 26.57, 154.96 30.51, 147.84 33.19 C140.73 35.88, 131.27 37.76, 120.24 39.29 C109.22 40.81, 94.63 42.42, 81.67 42.36 C68.72 42.3, 53.66 40.49, 42.51 38.92 C31.35 37.35, 21.86 35.35, 14.74 32.93 C7.61 30.51, 1.28 27.76, -0.24 24.39 C-1.77 21.02, 0.89 15.95, 5.61 12.71 C10.34 9.47, 18.74 6.9, 28.09 4.95 C37.43 3, 48.55 1.77, 61.7 1 C74.85 0.23, 98.48 0.19, 107.01 0.33 C115.54 0.48, 113.36 1.41, 112.9 1.87 M86 -0.12 C98.02 -0.5, 111.41 1.48, 122.15 2.93 C132.88 4.39, 143.45 5.88, 150.39 8.6 C157.32 11.31, 162.92 15.66, 163.77 19.2 C164.62 22.75, 160.42 26.79, 155.49 29.85 C150.55 32.91, 143.81 35.37, 134.14 37.56 C124.47 39.74, 109.7 42.32, 97.47 42.97 C85.23 43.63, 72.66 42.54, 60.73 41.47 C48.8 40.4, 35.48 38.88, 25.9 36.54 C16.32 34.2, 7.3 30.34, 3.25 27.44 C-0.8 24.53, -0.34 22.11, 1.58 19.11 C3.5 16.11, 7.25 12.31, 14.74 9.42 C22.23 6.54, 34.97 3.13, 46.52 1.79 C58.06 0.44, 77.82 1.4, 84 1.36 C90.18 1.32, 83.32 1.34, 83.6 1.56" stroke="#1e1e1e" stroke-width="2" fill="none"></path></g><g transform="translate(772.724762794102 231.28075889761203) rotate(0 50.0479736328125 10)"><text x="50.0479736328125" y="0" font-family="Virgil, Segoe UI Emoji" font-size="16px" fill="#1e1e1e" text-anchor="middle" style="white-space: pre;" direction="ltr" dominant-baseline="text-before-edge">60,000 sons</text></g><g stroke-linecap="round"><g transform="translate(788.7332995754406 181.113818517996) rotate(0 17.27858672829757 19.786774159729887)"><path d="M-0.95 0.64 C4.73 7.2, 28.9 33.17, 34.63 39.74 M0.76 -0.06 C6.23 6.67, 27.89 35.03, 33.73 41.36" stroke="#1e1e1e" stroke-width="2" fill="none"></path></g><g transform="translate(788.7332995754406 181.113818517996) rotate(0 17.27858672829757 19.786774159729887)"><path d="M32.27 40.94 L20.97 36.75 L28.11 28.11 L34.08 40.98" stroke="none" stroke-width="0" fill="#1e1e1e" fill-rule="evenodd"></path><path d="M33.73 41.36 C29.78 39.11, 24.45 35.37, 20.18 34.93 M33.73 41.36 C28.86 38.61, 24.73 37.75, 20.18 34.93 M20.18 34.93 C21.61 31.95, 25.93 30.7, 29.95 26.85 M20.18 34.93 C21.77 33.33, 24.23 30.88, 29.95 26.85 M29.95 26.85 C30.43 31.49, 30.94 36.86, 33.73 41.36 M29.95 26.85 C31.88 31.21, 32.31 35.82, 33.73 41.36 M33.73 41.36 C33.73 41.36, 33.73 41.36, 33.73 41.36 M33.73 41.36 C33.73 41.36, 33.73 41.36, 33.73 41.36" stroke="#1e1e1e" stroke-width="2" fill="none"></path></g></g><mask></mask><g stroke-linecap="round" transform="translate(545.7181842123626 222.35948470436642) rotate(0 62.42587544554783 21)"><path d="M34.77 1.79 C43.74 0.07, 57.02 -0.11, 68.32 0.31 C79.62 0.73, 93.62 1.9, 102.58 4.31 C111.53 6.71, 118.8 11.2, 122.04 14.74 C125.28 18.29, 124.78 21.96, 122.01 25.57 C119.24 29.19, 113.64 33.61, 105.42 36.45 C97.19 39.29, 83.79 42.08, 72.67 42.61 C61.55 43.14, 48.89 41.29, 38.69 39.64 C28.48 37.98, 18.01 35.61, 11.44 32.7 C4.88 29.78, -0.13 26.01, -0.71 22.15 C-1.3 18.28, 0.88 13.03, 7.91 9.49 C14.95 5.96, 34.65 2.37, 41.49 0.93 C48.34 -0.5, 48.56 0.51, 48.99 0.9 M87.78 1.98 C97.64 3.01, 108.22 5.24, 114.52 8.37 C120.83 11.5, 125.72 16.69, 125.61 20.78 C125.49 24.86, 119.87 29.61, 113.85 32.88 C107.83 36.15, 99.58 38.64, 89.48 40.37 C79.39 42.09, 64.28 43.75, 53.27 43.24 C42.26 42.73, 31.78 39.92, 23.44 37.29 C15.09 34.66, 6.92 31.17, 3.22 27.45 C-0.47 23.73, -1.82 18.45, 1.25 14.98 C4.31 11.52, 13.25 8.95, 21.62 6.65 C30 4.35, 40.43 2.05, 51.49 1.2 C62.55 0.34, 82.12 1.12, 88 1.51 C93.87 1.9, 87.33 2.98, 86.72 3.54" stroke="#1e1e1e" stroke-width="2" fill="none"></path></g><g transform="translate(570.8903231853217 233.51024229944892) rotate(0 37.111976623535156 10)"><text x="37.111976623535156" y="0" font-family="Virgil, Segoe UI Emoji" font-size="16px" fill="#1e1e1e" text-anchor="middle" style="white-space: pre;" direction="ltr" dominant-baseline="text-before-edge">asamanja</text></g><g stroke-linecap="round"><g transform="translate(606.4719630531318 182.2285708499805) rotate(0 2.2295046639692373 20.90152649171445)"><path d="M-0.38 0.14 C0.41 6.99, 3.4 34.32, 4.23 41.36 M0.42 -0.27 C1.16 6.63, 3.03 34.86, 3.67 41.83" stroke="#1e1e1e" stroke-width="2" fill="none"></path></g><g transform="translate(606.4719630531318 182.2285708499805) rotate(0 2.2295046639692373 20.90152649171445)"><path d="M3.85 41.63 L-4.04 29.66 L8.37 28.53 L4.64 42.2" stroke="none" stroke-width="0" fill="#1e1e1e" fill-rule="evenodd"></path><path d="M3.67 41.83 C2.31 38.77, -0.02 36.53, -3.7 28.76 M3.67 41.83 C0.92 36.34, -2.37 31.7, -3.7 28.76 M-3.7 28.76 C0.3 27.92, 4.27 27.93, 8.94 27.78 M-3.7 28.76 C-1.11 28.45, 1.91 28.06, 8.94 27.78 M8.94 27.78 C7.96 32.81, 5.66 36.38, 3.67 41.83 M8.94 27.78 C7.49 32.14, 5.29 36.7, 3.67 41.83 M3.67 41.83 C3.67 41.83, 3.67 41.83, 3.67 41.83 M3.67 41.83 C3.67 41.83, 3.67 41.83, 3.67 41.83" stroke="#1e1e1e" stroke-width="2" fill="none"></path></g></g><mask></mask><g transform="translate(428.1122703238358 276.9821363502871) rotate(0 65.36795806884766 10)"><text x="0" y="0" font-family="Virgil, Segoe UI Emoji" font-size="16px" fill="#1e1e1e" text-anchor="start" style="white-space: pre;" direction="ltr" dominant-baseline="text-before-edge">criminal, banished</text></g><g stroke-linecap="round"><g transform="translate(561.3246743358819 257.4740662201525) rotate(0 -19.78677415972993 10.590125891720987)"><path d="M0.23 1.14 C-6.35 4.91, -33.43 18.46, -39.99 21.62 M-1.11 0.69 C-7.84 4.18, -34.73 16.37, -41.16 19.73" stroke="#1e1e1e" stroke-width="2" fill="none"></path></g><g transform="translate(561.3246743358819 257.4740662201525) rotate(0 -19.78677415972993 10.590125891720987)"><path d="M-42.3 21.23 L-29.75 8.86 L-26.03 18.97 L-39.99 18.67" stroke="none" stroke-width="0" fill="#1e1e1e" fill-rule="evenodd"></path><path d="M-41.16 19.73 C-37.2 16.19, -35.63 14.26, -31.68 8.11 M-41.16 19.73 C-39.04 16.63, -36.38 14.92, -31.68 8.11 M-31.68 8.11 C-31.36 11.2, -30.24 12.25, -26.16 19.52 M-31.68 8.11 C-30.27 11.11, -28.8 14.51, -26.16 19.52 M-26.16 19.52 C-31.98 19.56, -39.23 20.45, -41.16 19.73 M-26.16 19.52 C-30.42 19.84, -35.65 20.43, -41.16 19.73 M-41.16 19.73 C-41.16 19.73, -41.16 19.73, -41.16 19.73 M-41.16 19.73 C-41.16 19.73, -41.16 19.73, -41.16 19.73" stroke="#1e1e1e" stroke-width="2" fill="none"></path></g></g><mask></mask><g stroke-linecap="round" transform="translate(621.5210451174609 309.86723446423616) rotate(0 58.802956944263514 21)"><path d="M69.81 0.41 C79.88 1.03, 90.44 4.15, 98.14 6.6 C105.83 9.04, 113.19 11.61, 115.99 15.08 C118.78 18.54, 118.4 23.61, 114.89 27.39 C111.37 31.18, 103.33 35.5, 94.88 37.78 C86.42 40.07, 74.65 40.81, 64.16 41.1 C53.67 41.4, 41.44 41.1, 31.95 39.54 C22.46 37.98, 12.52 34.93, 7.21 31.74 C1.9 28.55, -0.59 24, 0.11 20.37 C0.81 16.75, 5.36 13.12, 11.39 9.99 C17.42 6.87, 25.43 3.12, 36.29 1.61 C47.16 0.11, 68.95 0.74, 76.59 0.94 C84.22 1.14, 82.43 2.62, 82.12 2.8 M71.85 2.02 C81.97 2.58, 95.29 4.25, 102.82 6.81 C110.36 9.37, 115.49 13.77, 117.07 17.39 C118.64 21.01, 116.2 24.84, 112.25 28.53 C108.31 32.21, 102.09 37.1, 93.4 39.5 C84.7 41.9, 70.74 43.03, 60.1 42.93 C49.45 42.82, 38.57 40.71, 29.55 38.87 C20.53 37.04, 10.99 35.06, 5.97 31.93 C0.95 28.8, -1.93 23.98, -0.57 20.09 C0.78 16.19, 7.38 11.77, 14.11 8.55 C20.84 5.32, 29.87 2.18, 39.79 0.72 C49.72 -0.73, 68.44 -0.19, 73.67 -0.19 C78.9 -0.2, 71.38 0.19, 71.19 0.71" stroke="#1e1e1e" stroke-width="2" fill="none"></path></g><g transform="translate(644.284056256326 321.01799205931866) rotate(0 35.95997619628906 10)"><text x="35.95997619628906" y="0" font-family="Virgil, Segoe UI Emoji" font-size="16px" fill="#1e1e1e" text-anchor="middle" style="white-space: pre;" direction="ltr" dominant-baseline="text-before-edge">Anshuman</text></g><g stroke-linecap="round"><g transform="translate(633.2258914479677 263.047806617943) rotate(0 14.21305502407165 23.409713923146597)"><path d="M-0.76 0.58 C3.92 8.4, 23.46 38.12, 28.51 45.86 M1.05 -0.17 C5.54 7.87, 22.89 38.79, 27.61 46.89" stroke="#1e1e1e" stroke-width="2" fill="none"></path></g><g transform="translate(633.2258914479677 263.047806617943) rotate(0 14.21305502407165 23.409713923146597)"><path d="M28.78 45.83 L13.61 37.82 L27.9 32.31 L27.16 47.23" stroke="none" stroke-width="0" fill="#1e1e1e" fill-rule="evenodd"></path><path d="M27.61 46.89 C24.3 44.02, 18.26 42.41, 15.37 38.23 M27.61 46.89 C23.58 43.61, 20.19 40.78, 15.37 38.23 M15.37 38.23 C16.61 36.92, 20.38 35.66, 26.38 31.95 M15.37 38.23 C19.55 35.9, 23.73 32.96, 26.38 31.95 M26.38 31.95 C27.53 37.7, 27.61 41.49, 27.61 46.89 M26.38 31.95 C27.25 38, 26.94 43.59, 27.61 46.89 M27.61 46.89 C27.61 46.89, 27.61 46.89, 27.61 46.89 M27.61 46.89 C27.61 46.89, 27.61 46.89, 27.61 46.89" stroke="#1e1e1e" stroke-width="2" fill="none"></path></g></g><mask></mask><g stroke-linecap="round" transform="translate(502.80044268334575 407.96505696049644) rotate(0 72.17992114168135 25)"><path d="M12.5 0 C39.17 1.8, 69.41 -1.61, 131.86 0 M12.5 0 C52.52 0.05, 90.93 0.45, 131.86 0 M131.86 0 C139.74 -1.95, 144.46 4.31, 144.36 12.5 M131.86 0 C140.55 1.92, 146.65 3.96, 144.36 12.5 M144.36 12.5 C142.94 21.08, 144.4 25.69, 144.36 37.5 M144.36 12.5 C143.81 22.15, 145.36 30.08, 144.36 37.5 M144.36 37.5 C145.02 46.25, 138.74 49.57, 131.86 50 M144.36 37.5 C145.27 47.93, 138.09 51.45, 131.86 50 M131.86 50 C95.77 48.46, 57.59 51.53, 12.5 50 M131.86 50 C92.13 49.14, 50.36 49.47, 12.5 50 M12.5 50 C5.68 50.37, -0.45 46.17, 0 37.5 M12.5 50 C2.7 48.02, 0.8 43.83, 0 37.5 M0 37.5 C-1.96 26.86, -1.53 18.44, 0 12.5 M0 37.5 C0.9 31.27, -0.99 23.74, 0 12.5 M0 12.5 C0.46 3.59, 2.91 -0.22, 12.5 0 M0 12.5 C-1.92 6.36, 3.81 -1.31, 12.5 0" stroke="#1e1e1e" stroke-width="2" fill="none"></path></g><g transform="translate(525.1803989202419 412.96505696049644) rotate(0 49.799964904785156 20)"><text x="49.799964904785156" y="0" font-family="Virgil, Segoe UI Emoji" font-size="16px" fill="#1e1e1e" text-anchor="middle" style="white-space: pre;" direction="ltr" dominant-baseline="text-before-edge">Ashvamegha </text><text x="49.799964904785156" y="20" font-family="Virgil, Segoe UI Emoji" font-size="16px" fill="#1e1e1e" text-anchor="middle" style="white-space: pre;" direction="ltr" dominant-baseline="text-before-edge">Yajna</text></g><g stroke-linecap="round"><g transform="translate(672.799482291692 104.1962052809134) rotate(0 51.77841591209915 156.52724218367683)"><path d="M-0.91 0.38 C6.65 29.92, 24.9 144.62, 46.5 177.46 C68.1 210.3, 140.7 174.9, 128.69 197.41 C116.68 219.92, 0.03 293.43, -25.57 312.51" stroke="#1e1e1e" stroke-width="2.5" fill="none" stroke-dasharray="1.5 8"></path></g><g transform="translate(672.799482291692 104.1962052809134) rotate(0 51.77841591209915 156.52724218367683)"><path d="M-26.83 314.41 L-16.11 299.96 L-10.11 310.48 L-27.03 312.08" stroke="none" stroke-width="0" fill="#1e1e1e" fill-rule="evenodd"></path><path d="M-25.57 312.51 C-22.11 307.07, -20.71 303, -17.94 299.6 M-17.94 299.6 C-16.77 300.65, -14.87 304.23, -10.78 310.05 M-10.78 310.05 C-15.56 311.02, -19.91 311.7, -25.57 312.51 M-25.57 312.51 C-25.57 312.51, -25.57 312.51, -25.57 312.51" stroke="#1e1e1e" stroke-width="2.5" fill="none"></path></g></g><mask></mask><g stroke-linecap="round" transform="translate(698.9960026273369 407.40764890130583) rotate(0 62.14721394021706 25)"><path d="M12.5 0 C33.25 1.09, 55.32 -1.29, 111.79 0 M12.5 0 C37.85 1.04, 63.24 1.8, 111.79 0 M111.79 0 C122.12 -0.18, 124.35 4.4, 124.29 12.5 M111.79 0 C120.05 -1.66, 125.46 4.17, 124.29 12.5 M124.29 12.5 C124.89 16.31, 126.31 24.46, 124.29 37.5 M124.29 12.5 C123.65 20.24, 124.77 29.31, 124.29 37.5 M124.29 37.5 C122.46 47.1, 120.48 49.61, 111.79 50 M124.29 37.5 C123.52 47.9, 118.82 51.73, 111.79 50 M111.79 50 C71.88 51.23, 32 48.31, 12.5 50 M111.79 50 C83.79 50.35, 55.59 49.32, 12.5 50 M12.5 50 C4.86 48.26, 1.83 46.97, 0 37.5 M12.5 50 C2.57 47.91, -0.99 44.23, 0 37.5 M0 37.5 C-0.3 31.23, 0.51 19.31, 0 12.5 M0 37.5 C-0.69 32.13, -0.89 27.93, 0 12.5 M0 12.5 C-0.31 3.03, 3.98 -0.25, 12.5 0 M0 12.5 C-0.4 5.58, 5.92 1.26, 12.5 0" stroke="#1e1e1e" stroke-width="2" fill="none"></path></g><g transform="translate(706.6952566676516 412.40764890130583) rotate(0 54.447959899902344 20)"><text x="54.447959899902344" y="0" font-family="Virgil, Segoe UI Emoji" font-size="16px" fill="#1e1e1e" text-anchor="middle" style="white-space: pre;" direction="ltr" dominant-baseline="text-before-edge">Indra steals </text><text x="54.447959899902344" y="20" font-family="Virgil, Segoe UI Emoji" font-size="16px" fill="#1e1e1e" text-anchor="middle" style="white-space: pre;" direction="ltr" dominant-baseline="text-before-edge">the horse</text></g><g stroke-linecap="round"><g transform="translate(648.1602849667084 436.46158447966934) rotate(0 24.917858830314117 -0.5857920749414234)"><path d="M-0.43 -0.25 C7.82 -0.46, 41.33 -1.56, 49.71 -1.71 M0.35 0.81 C8.5 0.69, 41.02 -1.06, 49.21 -1.29" stroke="#1e1e1e" stroke-width="2" fill="none"></path></g><g transform="translate(648.1602849667084 436.46158447966934) rotate(0 24.917858830314117 -0.5857920749414234)"><path d="M50.13 -0.72 L35.2 4.71 L34.94 -7.75 L49.47 -1.71" stroke="none" stroke-width="0" fill="#1e1e1e" fill-rule="evenodd"></path><path d="M49.21 -1.29 C44.3 0.85, 39.37 3.41, 35.9 5.62 M49.21 -1.29 C45.5 0.86, 41.05 3.05, 35.9 5.62 M35.9 5.62 C35.79 1.24, 35.93 -1.69, 35.37 -7.05 M35.9 5.62 C36.05 1.57, 35.7 -2.52, 35.37 -7.05 M35.37 -7.05 C39.19 -6.46, 42.13 -4.33, 49.21 -1.29 M35.37 -7.05 C39.03 -5.21, 43.49 -3.74, 49.21 -1.29 M49.21 -1.29 C49.21 -1.29, 49.21 -1.29, 49.21 -1.29 M49.21 -1.29 C49.21 -1.29, 49.21 -1.29, 49.21 -1.29" stroke="#1e1e1e" stroke-width="2" fill="none"></path></g></g><mask></mask><g stroke-linecap="round" transform="translate(1028.4041154182996 187.8023325099033) rotate(0 96.42572589148176 75)"><path d="M32 0 C58.67 0.4, 89.4 0.6, 160.85 0 M32 0 C81.44 0.23, 130.79 -0.61, 160.85 0 M160.85 0 C183.19 0.01, 190.91 11.63, 192.85 32 M160.85 0 C182.96 0.55, 191.4 12.85, 192.85 32 M192.85 32 C193.43 64.21, 192.58 100.12, 192.85 118 M192.85 32 C192.24 65.46, 191.73 100.2, 192.85 118 M192.85 118 C191.71 140.84, 184.11 150.75, 160.85 150 M192.85 118 C193.01 138.7, 183.53 148.78, 160.85 150 M160.85 150 C133.9 150.52, 106.55 149.7, 32 150 M160.85 150 C134.2 149.44, 105.02 147.97, 32 150 M32 150 C9.81 148.61, 0.51 138.48, 0 118 M32 150 C10.98 149.53, 2.15 139.79, 0 118 M0 118 C0.19 99.19, 0.55 81.23, 0 32 M0 118 C0.04 83.89, -0.04 50.65, 0 32 M0 32 C1.53 11.76, 11.29 1.86, 32 0 M0 32 C-1.88 11, 12.84 -1.18, 32 0" stroke="#1e1e1e" stroke-width="2" fill="none"></path></g><g transform="translate(1038.933898621793 212.8023325099033) rotate(0 85.89594268798828 50)"><text x="85.89594268798828" y="0" font-family="Virgil, Segoe UI Emoji" font-size="16px" fill="#1e1e1e" text-anchor="middle" style="white-space: pre;" direction="ltr" dominant-baseline="text-before-edge">digs earth and kills </text><text x="85.89594268798828" y="20" font-family="Virgil, Segoe UI Emoji" font-size="16px" fill="#1e1e1e" text-anchor="middle" style="white-space: pre;" direction="ltr" dominant-baseline="text-before-edge">Asuras, Gandharvas, </text><text x="85.89594268798828" y="40" font-family="Virgil, Segoe UI Emoji" font-size="16px" fill="#1e1e1e" text-anchor="middle" style="white-space: pre;" direction="ltr" dominant-baseline="text-before-edge">Serpents on pataal </text><text x="85.89594268798828" y="60" font-family="Virgil, Segoe UI Emoji" font-size="16px" fill="#1e1e1e" text-anchor="middle" style="white-space: pre;" direction="ltr" dominant-baseline="text-before-edge">and rasatala to </text><text x="85.89594268798828" y="80" font-family="Virgil, Segoe UI Emoji" font-size="16px" fill="#1e1e1e" text-anchor="middle" style="white-space: pre;" direction="ltr" dominant-baseline="text-before-edge">search for the horse</text></g><g stroke-linecap="round"><g transform="translate(904.6670530727919 240.75284502678096) rotate(0 60.19639204371117 0.2786827674630672)"><path d="M0.18 1 C20.44 1.06, 101.55 0.5, 121.59 0.45 M-1.18 0.48 C19.02 0.73, 101.12 1.66, 121.26 1.93" stroke="#1e1e1e" stroke-width="2" fill="none"></path></g><g transform="translate(904.6670530727919 240.75284502678096) rotate(0 60.19639204371117 0.2786827674630672)"><path d="M121.77 1.08 L107.86 7.7 L109.62 -4.17 L119.35 0.14" stroke="none" stroke-width="0" fill="#1e1e1e" fill-rule="evenodd"></path><path d="M121.26 1.93 C118.35 5.33, 112.79 5.76, 107.59 8.11 M121.26 1.93 C117.38 3.76, 112.01 6.04, 107.59 8.11 M107.59 8.11 C108.82 5.04, 107.89 0.07, 107.75 -4.57 M107.59 8.11 C107.99 4.61, 107.2 0.37, 107.75 -4.57 M107.75 -4.57 C113.37 -3.31, 117.45 1.05, 121.26 1.93 M107.75 -4.57 C112.76 -2.74, 116.22 -0.29, 121.26 1.93 M121.26 1.93 C121.26 1.93, 121.26 1.93, 121.26 1.93 M121.26 1.93 C121.26 1.93, 121.26 1.93, 121.26 1.93" stroke="#1e1e1e" stroke-width="2" fill="none"></path></g></g><mask></mask><g stroke-linecap="round" transform="translate(1099.1906865090623 404.06343442961645) rotate(0 59.08163971172644 41.24567681743656)"><path d="M59.18 0.51 C68.53 -0.15, 80.68 1.35, 89.34 4.84 C98 8.34, 106.29 15.4, 111.14 21.46 C115.98 27.52, 118.46 34.22, 118.4 41.19 C118.34 48.16, 115.83 57.22, 110.78 63.28 C105.72 69.35, 96.8 74.5, 88.08 77.58 C79.37 80.66, 68.38 81.85, 58.47 81.76 C48.55 81.67, 36.96 80.62, 28.61 77.07 C20.27 73.52, 13.08 66.49, 8.42 60.45 C3.76 54.41, 0.68 47.62, 0.64 40.84 C0.59 34.07, 3.05 25.82, 8.14 19.79 C13.23 13.76, 21.1 7.74, 31.16 4.67 C41.22 1.61, 61.12 1.78, 68.51 1.41 C75.9 1.04, 75.81 1.86, 75.49 2.47 M44.71 1.72 C53.68 -0.48, 64.64 0.12, 73.82 1.61 C82.99 3.11, 92.61 6.1, 99.74 10.68 C106.88 15.26, 113.64 22.12, 116.61 29.11 C119.59 36.1, 120.35 45.98, 117.58 52.62 C114.81 59.26, 107.25 64.37, 99.98 68.94 C92.71 73.5, 83.21 78.08, 73.95 80 C64.68 81.93, 53.77 82.11, 44.39 80.48 C35.01 78.85, 24.48 74.9, 17.67 70.22 C10.85 65.53, 6.33 59.18, 3.47 52.37 C0.61 45.57, -1.82 36.15, 0.52 29.38 C2.85 22.61, 10.47 16.44, 17.49 11.76 C24.51 7.08, 38.44 2.63, 42.63 1.28 C46.82 -0.07, 42.25 3.12, 42.63 3.67" stroke="#1e1e1e" stroke-width="2" fill="none"></path></g><g transform="translate(1126.535329570112 435.14401347481487) rotate(0 31.95996856689453 10)"><text x="31.95996856689453" y="0" font-family="Virgil, Segoe UI Emoji" font-size="16px" fill="#1e1e1e" text-anchor="middle" style="white-space: pre;" direction="ltr" dominant-baseline="text-before-edge">diggajas</text></g><g stroke-linecap="round"><g transform="translate(1135.419914046172 338.2933019881149) rotate(0 3.344235733821506 33.99981855273535)"><path d="M-0.04 -0.87 C1.17 10.44, 6.37 56.43, 7.29 68 M-1.52 1.29 C-0.42 12.79, 5.11 58.67, 6.66 69.54" stroke="#1e1e1e" stroke-width="2" fill="none"></path></g><g transform="translate(1135.419914046172 338.2933019881149) rotate(0 3.344235733821506 33.99981855273535)"><path d="M4.75 67.75 L-0.91 56.3 L9.95 55.03 L4.99 71.45" stroke="none" stroke-width="0" fill="#1e1e1e" fill-rule="evenodd"></path><path d="M6.66 69.54 C3.13 66.46, 1.79 60.41, -1.37 56.87 M6.66 69.54 C3.35 65.86, 1.72 60.88, -1.37 56.87 M-1.37 56.87 C2.55 56.92, 8.17 54.72, 11.21 55.25 M-1.37 56.87 C2.99 56.88, 7.41 56.19, 11.21 55.25 M11.21 55.25 C9.05 61.79, 6.86 65.27, 6.66 69.54 M11.21 55.25 C9.88 59.38, 8.3 62.61, 6.66 69.54 M6.66 69.54 C6.66 69.54, 6.66 69.54, 6.66 69.54 M6.66 69.54 C6.66 69.54, 6.66 69.54, 6.66 69.54" stroke="#1e1e1e" stroke-width="2" fill="none"></path></g></g><mask></mask><g stroke-linecap="round" transform="translate(782.6021723805915 508.84981344204834) rotate(0 57.9669086418744 35.5)"><path d="M31.1 3.49 C38.9 0.5, 51.42 0.56, 61.06 0.94 C70.7 1.32, 80.91 2.89, 88.97 5.77 C97.03 8.64, 104.96 12.93, 109.42 18.17 C113.87 23.41, 115.92 31.33, 115.68 37.21 C115.44 43.09, 112.97 48.49, 107.97 53.46 C102.98 58.43, 94.43 64.19, 85.7 67.05 C76.98 69.92, 65.24 70.98, 55.63 70.64 C46.02 70.3, 36.07 67.93, 28.04 65 C20.02 62.07, 12.09 58.19, 7.48 53.06 C2.88 47.94, 0.23 40.23, 0.42 34.25 C0.6 28.28, 2.51 22.68, 8.6 17.21 C14.68 11.74, 30.95 3.88, 36.92 1.42 C42.9 -1.04, 43.98 1.78, 44.44 2.44 M63.3 -1.19 C72.91 -0.87, 84.71 3.82, 92.39 7.19 C100.07 10.55, 105.58 13.96, 109.36 19 C113.15 24.04, 115.66 31.39, 115.09 37.4 C114.53 43.42, 111.34 50.12, 105.97 55.1 C100.6 60.08, 91.45 64.63, 82.88 67.31 C74.31 69.99, 64.46 71.84, 54.55 71.18 C44.65 70.51, 31.59 66.82, 23.48 63.32 C15.36 59.82, 9.91 55.36, 5.88 50.2 C1.84 45.05, -1.28 37.97, -0.74 32.39 C-0.21 26.8, 3.47 21.66, 9.09 16.69 C14.72 11.71, 24.09 5.33, 33.02 2.54 C41.94 -0.25, 57.74 0.07, 62.64 -0.06 C67.54 -0.19, 62.29 0.99, 62.42 1.75" stroke="#1e1e1e" stroke-width="2" fill="none"></path></g><g transform="translate(813.2043026454809 524.2475227099259) rotate(0 27.37598419189453 20)"><text x="27.37598419189453" y="0" font-family="Virgil, Segoe UI Emoji" font-size="16px" fill="#1e1e1e" text-anchor="middle" style="white-space: pre;" direction="ltr" dominant-baseline="text-before-edge">Kapila </text><text x="27.37598419189453" y="20" font-family="Virgil, Segoe UI Emoji" font-size="16px" fill="#1e1e1e" text-anchor="middle" style="white-space: pre;" direction="ltr" dominant-baseline="text-before-edge">Rishi</text></g><g stroke-linecap="round" transform="translate(994.4042649723657 513.3087377214576) rotate(0 52.11446421448841 31.212937722773972)"><path d="M36.13 1.87 C44.26 -0.48, 56.49 -1.15, 65.51 0.29 C74.53 1.72, 83.77 6.36, 90.25 10.47 C96.73 14.58, 102.61 19.43, 104.37 24.94 C106.12 30.44, 104.61 38.22, 100.78 43.5 C96.95 48.78, 89.09 53.56, 81.39 56.62 C73.69 59.68, 63.8 61.46, 54.57 61.84 C45.34 62.23, 34.15 61.72, 26.01 58.93 C17.88 56.13, 10.08 50.2, 5.75 45.09 C1.43 39.98, -0.85 34.03, 0.06 28.28 C0.96 22.53, 3.96 15.12, 11.2 10.61 C18.43 6.09, 36.7 2.87, 43.47 1.17 C50.23 -0.53, 51.58 0.12, 51.78 0.4 M31.75 3.69 C39.3 1.06, 49.44 -1.53, 58.4 -1.05 C67.36 -0.58, 78.18 2.75, 85.53 6.54 C92.88 10.34, 99.67 16.21, 102.47 21.72 C105.28 27.24, 104.81 34.09, 102.35 39.65 C99.89 45.21, 95.07 51.55, 87.71 55.07 C80.35 58.58, 67.65 60.07, 58.18 60.76 C48.71 61.44, 39.36 61.33, 30.89 59.2 C22.42 57.06, 12.74 52.39, 7.38 47.97 C2.02 43.55, -1.35 38.44, -1.25 32.7 C-1.15 26.96, 2.74 18.54, 7.99 13.53 C13.24 8.53, 26.48 4.19, 30.24 2.66 C34 1.12, 29.98 3.69, 30.55 4.33" stroke="#1e1e1e" stroke-width="2" fill="none"></path></g><g transform="translate(1026.124254683413 534.4507955197048) rotate(0 20.543983459472656 10)"><text x="20.543983459472656" y="0" font-family="Virgil, Segoe UI Emoji" font-size="16px" fill="#1e1e1e" text-anchor="middle" style="white-space: pre;" direction="ltr" dominant-baseline="text-before-edge">horse</text></g><g mask="url(#mask-xX4oG1HkYCwxbgnabKmup)" stroke-linecap="round"><g transform="translate(1189.4850938465047 491.0137761302956) rotate(0 -25.917858830314344 11.147480795581032)"><path d="M1.1 0.22 C-7.35 3.78, -42.47 18.91, -51.44 22.55 M0.21 -0.72 C-8.29 2.98, -43.76 16.57, -52.18 20.56" stroke="#1e1e1e" stroke-width="2" fill="none"></path></g><g transform="translate(1189.4850938465047 491.0137761302956) rotate(0 -25.917858830314344 11.147480795581032)"><path d="M-52.36 20.31 L-42.46 10.67 L-35.66 22.22 L-51.55 22.42" stroke="none" stroke-width="0" fill="#1e1e1e" fill-rule="evenodd"></path><path d="M-52.18 20.56 C-49.63 18.33, -47.2 14.1, -42.11 9.44 M-52.18 20.56 C-50.1 17.84, -46.48 14.12, -42.11 9.44 M-42.11 9.44 C-39.74 13.8, -38.9 15.77, -37.19 21.12 M-42.11 9.44 C-41.26 12.52, -38.88 15.94, -37.19 21.12 M-37.19 21.12 C-42.64 21.39, -46.81 22.08, -52.18 20.56 M-37.19 21.12 C-42.85 20.26, -47.69 20.26, -52.18 20.56 M-52.18 20.56 C-52.18 20.56, -52.18 20.56, -52.18 20.56 M-52.18 20.56 C-52.18 20.56, -52.18 20.56, -52.18 20.56" stroke="#1e1e1e" stroke-width="2" fill="none"></path></g></g><mask id="mask-xX4oG1HkYCwxbgnabKmup"><rect x="0" y="0" fill="#fff" width="1341.3208115071334" height="613.3087377214576"></rect><rect x="1123.6632662051552" y="492.1612569258765" fill="#000" width="79.80793762207031" height="20" opacity="1"></rect></mask><g transform="translate(1123.6632662051552 492.1612569258765) rotate(0 40.282536884397246 9.768355811983383)"><text x="39.903968811035156" y="0" font-family="Virgil, Segoe UI Emoji" font-size="16px" fill="#1e1e1e" text-anchor="middle" style="white-space: pre;" direction="ltr" dominant-baseline="text-before-edge">southwest</text></g><g stroke-linecap="round"><g transform="translate(1128.1740345193384 479.86629533471455) rotate(0 -21.737596056235816 22.01627882369894)"><path d="M-0.87 -0.26 C-8.11 7.22, -35.72 37.62, -43 45.13 M0.87 -1.44 C-6.52 5.71, -36.51 36.2, -43.7 43.58" stroke="#1e1e1e" stroke-width="2" fill="none"></path></g><g transform="translate(1128.1740345193384 479.86629533471455) rotate(0 -21.737596056235816 22.01627882369894)"><path d="M-42.17 44.68 L-38.09 31.3 L-31.29 38.6 L-41.81 42.55" stroke="none" stroke-width="0" fill="#1e1e1e" fill-rule="evenodd"></path><path d="M-43.7 43.58 C-42.39 39.49, -39.04 32.82, -38.71 29.44 M-43.7 43.58 C-42.17 39.13, -40.53 33.88, -38.71 29.44 M-38.71 29.44 C-35.44 33.69, -32.17 35.35, -29.66 38.31 M-38.71 29.44 C-36.25 32.01, -33.98 33.84, -29.66 38.31 M-29.66 38.31 C-33.56 39.17, -40.47 41.33, -43.7 43.58 M-29.66 38.31 C-32.78 39.31, -35.41 40.83, -43.7 43.58 M-43.7 43.58 C-43.7 43.58, -43.7 43.58, -43.7 43.58 M-43.7 43.58 C-43.7 43.58, -43.7 43.58, -43.7 43.58" stroke="#1e1e1e" stroke-width="2" fill="none"></path></g></g><mask></mask><g mask="url(#mask-YiEHpWD2L9URkELB4HptS)" stroke-linecap="round"><g transform="translate(847.257509965844 259.70356025305546) rotate(0 -1.9508006343737634 123.4583530003797)"><path d="M0.47 1.1 C-0.21 42.42, -4.31 206.74, -5 247.68 M-0.74 0.63 C-0.99 41.63, -2.26 204.74, -2.87 245.95" stroke="#1e1e1e" stroke-width="2" fill="none"></path></g><g transform="translate(847.257509965844 259.70356025305546) rotate(0 -1.9508006343737634 123.4583530003797)"><path d="M-2.24 247.81 L-10.7 232.58 L5.51 231.4 L-1.37 245.85" stroke="none" stroke-width="0" fill="#1e1e1e" fill-rule="evenodd"></path><path d="M-2.87 245.95 C-2.88 241.5, -4.7 240.03, -9.06 232.29 M-2.87 245.95 C-4.98 242.74, -5.57 238.62, -9.06 232.29 M-9.06 232.29 C-5.85 231.14, -1.54 233.26, 3.62 232.42 M-9.06 232.29 C-5.43 231.77, -0.77 231.8, 3.62 232.42 M3.62 232.42 C-0.21 237.03, -2.42 243.35, -2.87 245.95 M3.62 232.42 C2.67 236.04, -0.42 238.7, -2.87 245.95 M-2.87 245.95 C-2.87 245.95, -2.87 245.95, -2.87 245.95 M-2.87 245.95 C-2.87 245.95, -2.87 245.95, -2.87 245.95" stroke="#1e1e1e" stroke-width="2" fill="none"></path></g></g><mask id="mask-YiEHpWD2L9URkELB4HptS"><rect x="0" y="0" fill="#fff" width="951.1591112345915" height="606.6202662538149"></rect><rect x="806.7067337455328" y="373.16191325343516" fill="#000" width="77.199951171875" height="20" opacity="1"></rect></mask><g transform="translate(806.7067337455326 373.16191325343516) rotate(0 38.286887542530906 10.691821431815612)"><text x="38.5999755859375" y="0" font-family="Virgil, Segoe UI Emoji" font-size="16px" fill="#1e1e1e" text-anchor="middle" style="white-space: pre;" direction="ltr" dominant-baseline="text-before-edge">irreverant</text></g><g mask="url(#mask-VkIz6R0Mp05RIqLNQV2rV)" stroke-linecap="round"><g transform="translate(884.9088242391375 516.4993594085098) rotate(0 27.526337220339315 -132.09764104899548)"><path d="M0.21 -0.23 C10.62 -31.15, 62.6 -140.89, 61.34 -184.73 C60.07 -228.57, 3.77 -250.12, -7.37 -263.29" stroke="#1e1e1e" stroke-width="2.5" fill="none" stroke-dasharray="1.5 8"></path></g><g transform="translate(884.9088242391375 516.4993594085098) rotate(0 27.526337220339315 -132.09764104899548)"><path d="M-8.23 -264.68 L7.83 -261.13 L0.03 -250.5 L-5.5 -262.89" stroke="none" stroke-width="0" fill="#1e1e1e" fill-rule="evenodd"></path><path d="M-7.37 -263.29 C-4.58 -263.19, 0.12 -262.91, 7.32 -260.28 M7.32 -260.28 C4.67 -256.78, 2.49 -253.28, -0.23 -250.1 M-0.23 -250.1 C-1.45 -253.18, -2.98 -256.6, -7.37 -263.29 M-7.37 -263.29 C-7.37 -263.29, -7.37 -263.29, -7.37 -263.29" stroke="#1e1e1e" stroke-width="2.5" fill="none"></path></g></g><mask id="mask-VkIz6R0Mp05RIqLNQV2rV"><rect x="0" y="0" fill="#fff" width="1053.338441615102" height="880.6946415065008"></rect><rect x="886.6260062192366" y="320.69148958985545" fill="#000" width="120.04792785644531" height="20" opacity="1"></rect></mask><g transform="translate(886.6260062192364 320.69148958985545) rotate(0 25.27731138514426 64.04599095637982)"><text x="60.023963928222656" y="0" font-family="Virgil, Segoe UI Emoji" font-size="16px" fill="#1e1e1e" text-anchor="middle" style="white-space: pre;" direction="ltr" dominant-baseline="text-before-edge">curse to ashes</text></g><g stroke-linecap="round"><g transform="translate(662.7667113038307 105.86832314782404) rotate(0 11.147480795581032 104.5076324585721)"><path d="M-0.68 0.9 C3.29 35.64, 19.61 174.84, 23.45 209.47" stroke="#1e1e1e" stroke-width="2.5" fill="none" stroke-dasharray="1.5 8"></path></g><g transform="translate(662.7667113038307 105.86832314782404) rotate(0 11.147480795581032 104.5076324585721)"><path d="M23.72 209.06 L17.47 197.08 L26.29 193.45 L23.91 208.89" stroke="none" stroke-width="0" fill="#1e1e1e" fill-rule="evenodd"></path><path d="M23.45 209.47 C22.38 207.47, 19.73 202.71, 15.61 196.68 M15.61 196.68 C17.91 196.1, 23.42 196.2, 28.2 195.24 M28.2 195.24 C25.62 199.68, 24.28 204.47, 23.45 209.47 M23.45 209.47 C23.45 209.47, 23.45 209.47, 23.45 209.47" stroke="#1e1e1e" stroke-width="2.5" fill="none"></path></g></g><mask></mask><g mask="url(#mask-Pm7Q38ig3M5_iPL2a3aMW)" stroke-linecap="round"><g transform="translate(669.4552252957382 351.11290065060655) rotate(0 -66.07830175179058 110.46630304809742)"><path d="M1.16 0.45 C-39.68 11.12, -239.24 29.48, -245.72 64.88 C-252.21 100.28, -97.67 190.43, -37.76 212.84 C22.16 235.24, 88.18 201.48, 113.76 199.3" stroke="#1e1e1e" stroke-width="2.5" fill="none" stroke-dasharray="1.5 8"></path></g><g transform="translate(669.4552252957382 351.11290065060655) rotate(0 -66.07830175179058 110.46630304809742)"><path d="M115.63 199.7 L100.18 206.93 L99.5 195.85 L112.51 199.08" stroke="none" stroke-width="0" fill="#1e1e1e" fill-rule="evenodd"></path><path d="M113.76 199.3 C111.56 201.8, 107.75 204.87, 102.1 208.73 M102.1 208.73 C102.41 205.92, 100.41 202.86, 99.04 196.42 M99.04 196.42 C101.18 198.42, 106.82 196.69, 113.76 199.3 M113.76 199.3 C113.76 199.3, 113.76 199.3, 113.76 199.3" stroke="#1e1e1e" stroke-width="2.5" fill="none"></path></g></g><mask id="mask-Pm7Q38ig3M5_iPL2a3aMW"><rect x="0" y="0" fill="#fff" width="1130.076233285211" height="664.587174895689"></rect><rect x="485.3567046450096" y="495.5313498174702" fill="#000" width="68.36795043945312" height="20" opacity="1"></rect></mask><g transform="translate(485.3567046450096 495.5313498174703) rotate(0 118.02021889893803 -33.95214611876622)"><text x="34.18397521972656" y="0" font-family="Virgil, Segoe UI Emoji" font-size="16px" fill="#1e1e1e" text-anchor="middle" style="white-space: pre;" direction="ltr" dominant-baseline="text-before-edge">searches</text></g><g stroke-linecap="round" transform="translate(776.4710239236102 640.390035800787) rotate(0 51.278415912099035 33.72112515420622)"><path d="M29.62 2.98 C37.32 -0.14, 49.17 -1.24, 58.16 -0.35 C67.15 0.54, 76.67 4.15, 83.55 8.33 C90.43 12.52, 96.49 19.13, 99.44 24.76 C102.38 30.4, 103.72 36.53, 101.21 42.16 C98.7 47.78, 91.52 54.33, 84.39 58.52 C77.27 62.71, 67.51 66.27, 58.46 67.3 C49.41 68.32, 38.45 67.04, 30.09 64.69 C21.72 62.34, 13.24 58.47, 8.26 53.21 C3.28 47.95, 0.43 39.34, 0.2 33.15 C-0.02 26.96, 1.47 21.32, 6.93 16.05 C12.39 10.78, 27.89 4.01, 32.95 1.53 C38.02 -0.96, 36.82 0.51, 37.33 1.12 M36.65 2.27 C45.09 0.37, 57.97 0.4, 66.95 2.21 C75.94 4.01, 84.91 8.58, 90.55 13.08 C96.2 17.58, 99.36 23.54, 100.82 29.2 C102.28 34.85, 102.77 41.54, 99.31 47.01 C95.85 52.49, 88.32 58.64, 80.05 62.04 C71.78 65.45, 59.09 67.34, 49.71 67.43 C40.33 67.52, 31.18 65.93, 23.77 62.58 C16.36 59.24, 9.03 53, 5.25 47.34 C1.48 41.69, -0.32 34.41, 1.1 28.65 C2.51 22.88, 7.95 17.27, 13.75 12.74 C19.55 8.21, 31.92 3.12, 35.89 1.46 C39.86 -0.21, 37.37 2.04, 37.57 2.75" stroke="#1e1e1e" stroke-width="2" fill="none"></path></g><g transform="translate(805.6381420990606 664.2667246892138) rotate(0 22.35198211669922 10)"><text x="22.35198211669922" y="0" font-family="Virgil, Segoe UI Emoji" font-size="16px" fill="#1e1e1e" text-anchor="middle" style="white-space: pre;" direction="ltr" dominant-baseline="text-before-edge">ashes</text></g><g stroke-linecap="round"><g transform="translate(837.7821682993059 579.6362569600176) rotate(0 0.27868276746301035 31.770324519832343)"><path d="M0.91 0.22 C1.13 10.88, 0.47 53.36, 0.29 63.74 M-0.07 -0.71 C0.06 9.59, -1.2 51.06, -0.81 61.72" stroke="#1e1e1e" stroke-width="2" fill="none"></path></g><g transform="translate(837.7821682993059 579.6362569600176) rotate(0 0.27868276746301035 31.770324519832343)"><path d="M-2.17 61.86 L-6.64 49.12 L3.87 49.57 L0.57 59.99" stroke="none" stroke-width="0" fill="#1e1e1e" fill-rule="evenodd"></path><path d="M-0.81 61.72 C-1.85 58.55, -3.21 55.05, -7.14 48.12 M-0.81 61.72 C-1.52 59.18, -4.08 55.17, -7.14 48.12 M-7.14 48.12 C-4.42 48.26, -0.87 49.28, 5.54 48.13 M-7.14 48.12 C-2.93 48.06, 0.58 48.17, 5.54 48.13 M5.54 48.13 C3.45 50.93, 2.74 53.74, -0.81 61.72 M5.54 48.13 C3.59 53.78, 0.44 58.1, -0.81 61.72 M-0.81 61.72 C-0.81 61.72, -0.81 61.72, -0.81 61.72 M-0.81 61.72 C-0.81 61.72, -0.81 61.72, -0.81 61.72" stroke="#1e1e1e" stroke-width="2" fill="none"></path></g></g><mask></mask><g stroke-linecap="round"><g transform="translate(897.9785816051491 543.4069443743792) rotate(0 47.65547614868251 0)"><path d="M-0.27 0.2 C15.33 -0.01, 78.54 -0.82, 94.54 -1.03 M1.79 -0.74 C17.7 -0.86, 81.29 -0.11, 96.85 -0.04" stroke="#1e1e1e" stroke-width="2" fill="none"></path></g><g transform="translate(897.9785816051491 543.4069443743792) rotate(0 47.65547614868251 0)"><path d="M97.35 0.96 L81.53 7.63 L84.69 -8.23 L95.27 1.23" stroke="none" stroke-width="0" fill="#1e1e1e" fill-rule="evenodd"></path><path d="M96.85 -0.04 C91.99 1.31, 85.32 5.13, 83.21 6.19 M96.85 -0.04 C93.49 0.68, 90.78 2.17, 83.21 6.19 M83.21 6.19 C83.04 3.24, 83.58 -3.28, 83.31 -6.49 M83.21 6.19 C82.8 3.45, 82.69 1.46, 83.31 -6.49 M83.31 -6.49 C86.94 -4.91, 91.9 -1.66, 96.85 -0.04 M83.31 -6.49 C87.53 -4.22, 93.65 -2.42, 96.85 -0.04 M96.85 -0.04 C96.85 -0.04, 96.85 -0.04, 96.85 -0.04 M96.85 -0.04 C96.85 -0.04, 96.85 -0.04, 96.85 -0.04" stroke="#1e1e1e" stroke-width="2" fill="none"></path></g></g><mask></mask><g stroke-linecap="round" transform="translate(913.2102409897167 595.5321413098677) rotate(0 49.60629804518851 35.5)"><path d="M58.77 -0.15 C67.25 0.18, 75.98 4.49, 82.34 8.99 C88.7 13.48, 94.59 20.54, 96.92 26.83 C99.25 33.11, 99.02 40.51, 96.31 46.7 C93.61 52.89, 87.53 60.13, 80.7 63.98 C73.86 67.83, 64.32 69.23, 55.32 69.82 C46.32 70.41, 34.79 70.33, 26.7 67.54 C18.6 64.76, 11.23 58.78, 6.76 53.12 C2.3 47.45, -0.57 39.87, -0.09 33.55 C0.4 27.23, 4.7 20.37, 9.69 15.22 C14.68 10.08, 21.49 5.1, 29.86 2.67 C38.22 0.23, 54.49 0.63, 59.87 0.61 C65.25 0.59, 62.2 1.88, 62.14 2.54 M73.3 3.01 C81.6 5.25, 89.36 11.72, 93.43 17.36 C97.5 22.99, 98.17 30.32, 97.7 36.82 C97.23 43.31, 95.34 51.13, 90.59 56.32 C85.83 61.51, 77.39 65.67, 69.17 67.98 C60.95 70.3, 49.99 71.11, 41.28 70.21 C32.57 69.31, 23.71 66.9, 16.91 62.59 C10.12 58.27, 2.82 50.59, 0.5 44.33 C-1.83 38.06, 0.14 30.89, 2.94 24.98 C5.74 19.08, 10.21 13.25, 17.29 8.9 C24.37 4.55, 36.52 -0.41, 45.42 -1.11 C54.32 -1.8, 66.21 3.71, 70.69 4.73 C75.18 5.76, 72.27 4.49, 72.31 5.05" stroke="#1e1e1e" stroke-width="2" fill="none"></path></g><g transform="translate(935.5236087678063 620.9298505777452) rotate(0 27.215980529785128 10)"><text x="27.215980529785156" y="0" font-family="Virgil, Segoe UI Emoji" font-size="16px" fill="#1e1e1e" text-anchor="middle" style="white-space: pre;" direction="ltr" dominant-baseline="text-before-edge">garuda</text></g><g stroke-linecap="round"><g transform="translate(916.6942462534076 644.2476259851209) rotate(0 -19.62710886416812 15.141360956684593)"><path d="M1.1 0.68 C-5.65 5.72, -33.27 24.4, -40.08 29.19 M0.21 -0.01 C-6.2 5.23, -30.97 25.1, -37.81 30.16" stroke="#1e1e1e" stroke-width="2" fill="none"></path></g><g transform="translate(916.6942462534076 644.2476259851209) rotate(0 -19.62710886416812 15.141360956684593)"><path d="M-39.4 31.43 L-29.78 17.67 L-21.43 28.35 L-37.69 31.64" stroke="none" stroke-width="0" fill="#1e1e1e" fill-rule="evenodd"></path><path d="M-37.81 30.16 C-34.54 24.59, -34.46 20.52, -30.94 16.82 M-37.81 30.16 C-36.16 26.96, -33.98 24.19, -30.94 16.82 M-30.94 16.82 C-29.81 18.05, -28 19.84, -23.18 26.85 M-30.94 16.82 C-27.95 20.75, -24.93 25.18, -23.18 26.85 M-23.18 26.85 C-27.27 26.91, -33.96 30.8, -37.81 30.16 M-23.18 26.85 C-27.53 27.66, -30.29 28.75, -37.81 30.16 M-37.81 30.16 C-37.81 30.16, -37.81 30.16, -37.81 30.16 M-37.81 30.16 C-37.81 30.16, -37.81 30.16, -37.81 30.16" stroke="#1e1e1e" stroke-width="2" fill="none"></path></g></g><mask></mask><g stroke-linecap="round" transform="translate(341.6359306091298 324.7758320244633) rotate(0 62.7556310997677 24.22842911467032)"><path d="M48.99 0.69 C58.59 -0.36, 71.6 1.04, 81.66 2.08 C91.73 3.13, 102.48 4.1, 109.39 6.97 C116.31 9.84, 121.04 15.31, 123.18 19.31 C125.32 23.31, 125.3 27.31, 122.24 30.98 C119.19 34.65, 112.39 38.53, 104.86 41.32 C97.32 44.12, 87.34 46.77, 77.04 47.75 C66.75 48.73, 53.22 48.45, 43.08 47.21 C32.93 45.98, 23.03 43.19, 16.19 40.35 C9.35 37.5, 4.16 34.01, 2.05 30.14 C-0.06 26.28, 0.29 21.27, 3.53 17.16 C6.77 13.05, 13.49 8.12, 21.48 5.48 C29.47 2.85, 46.22 2.01, 51.46 1.35 C56.7 0.69, 52.74 1.43, 52.9 1.51 M63.24 -0.34 C73.22 -0.82, 85.39 0.74, 94.55 2.99 C103.7 5.25, 113.2 9.66, 118.19 13.2 C123.18 16.75, 124.59 20.29, 124.49 24.27 C124.38 28.24, 122.81 33.37, 117.56 37.03 C112.32 40.7, 101.96 44.57, 93.03 46.26 C84.09 47.94, 74.41 47.16, 63.96 47.15 C53.51 47.14, 39.43 47.88, 30.34 46.2 C21.24 44.51, 14.2 40.5, 9.37 37.03 C4.53 33.57, 1.47 29.38, 1.31 25.43 C1.15 21.47, 3.24 17.19, 8.41 13.28 C13.58 9.37, 23.34 4.17, 32.34 1.97 C41.34 -0.23, 57.49 0.37, 62.41 0.1 C67.34 -0.17, 61.72 -0.29, 61.87 0.35" stroke="#1e1e1e" stroke-width="2" fill="none"></path></g><g transform="translate(383.3886463073486 338.87217461465264) rotate(0 21.12798309326172 10)"><text x="21.12798309326172" y="0" font-family="Virgil, Segoe UI Emoji" font-size="16px" fill="#1e1e1e" text-anchor="middle" style="white-space: pre;" direction="ltr" dominant-baseline="text-before-edge">Dilipa</text></g><g stroke-linecap="round"><g transform="translate(621.2558795370607 330.3364322485198) rotate(0 -77.45155506848596 7.14937128371426)"><path d="M0.31 -0.51 C-25.4 1.97, -129.06 11.55, -154.74 14.06 M-0.99 -1.83 C-26.8 0.91, -130.11 12.5, -155.61 15.46" stroke="#1e1e1e" stroke-width="2" fill="none"></path></g><g transform="translate(621.2558795370607 330.3364322485198) rotate(0 -77.45155506848596 7.14937128371426)"><path d="M-155.49 16.95 L-141.33 5.88 L-141.61 20.36 L-156.56 15.28" stroke="none" stroke-width="0" fill="#1e1e1e" fill-rule="evenodd"></path><path d="M-155.61 15.46 C-152.9 13.62, -149.28 12.8, -142.81 7.63 M-155.61 15.46 C-151.27 12.86, -147.82 10.48, -142.81 7.63 M-142.81 7.63 C-143.1 10.24, -142.23 12.86, -141.38 20.23 M-142.81 7.63 C-142 12.76, -142.2 16.82, -141.38 20.23 M-141.38 20.23 C-147.05 16.97, -152.59 16.86, -155.61 15.46 M-141.38 20.23 C-145.89 18.49, -150.35 17.58, -155.61 15.46 M-155.61 15.46 C-155.61 15.46, -155.61 15.46, -155.61 15.46 M-155.61 15.46 C-155.61 15.46, -155.61 15.46, -155.61 15.46" stroke="#1e1e1e" stroke-width="2" fill="none"></path></g></g><mask></mask><g stroke-linecap="round" transform="translate(241.54467203113393 482.8563933717552) rotate(0 88.17561956980705 39.32154963617802)"><path d="M126.96 4.44 C138.3 6.4, 149.9 10.4, 157.81 14.73 C165.71 19.07, 171.55 24.78, 174.37 30.43 C177.19 36.07, 177.86 42.96, 174.72 48.61 C171.59 54.25, 163.85 59.92, 155.54 64.3 C147.24 68.67, 136.26 72.36, 124.87 74.88 C113.48 77.39, 99.84 79.42, 87.2 79.4 C74.56 79.38, 60.38 77.57, 49.04 74.75 C37.71 71.92, 27.03 66.86, 19.19 62.46 C11.35 58.06, 4.87 53.63, 2.02 48.33 C-0.84 43.02, -0.96 36.47, 2.07 30.63 C5.09 24.79, 11.97 17.74, 20.19 13.27 C28.4 8.79, 39.7 5.92, 51.35 3.78 C63 1.64, 76.38 0.06, 90.11 0.44 C103.85 0.83, 125.69 4.7, 133.78 6.1 C141.87 7.51, 139.27 8.5, 138.67 8.88 M90 1.1 C102.26 0.36, 118.92 0.59, 130.22 3.21 C141.52 5.83, 150.23 11.96, 157.8 16.85 C165.37 21.74, 172.83 26.94, 175.65 32.55 C178.46 38.17, 178.12 44.96, 174.71 50.54 C171.31 56.11, 163.57 62.1, 155.24 66.01 C146.91 69.92, 136.47 71.89, 124.75 74.01 C113.03 76.13, 97.98 78.72, 84.93 78.72 C71.88 78.71, 57.59 76.41, 46.45 73.99 C35.31 71.58, 25.78 68.68, 18.07 64.22 C10.36 59.77, 2.48 53.19, 0.18 47.28 C-2.12 41.38, 0.9 34.4, 4.25 28.78 C7.6 23.16, 12.24 18.07, 20.26 13.58 C28.28 9.09, 40.63 3.85, 52.35 1.82 C64.08 -0.2, 84.02 1.79, 90.61 1.45 C97.2 1.12, 91.61 -0.65, 91.9 -0.2" stroke="#1e1e1e" stroke-width="2" fill="none"></path></g><g transform="translate(286.42274553850825 512.3734086134283) rotate(0 43.447967529296875 10)"><text x="43.447967529296875" y="0" font-family="Virgil, Segoe UI Emoji" font-size="16px" fill="#1e1e1e" text-anchor="middle" style="white-space: pre;" direction="ltr" dominant-baseline="text-before-edge">Bhagiratha</text></g><g stroke-linecap="round"><g transform="translate(395.653419365526 375.6158089645422) rotate(0 -31.37781554988385 54.81189701347341)"><path d="M-1.15 -1.08 C-11.75 17.1, -52.09 90.85, -62.48 109.28 M0.45 0.97 C-10.39 19.3, -53.04 92.34, -63.29 110.63" stroke="#1e1e1e" stroke-width="2" fill="none"></path></g><g transform="translate(395.653419365526 375.6158089645422) rotate(0 -31.37781554988385 54.81189701347341)"><path d="M-64.24 110.45 L-61.07 97.65 L-52.88 102.74 L-61.55 110.02" stroke="none" stroke-width="0" fill="#1e1e1e" fill-rule="evenodd"></path><path d="M-63.29 110.63 C-64.16 105.11, -62.75 97.94, -62.02 95.69 M-63.29 110.63 C-62.91 105.88, -62.5 101.89, -62.02 95.69 M-62.02 95.69 C-58.18 97.78, -54.59 98.13, -51.02 102 M-62.02 95.69 C-58.03 97.7, -55.67 99.71, -51.02 102 M-51.02 102 C-55.24 105.37, -59.03 108.73, -63.29 110.63 M-51.02 102 C-55.51 105.63, -60.94 109.05, -63.29 110.63 M-63.29 110.63 C-63.29 110.63, -63.29 110.63, -63.29 110.63 M-63.29 110.63 C-63.29 110.63, -63.29 110.63, -63.29 110.63" stroke="#1e1e1e" stroke-width="2" fill="none"></path></g></g><mask></mask><g stroke-linecap="round" transform="translate(116.82783324017544 556.7333764346287) rotate(0 49.25125133491906 29.39187824043546)"><path d="M34.97 1.29 C42.7 -0.54, 52.78 -0.47, 61.19 0.87 C69.59 2.21, 79.2 5.29, 85.4 9.34 C91.6 13.38, 96.76 19.84, 98.39 25.14 C100.02 30.44, 98.57 36.52, 95.17 41.14 C91.77 45.75, 85.39 49.73, 78 52.83 C70.6 55.93, 59.93 59.3, 50.82 59.72 C41.71 60.13, 30.95 58.37, 23.32 55.31 C15.68 52.26, 8.84 46.23, 5.01 41.38 C1.17 36.54, -0.76 31.26, 0.31 26.24 C1.39 21.21, 5.12 15.43, 11.46 11.23 C17.81 7.04, 33.08 2.68, 38.38 1.07 C43.67 -0.54, 42.91 1.28, 43.25 1.58 M49.72 1.1 C58.28 0.52, 71.04 0.94, 78.34 3.93 C85.65 6.93, 90.17 13.86, 93.55 19.08 C96.92 24.29, 99.75 29.98, 98.6 35.22 C97.45 40.47, 92.81 46.58, 86.64 50.53 C80.46 54.49, 70.19 58.07, 61.56 58.98 C52.92 59.88, 43.31 57.81, 34.85 55.98 C26.38 54.14, 16.64 51.88, 10.76 47.95 C4.88 44.02, 0.38 37.46, -0.43 32.42 C-1.24 27.38, 2.05 22.35, 5.9 17.73 C9.76 13.11, 14.96 7.71, 22.69 4.68 C30.42 1.65, 47.72 0.27, 52.27 -0.44 C56.82 -1.15, 50.3 0.13, 50 0.44" stroke="#1e1e1e" stroke-width="2" fill="none"></path></g><g transform="translate(137.3092134182932 576.3420582594429) rotate(0 28.94397735595703 10)"><text x="28.94397735595703" y="0" font-family="Virgil, Segoe UI Emoji" font-size="16px" fill="#1e1e1e" text-anchor="middle" style="white-space: pre;" direction="ltr" dominant-baseline="text-before-edge">Brahma</text></g><g stroke-linecap="round"><g transform="translate(269.25998824459714 554.6693806870278) rotate(0 -26.071517440642538 12.700484807172188)"><path d="M-1 1.14 C-9.6 5.28, -43.79 20.7, -52.33 24.72 M0.67 0.7 C-8.03 4.99, -44.42 21.6, -53.37 25.9" stroke="#1e1e1e" stroke-width="2" fill="none"></path></g><g transform="translate(269.25998824459714 554.6693806870278) rotate(0 -26.071517440642538 12.700484807172188)"><path d="M-51.64 25.29 L-44.99 14.19 L-38.86 23.9 L-54.23 27.81" stroke="none" stroke-width="0" fill="#1e1e1e" fill-rule="evenodd"></path><path d="M-53.37 25.9 C-49.65 23.02, -49.64 20.39, -43.74 14.4 M-53.37 25.9 C-50.01 22.95, -47.58 19.93, -43.74 14.4 M-43.74 14.4 C-43.2 17.81, -41.45 18.11, -38.37 25.89 M-43.74 14.4 C-41.83 17.68, -40.27 21.17, -38.37 25.89 M-38.37 25.89 C-43.94 26.16, -48.97 24.54, -53.37 25.9 M-38.37 25.89 C-44.55 26.24, -49.1 26.08, -53.37 25.9 M-53.37 25.9 C-53.37 25.9, -53.37 25.9, -53.37 25.9 M-53.37 25.9 C-53.37 25.9, -53.37 25.9, -53.37 25.9" stroke="#1e1e1e" stroke-width="2" fill="none"></path></g></g><mask></mask><g stroke-linecap="round" transform="translate(189.91030198547617 396.2695448616058) rotate(0 65.13874981050594 32.56937490525297)"><path d="M62.75 0.8 C73.12 0.17, 85.93 1.72, 95.62 3.95 C105.32 6.18, 115.13 9.51, 120.92 14.18 C126.71 18.86, 130.09 26.33, 130.35 32.01 C130.61 37.7, 127.5 43.78, 122.48 48.28 C117.46 52.78, 109.28 56.17, 100.22 59.01 C91.16 61.84, 78.91 64.8, 68.14 65.29 C57.36 65.78, 45.23 64.4, 35.55 61.93 C25.88 59.47, 16 55.03, 10.06 50.51 C4.13 46, 0.26 40.45, -0.08 34.85 C-0.41 29.25, 3.02 21.83, 8.05 16.92 C13.07 12.01, 20.35 8.35, 30.07 5.39 C39.79 2.43, 59.68 -0.17, 66.38 -0.83 C73.07 -1.5, 70.49 0.86, 70.25 1.41 M86.79 2.76 C96.75 4, 106.58 8.33, 113.78 11.97 C120.99 15.61, 127.84 19.45, 130.01 24.6 C132.19 29.74, 130.55 37.48, 126.85 42.84 C123.16 48.19, 115.79 52.86, 107.85 56.71 C99.9 60.56, 89.92 64.7, 79.18 65.93 C68.43 67.15, 53.62 66.09, 43.4 64.07 C33.19 62.05, 25.04 57.99, 17.88 53.82 C10.72 49.65, 2.94 44.56, 0.44 39.07 C-2.06 33.58, -0.55 25.8, 2.89 20.9 C6.33 16.01, 12.8 13.26, 21.07 9.72 C29.35 6.18, 41.55 0.99, 52.52 -0.32 C63.49 -1.63, 81.46 1.51, 86.88 1.86 C92.31 2.21, 85.65 1.51, 85.05 1.79" stroke="#1e1e1e" stroke-width="2" fill="none"></path></g><g transform="translate(234.9010102798305 418.80889391234746) rotate(0 20.087989807128906 10)"><text x="20.087989807128906" y="0" font-family="Virgil, Segoe UI Emoji" font-size="16px" fill="#1e1e1e" text-anchor="middle" style="white-space: pre;" direction="ltr" dominant-baseline="text-before-edge">Shiva</text></g><g stroke-linecap="round"><g transform="translate(290.0015302604744 490.80017291254717) rotate(0 -5.560615375555926 -15.490317074296911)"><path d="M-0.1 0.34 C-1.87 -4.76, -8.89 -25.54, -10.7 -30.68 M-0.81 0.04 C-2.62 -5.22, -9.18 -26.27, -10.92 -31.49" stroke="#1e1e1e" stroke-width="2" fill="none"></path></g><g transform="translate(290.0015302604744 490.80017291254717) rotate(0 -5.560615375555926 -15.490317074296911)"><path d="M-11.35 -30.54 L-0.25 -21.16 L-11.86 -16.45 L-10.93 -31.8" stroke="none" stroke-width="0" fill="#1e1e1e" fill-rule="evenodd"></path><path d="M-10.92 -31.49 C-7.5 -27.71, -4.58 -24.85, -0.72 -20.48 M-10.92 -31.49 C-6.6 -27.36, -2.67 -22.86, -0.72 -20.48 M-0.72 -20.48 C-2.93 -19.41, -5.73 -18.67, -12.8 -16.61 M-0.72 -20.48 C-4.37 -19.31, -7.52 -18.07, -12.8 -16.61 M-12.8 -16.61 C-13.09 -20.43, -11.56 -22.62, -10.92 -31.49 M-12.8 -16.61 C-12.2 -21.43, -11.3 -27.13, -10.92 -31.49 M-10.92 -31.49 C-10.92 -31.49, -10.92 -31.49, -10.92 -31.49 M-10.92 -31.49 C-10.92 -31.49, -10.92 -31.49, -10.92 -31.49" stroke="#1e1e1e" stroke-width="2" fill="none"></path></g></g><mask></mask><g stroke-linecap="round"><g transform="translate(230.67403808754455 397.05124555674877) rotate(0 3.600882130237096 -89.87310514527482)"><path d="M0.92 0.66 C2.21 -29.24, 6.69 -148.59, 7.57 -178.63 M-0.06 -0.04 C1.13 -30.31, 5.38 -150.48, 6.82 -180.16" stroke="#1e1e1e" stroke-width="2" fill="none"></path></g><g transform="translate(230.67403808754455 397.05124555674877) rotate(0 3.600882130237096 -89.87310514527482)"><path d="M7.77 -181.51 L14.47 -166.01 L-0.1 -167.46 L6.6 -181.76" stroke="none" stroke-width="0" fill="#1e1e1e" fill-rule="evenodd"></path><path d="M6.82 -180.16 C9.36 -175.83, 11.57 -173.62, 12.6 -166.32 M6.82 -180.16 C9.33 -175.82, 9.85 -171.43, 12.6 -166.32 M12.6 -166.32 C8.27 -165.96, 4.33 -165.61, -0.07 -166.84 M12.6 -166.32 C7.99 -166.19, 2.54 -166.25, -0.07 -166.84 M-0.07 -166.84 C3.54 -170.83, 5.76 -175.3, 6.82 -180.16 M-0.07 -166.84 C3.07 -172.55, 5.01 -176.85, 6.82 -180.16 M6.82 -180.16 C6.82 -180.16, 6.82 -180.16, 6.82 -180.16 M6.82 -180.16 C6.82 -180.16, 6.82 -180.16, 6.82 -180.16" stroke="#1e1e1e" stroke-width="2" fill="none"></path></g></g><mask></mask><g stroke-linecap="round"><g transform="translate(204.17406767110003 201.64768853566636) rotate(0 50.00347308692312 260.9521806433138)"><path d="M0.37 1.12 C-8.12 5.8, -32.24 9.86, -50.05 28.77 C-67.87 47.68, -93.45 69.2, -106.54 114.57 C-119.62 159.94, -139.2 236.16, -128.58 301.01 C-117.96 365.85, -98.16 466.74, -42.8 503.63 C12.56 540.51, 158.12 528.06, 203.59 522.32 C249.06 516.59, 225.62 478.07, 230.01 469.23 M-0.89 0.66 C-9.1 5.51, -30.22 11.25, -47.86 30.4 C-65.49 49.55, -93.37 70.28, -106.71 115.56 C-120.04 160.84, -138.77 237.33, -127.86 302.08 C-116.95 366.82, -96.73 467.44, -41.23 504.01 C14.27 540.59, 159.76 527.55, 205.12 521.5 C250.48 515.46, 226.92 476.52, 230.93 467.75" stroke="#1e1e1e" stroke-width="2" fill="none"></path></g><g transform="translate(204.17406767110003 201.64768853566636) rotate(0 50.00347308692312 260.9521806433138)"><path d="M232.8 468.06 L238.38 480.13 L225.55 480.24 L230.73 469.21" stroke="none" stroke-width="0" fill="#1e1e1e" fill-rule="evenodd"></path><path d="M230.93 467.75 C235.21 471.39, 236.85 478.93, 238.41 480.75 M230.93 467.75 C232.14 470.98, 234.89 474.48, 238.41 480.75 M238.41 480.75 C233.88 482.16, 230.69 480.68, 225.78 481.84 M238.41 480.75 C234 481.6, 231.09 480.93, 225.78 481.84 M225.78 481.84 C227.46 480.01, 229.09 475.68, 230.93 467.75 M225.78 481.84 C227.51 476.66, 229.17 471.27, 230.93 467.75 M230.93 467.75 C230.93 467.75, 230.93 467.75, 230.93 467.75 M230.93 467.75 C230.93 467.75, 230.93 467.75, 230.93 467.75" stroke="#1e1e1e" stroke-width="2" fill="none"></path></g></g><mask></mask><g stroke-linecap="round" transform="translate(355.91229485615656 599.6577295180174) rotate(0 85.3953194577789 33.36375285933218)"><path d="M16.68 0 C62.47 3.02, 106.65 2.62, 154.11 0 M16.68 0 C57.38 0.36, 98.15 -0.22, 154.11 0 M154.11 0 C165.98 -0.29, 172.35 7.09, 170.79 16.68 M154.11 0 C163.66 0.16, 171.36 6.71, 170.79 16.68 M170.79 16.68 C169.29 22.31, 172.3 32.28, 170.79 50.05 M170.79 16.68 C171.14 28.84, 171.83 38.64, 170.79 50.05 M170.79 50.05 C170.57 61.3, 164.28 66.55, 154.11 66.73 M170.79 50.05 C171.88 63.43, 163.09 67.58, 154.11 66.73 M154.11 66.73 C100.75 65.38, 45.83 65.01, 16.68 66.73 M154.11 66.73 C100.71 65.96, 45.43 65.5, 16.68 66.73 M16.68 66.73 C5.34 65.13, -0.19 62.63, 0 50.05 M16.68 66.73 C7.81 66.51, -1.19 60.46, 0 50.05 M0 50.05 C-0.88 41.37, 0.47 32.29, 0 16.68 M0 50.05 C0.38 42.73, 0.88 33.49, 0 16.68 M0 16.68 C1.69 7.46, 5.29 -1.03, 16.68 0 M0 16.68 C2.11 4.41, 4.09 0.87, 16.68 0" stroke="#1e1e1e" stroke-width="2" fill="none"></path></g><g transform="translate(417.69730531860375 620.6804608292705) rotate(0 22.639984130859375 10)"><text x="0" y="0" font-family="Virgil, Segoe UI Emoji" font-size="16px" fill="#1e1e1e" text-anchor="start" style="white-space: pre;" direction="ltr" dominant-baseline="text-before-edge">Earth</text></g><g stroke-linecap="round"><g transform="translate(835.7371089574837 707.6645513467071) rotate(0 -403.69085439887914 -214.73937689948616)"><path d="M0.9 -0.06 C-13.89 14.63, 35.88 80.99, -87.61 87.56 C-211.1 94.13, -620.15 123.12, -740.03 39.37 C-859.9 -44.37, -824.53 -322.15, -806.86 -414.91 C-789.18 -507.68, -662.88 -500.35, -633.98 -517.22 M-0.09 -1.14 C-14.63 13.81, 37.91 82.7, -85.52 89.09 C-208.95 95.49, -620.54 121.09, -740.67 37.25 C-860.81 -46.59, -823.91 -321.59, -806.33 -413.95 C-788.76 -506.31, -663.73 -499.8, -635.22 -516.92" stroke="#1e1e1e" stroke-width="2" fill="none"></path></g><g transform="translate(835.7371089574837 707.6645513467071) rotate(0 -403.69085439887914 -214.73937689948616)"><path d="M-635.41 -515.46 L-644.76 -507.48 L-651.03 -520.16 L-635.4 -518.54" stroke="none" stroke-width="0" fill="#1e1e1e" fill-rule="evenodd"></path><path d="M-635.22 -516.92 C-639.88 -514.52, -644.35 -508.95, -646.72 -507.29 M-635.22 -516.92 C-638.75 -513.83, -642.3 -509.92, -646.72 -507.29 M-646.72 -507.29 C-646.85 -511.18, -647.33 -512.09, -649.99 -519.54 M-646.72 -507.29 C-646.95 -509.61, -647.46 -512.02, -649.99 -519.54 M-649.99 -519.54 C-646.76 -519.02, -640.84 -518.76, -635.22 -516.92 M-649.99 -519.54 C-646.38 -518.65, -640.73 -518.39, -635.22 -516.92 M-635.22 -516.92 C-635.22 -516.92, -635.22 -516.92, -635.22 -516.92 M-635.22 -516.92 C-635.22 -516.92, -635.22 -516.92, -635.22 -516.92" stroke="#1e1e1e" stroke-width="2" fill="none"></path></g></g><mask></mask></svg>