<svg version="1.1" xmlns="http://www.w3.org/2000/svg" viewBox="0 0 434.45801684181725 558.859297300725" width="434.45801684181725" height="558.859297300725">
  <!-- svg-source:excalidraw -->
  
  <defs>
    <style class="style-fonts">
      @font-face {
        font-family: "Virgil";
        src: url("https://file%2B.vscode-resource.vscode-cdn.net/c%3A/Users/samra/.vscode/extensions/pomdtr.excalidraw-editor-3.7.4/public//dist/excalidraw-assets/Virgil.woff2");
      }
      @font-face {
        font-family: "Cascadia";
        src: url("https://file%2B.vscode-resource.vscode-cdn.net/c%3A/Users/samra/.vscode/extensions/pomdtr.excalidraw-editor-3.7.4/public//dist/excalidraw-assets/Cascadia.woff2");
      }
      @font-face {
        font-family: "Assistant";
        src: url("https://file%2B.vscode-resource.vscode-cdn.net/c%3A/Users/samra/.vscode/extensions/pomdtr.excalidraw-editor-3.7.4/public//dist/excalidraw-assets/Assistant-Regular.woff2");
      }
    </style>
    
  </defs>
  <rect x="0" y="0" width="434.45801684181725" height="558.859297300725" fill="#ffffff"></rect><g stroke-linecap="round" transform="translate(43.40375589615809 125.85934307709215) rotate(0 57.499996185302734 136.00000762939453)"><path d="M28.75 0 C46.03 -0.68, 70.58 -3.03, 86.25 0 C103.11 2.21, 115.58 10.8, 115 28.75 C111.39 82.52, 115.1 133.94, 115 243.25 C117.87 262.62, 102.71 272.22, 86.25 272 C65.28 269.72, 43.12 272.76, 28.75 272 C11.06 271.63, -3.21 258.98, 0 243.25 C3.29 176.59, 3.33 108.65, 0 28.75 C-3.45 7.75, 10.2 -1.34, 28.75 0" stroke="none" stroke-width="0" fill="#a5d8ff"></path><path d="M28.75 0 C43.4 -1.66, 59.68 0.08, 86.25 0 M28.75 0 C50.94 -0.53, 74.24 0.7, 86.25 0 M86.25 0 C107.17 -1.93, 116.21 8.95, 115 28.75 M86.25 0 C104.91 0.05, 116.22 11.41, 115 28.75 M115 28.75 C115.33 106.32, 117.1 183.22, 115 243.25 M115 28.75 C115.39 73.53, 115.07 116.45, 115 243.25 M115 243.25 C114.31 261.53, 106.82 272.89, 86.25 272 M115 243.25 C116.74 262.42, 103.87 272.39, 86.25 272 M86.25 272 C70.94 270.82, 59.48 271.45, 28.75 272 M86.25 272 C69.64 271.62, 53.93 272.38, 28.75 272 M28.75 272 C11.49 270.95, -0.64 260.76, 0 243.25 M28.75 272 C7.89 272.97, -1.79 261.77, 0 243.25 M0 243.25 C0.84 171.03, -0.36 94.75, 0 28.75 M0 243.25 C1.63 183.59, 1.72 124.39, 0 28.75 M0 28.75 C-0.11 9.93, 10.2 -0.57, 28.75 0 M0 28.75 C1.26 11.22, 11.44 -0.94, 28.75 0" stroke="#1e1e1e" stroke-width="2" fill="none"></path></g><g transform="translate(71.97576593644129 161.85935070648668) rotate(0 28.92798614501953 100)"><text x="28.92798614501953" y="0" font-family="Virgil, Segoe UI Emoji" font-size="16px" fill="#1e1e1e" text-anchor="middle" style="white-space: pre;" direction="ltr" dominant-baseline="text-before-edge"></text><text x="28.92798614501953" y="20" font-family="Virgil, Segoe UI Emoji" font-size="16px" fill="#1e1e1e" text-anchor="middle" style="white-space: pre;" direction="ltr" dominant-baseline="text-before-edge"></text><text x="28.92798614501953" y="40" font-family="Virgil, Segoe UI Emoji" font-size="16px" fill="#1e1e1e" text-anchor="middle" style="white-space: pre;" direction="ltr" dominant-baseline="text-before-edge"></text><text x="28.92798614501953" y="60" font-family="Virgil, Segoe UI Emoji" font-size="16px" fill="#1e1e1e" text-anchor="middle" style="white-space: pre;" direction="ltr" dominant-baseline="text-before-edge"></text><text x="28.92798614501953" y="80" font-family="Virgil, Segoe UI Emoji" font-size="16px" fill="#1e1e1e" text-anchor="middle" style="white-space: pre;" direction="ltr" dominant-baseline="text-before-edge"></text><text x="28.92798614501953" y="100" font-family="Virgil, Segoe UI Emoji" font-size="16px" fill="#1e1e1e" text-anchor="middle" style="white-space: pre;" direction="ltr" dominant-baseline="text-before-edge"></text><text x="28.92798614501953" y="120" font-family="Virgil, Segoe UI Emoji" font-size="16px" fill="#1e1e1e" text-anchor="middle" style="white-space: pre;" direction="ltr" dominant-baseline="text-before-edge"></text><text x="28.92798614501953" y="140" font-family="Virgil, Segoe UI Emoji" font-size="16px" fill="#1e1e1e" text-anchor="middle" style="white-space: pre;" direction="ltr" dominant-baseline="text-before-edge"></text><text x="28.92798614501953" y="160" font-family="Virgil, Segoe UI Emoji" font-size="16px" fill="#1e1e1e" text-anchor="middle" style="white-space: pre;" direction="ltr" dominant-baseline="text-before-edge"></text><text x="28.92798614501953" y="180" font-family="Virgil, Segoe UI Emoji" font-size="16px" fill="#1e1e1e" text-anchor="middle" style="white-space: pre;" direction="ltr" dominant-baseline="text-before-edge">encoder</text></g><g stroke-linecap="round" transform="translate(93.61555164401994 204.99660276515857) rotate(359.91350357589585 5.84828665382301 5.650039648608697)"><path d="M4.7 -0.42 C5.9 -0.5, 7.82 0.47, 8.88 1.24 C9.94 2.01, 10.68 3.04, 11.06 4.2 C11.44 5.35, 11.66 7.11, 11.16 8.19 C10.66 9.27, 9.19 10.24, 8.06 10.69 C6.93 11.15, 5.61 11.27, 4.39 10.94 C3.18 10.61, 1.55 9.59, 0.76 8.72 C-0.02 7.84, -0.47 6.79, -0.33 5.68 C-0.19 4.57, 0.57 3, 1.61 2.06 C2.65 1.11, 5.17 0.29, 5.92 0.01 C6.67 -0.26, 6.11 0.27, 6.11 0.41 M5.69 -0.73 C6.89 -0.73, 7.97 0.95, 9.06 1.76 C10.16 2.56, 11.89 2.95, 12.25 4.09 C12.6 5.22, 11.84 7.34, 11.2 8.55 C10.56 9.77, 9.6 11.01, 8.42 11.4 C7.24 11.78, 5.46 11.26, 4.1 10.86 C2.74 10.45, 0.92 9.9, 0.26 8.97 C-0.4 8.04, -0.12 6.43, 0.14 5.29 C0.39 4.14, 0.86 2.92, 1.79 2.08 C2.72 1.24, 5.05 0.56, 5.7 0.23 C6.35 -0.1, 5.63 -0.03, 5.7 0.09" stroke="#000000" stroke-width="4" fill="none"></path></g><g stroke-linecap="round" transform="translate(72.82195517413203 233.31249490566796) rotate(359.91350357589585 5.84828665382301 5.650039648608697)"><path d="M4.37 0.48 C5.52 0.26, 6.98 0.26, 8.11 0.81 C9.24 1.35, 10.67 2.68, 11.15 3.76 C11.63 4.84, 11.37 6.23, 11 7.3 C10.62 8.36, 9.95 9.56, 8.91 10.16 C7.86 10.77, 6.01 10.98, 4.74 10.92 C3.46 10.87, 2.03 10.62, 1.25 9.84 C0.47 9.05, -0.02 7.48, 0.05 6.22 C0.11 4.96, 0.81 3.23, 1.63 2.26 C2.45 1.29, 4.37 0.71, 4.97 0.41 C5.58 0.11, 5.31 0.49, 5.26 0.48 M5.29 0.53 C6.59 0.48, 9.09 0.1, 10.17 0.8 C11.26 1.51, 11.59 3.41, 11.79 4.75 C12 6.09, 12.03 7.85, 11.41 8.85 C10.79 9.85, 9.42 10.34, 8.09 10.76 C6.75 11.18, 4.57 11.65, 3.38 11.37 C2.18 11.09, 1.51 10.04, 0.93 9.06 C0.34 8.07, -0.3 6.7, -0.12 5.46 C0.06 4.22, 1.02 2.55, 1.99 1.64 C2.97 0.72, 5.03 0.16, 5.72 -0.02 C6.41 -0.2, 6.07 0.43, 6.14 0.54" stroke="#000000" stroke-width="4" fill="none"></path></g><g stroke-linecap="round" transform="translate(61.64782848424767 264.43045820434406) rotate(359.91350357589585 5.84828665382301 5.650039648608697)"><path d="M4.14 0.35 C5.3 0.01, 7.31 0.43, 8.42 0.94 C9.52 1.46, 10.3 2.42, 10.78 3.44 C11.26 4.46, 11.66 5.97, 11.31 7.07 C10.95 8.17, 9.71 9.29, 8.63 10.05 C7.55 10.8, 5.99 11.63, 4.82 11.58 C3.65 11.54, 2.34 10.71, 1.62 9.77 C0.9 8.84, 0.49 7.16, 0.47 5.96 C0.45 4.76, 0.72 3.48, 1.49 2.55 C2.26 1.63, 4.55 0.84, 5.08 0.4 C5.62 -0.05, 4.77 -0.16, 4.7 -0.11 M5.1 -0.27 C6.35 -0.67, 7.54 0.09, 8.63 0.78 C9.71 1.47, 11.13 2.8, 11.62 3.84 C12.11 4.89, 12.1 5.92, 11.58 7.06 C11.06 8.2, 9.56 9.92, 8.52 10.7 C7.47 11.48, 6.49 11.82, 5.31 11.74 C4.13 11.66, 2.34 11.15, 1.45 10.24 C0.57 9.33, 0.08 7.6, 0.02 6.27 C-0.04 4.95, 0.32 3.25, 1.12 2.3 C1.93 1.36, 4.23 0.92, 4.86 0.59 C5.49 0.26, 5.02 0.39, 4.88 0.33" stroke="#000000" stroke-width="4" fill="none"></path></g><g stroke-linecap="round" transform="translate(83.33772281510068 264.4485226304689) rotate(359.91350357589585 5.84828665382301 5.650039648608697)"><path d="M6.74 0.41 C7.91 0.5, 9.04 1.16, 9.85 1.99 C10.65 2.82, 11.54 4.23, 11.56 5.38 C11.57 6.53, 10.78 7.88, 9.95 8.91 C9.12 9.93, 7.74 11.21, 6.58 11.53 C5.43 11.85, 3.97 11.48, 3.01 10.83 C2.05 10.18, 1.22 8.76, 0.83 7.63 C0.44 6.5, 0.24 5.15, 0.66 4.06 C1.07 2.96, 2.29 1.77, 3.33 1.06 C4.37 0.34, 6.28 -0.09, 6.9 -0.23 C7.51 -0.36, 7.11 0.14, 7.02 0.24 M7.08 0.29 C8.23 0.58, 9.97 1.64, 10.76 2.51 C11.55 3.38, 11.98 4.32, 11.81 5.51 C11.64 6.7, 10.54 8.62, 9.73 9.65 C8.91 10.68, 8.1 11.43, 6.93 11.69 C5.77 11.95, 3.83 11.85, 2.73 11.2 C1.64 10.56, 0.75 9.06, 0.36 7.81 C-0.04 6.56, -0.14 4.79, 0.36 3.69 C0.86 2.58, 2.2 1.77, 3.35 1.18 C4.51 0.59, 6.8 0.39, 7.29 0.14 C7.78 -0.11, 6.29 -0.35, 6.31 -0.31" stroke="#000000" stroke-width="4" fill="none"></path></g><g stroke-linecap="round"><g transform="translate(75.8770335326223 244.27293677501666) rotate(0.04771877267808328 -3.3996894618137503 9.873257546941517)"><path d="M0.36 -0.42 C-0.65 2.89, -5.45 16.39, -6.58 19.67 M-0.11 0.56 C-1.14 3.97, -5.82 17.15, -6.9 20.33" stroke="#e67700" stroke-width="2" fill="none"></path></g></g><mask></mask><g stroke-linecap="round"><g transform="translate(80.70239336710421 244.60960156397516) rotate(0.04771877267808328 3.6525646750047542 9.942491579278027)"><path d="M0.22 -0.08 C1.44 3.22, 6.49 16.09, 7.67 19.39 M-0.33 -0.6 C0.81 2.79, 6.21 16.37, 7.43 19.84" stroke="#0000ff" stroke-width="2" fill="none"></path></g></g><mask></mask><g stroke-linecap="round" transform="translate(115.6920348368439 233.34819924683302) rotate(359.91350357589585 5.84828665382301 5.650039648608697)"><path d="M5.46 -0.34 C6.62 -0.31, 8.26 0.78, 9.3 1.66 C10.33 2.54, 11.31 3.81, 11.65 4.95 C12 6.09, 11.94 7.45, 11.36 8.5 C10.78 9.55, 9.33 10.81, 8.15 11.26 C6.96 11.71, 5.52 11.75, 4.28 11.22 C3.04 10.7, 1.42 9.22, 0.72 8.12 C0.01 7.03, -0.1 5.82, 0.05 4.64 C0.2 3.46, 0.57 1.72, 1.62 1.02 C2.67 0.32, 5.65 0.57, 6.35 0.45 C7.05 0.32, 5.86 0.19, 5.82 0.26 M6.2 0.44 C7.38 0.66, 9.47 1.47, 10.36 2.44 C11.24 3.41, 11.51 5.08, 11.51 6.25 C11.51 7.42, 11.14 8.64, 10.38 9.46 C9.61 10.28, 8.1 10.92, 6.93 11.18 C5.77 11.44, 4.43 11.58, 3.41 11 C2.39 10.42, 1.4 8.98, 0.8 7.7 C0.19 6.41, -0.66 4.46, -0.21 3.28 C0.24 2.09, 2.26 1.01, 3.48 0.57 C4.71 0.12, 6.72 0.71, 7.14 0.6 C7.57 0.48, 6.21 -0.27, 6.04 -0.14" stroke="#000000" stroke-width="4" fill="none"></path></g><g stroke-linecap="round" transform="translate(104.8435630223151 264.46643376713644) rotate(359.91350357589585 5.84828665382301 5.650039648608697)"><path d="M4.88 0.36 C6.13 0.26, 7.96 0.59, 9.14 1.21 C10.31 1.83, 11.53 2.9, 11.92 4.07 C12.32 5.24, 12.03 7.07, 11.52 8.22 C11.02 9.37, 10.08 10.56, 8.89 10.99 C7.7 11.42, 5.71 11.14, 4.41 10.81 C3.1 10.48, 1.9 9.96, 1.09 8.99 C0.27 8.02, -0.62 6.13, -0.48 5 C-0.33 3.86, 1.04 2.99, 1.98 2.19 C2.91 1.38, 4.49 0.45, 5.12 0.16 C5.74 -0.14, 5.63 0.32, 5.74 0.4 M5.63 0.48 C6.88 0.4, 8.21 1.12, 9.19 1.81 C10.18 2.5, 11.24 3.56, 11.56 4.62 C11.87 5.69, 11.56 7.09, 11.06 8.2 C10.56 9.31, 9.63 10.8, 8.55 11.28 C7.46 11.77, 5.9 11.61, 4.54 11.1 C3.19 10.59, 1.04 9.28, 0.4 8.21 C-0.25 7.15, 0.36 5.76, 0.66 4.73 C0.97 3.69, 1.52 2.87, 2.22 2.03 C2.91 1.19, 4.36 -0.12, 4.82 -0.32 C5.28 -0.52, 4.84 0.63, 4.99 0.84" stroke="#000000" stroke-width="4" fill="none"></path></g><g stroke-linecap="round" transform="translate(126.62548441498672 264.4845748379896) rotate(359.91350357589585 5.84828665382301 5.650039648608697)"><path d="M4.91 0.34 C6.2 0.02, 8.14 0.16, 9.27 0.78 C10.4 1.4, 11.26 2.86, 11.68 4.05 C12.1 5.23, 12.29 6.86, 11.79 7.89 C11.29 8.92, 9.86 9.68, 8.69 10.24 C7.51 10.79, 6.05 11.42, 4.75 11.21 C3.44 10.99, 1.59 9.83, 0.85 8.97 C0.12 8.11, 0.31 7.2, 0.35 6.06 C0.39 4.92, 0.31 3.08, 1.1 2.13 C1.9 1.18, 4.4 0.66, 5.13 0.35 C5.85 0.03, 5.47 0.25, 5.45 0.23 M6.38 0.71 C7.56 0.73, 9.25 1.26, 10.13 2.03 C11.02 2.8, 11.56 4.09, 11.69 5.33 C11.83 6.58, 11.63 8.5, 10.94 9.48 C10.26 10.46, 8.96 11.09, 7.58 11.21 C6.2 11.33, 3.73 10.78, 2.65 10.18 C1.57 9.58, 1.42 8.58, 1.08 7.63 C0.74 6.69, 0.46 5.69, 0.6 4.52 C0.74 3.34, 1.03 1.21, 1.93 0.58 C2.83 -0.04, 5.2 0.77, 6 0.76 C6.79 0.76, 6.66 0.51, 6.68 0.56" stroke="#000000" stroke-width="4" fill="none"></path></g><g stroke-linecap="round"><g transform="translate(118.72383012180518 244.05125311464076) rotate(0.04771877267808328 -3.401168407564171 9.900008810060626)"><path d="M-0.37 -0.37 C-1.4 3.02, -5.42 16.4, -6.45 19.84 M0.44 0.63 C-0.61 4.15, -5.5 17.42, -6.7 20.56" stroke="#000000" stroke-width="2" fill="none"></path></g></g><mask></mask><g stroke-linecap="round"><g transform="translate(123.82866870078777 244.23737352121896) rotate(0.04771877267808328 3.862802140385895 9.944589828652255)"><path d="M0.35 0.04 C1.75 3.5, 6.78 17.03, 8.01 20.4 M-0.13 -0.41 C1.25 2.94, 6.47 16.4, 7.72 19.69" stroke="#000000" stroke-width="2" fill="none"></path></g></g><mask></mask><g stroke-linecap="round"><g transform="translate(95.44722105205432 215.1379981977629) rotate(0.04771877267808328 -6.936681138881113 9.229950256654774)"><path d="M0 0 C-2.31 3.08, -11.56 15.38, -13.87 18.46 M0 0 C-2.31 3.08, -11.56 15.38, -13.87 18.46" stroke="#000000" stroke-width="4" fill="none"></path></g></g><mask></mask><g stroke-linecap="round"><g transform="translate(103.57106361431494 215.29565608434586) rotate(0.04771877267808328 6.88985296586273 9.32725407895137)"><path d="M0 0 C2.3 3.11, 11.48 15.55, 13.78 18.65 M0 0 C2.3 3.11, 11.48 15.55, 13.78 18.65" stroke="#862e9c" stroke-width="4" fill="none"></path></g></g><mask></mask><g stroke-linecap="round"><g transform="translate(81.67198900613624 227.80116029466103) rotate(270.04771877267814 11.595413810713978 23.763440649117513)"><path d="M0.7 1.1 C4.67 8.87, 20.23 39.68, 23.85 47.4 M-0.39 0.63 C3.48 8.52, 19.03 40.87, 23.24 48.87" stroke="#ff0000" stroke-width="2" fill="none"></path></g></g><mask></mask><g stroke-linecap="round"><g transform="translate(90.80742124039881 238.78265691661363) rotate(270.04771877267814 11.022800783024422 13.313252893782732)"><path d="M0.65 -0.12 C4.08 4.11, 17.7 22.25, 21.26 26.52 M-0.46 -1.24 C3.29 3.71, 19.94 23.43, 23.56 28" stroke="#ff0000" stroke-width="2" fill="none"></path></g></g><mask></mask><g stroke-linecap="round"><g transform="translate(86.29668671293285 266.0326311817242) rotate(270.04771877267814 11.738567067636353 -13.026946379937897)"><path d="M-0.78 -0.11 C3.02 -4.63, 19.54 -23.04, 23.47 -27.23 M1 -1.21 C4.59 -5.62, 19.08 -21.99, 22.52 -26.3" stroke="#1864ab" stroke-width="2" fill="none"></path></g></g><mask></mask><g stroke-linecap="round"><g transform="translate(96.02633918095029 274.78490746673714) rotate(270.04771877267814 12.311180095325966 -23.190827621427957)"><path d="M0 -1.17 C4.12 -8.74, 19.66 -37.89, 23.94 -45.54 M-1.47 0.83 C3.12 -7.07, 21.8 -39.39, 26.3 -47.22" stroke="#c92a2a" stroke-width="2" fill="none"></path></g></g><mask></mask><g stroke-linecap="round"><g transform="translate(92.66870763889341 198.0445071153497) rotate(270.04771877267814 6.72820307535261 0.10489581812328197)"><path d="M-0.31 0.39 C2.01 0.46, 11.63 -0.11, 13.95 -0.11 M0.53 0.11 C2.82 0.29, 11.63 0.27, 13.77 0.42" stroke="#000000" stroke-width="2" fill="none"></path></g><g transform="translate(92.66870763889341 198.0445071153497) rotate(270.04771877267814 6.72820307535261 0.10489581812328197)"><path d="M13.3 0.83 L8.57 2.64 L7.47 -3.37 L14.55 0.53" stroke="none" stroke-width="0" fill="#000000" fill-rule="evenodd"></path><path d="M13.77 0.42 C12.14 1.5, 9.85 2.09, 7.58 3.08 M13.77 0.42 C11.77 1.28, 9.59 2.27, 7.58 3.08 M7.58 3.08 C7.87 1.32, 7.76 -0.44, 7.76 -2.6 M7.58 3.08 C7.7 1.4, 7.57 -0.39, 7.76 -2.6 M7.76 -2.6 C10.28 -1.79, 12.2 -0.56, 13.77 0.42 M7.76 -2.6 C10.07 -1.32, 12.55 -0.27, 13.77 0.42 M13.77 0.42 C13.77 0.42, 13.77 0.42, 13.77 0.42 M13.77 0.42 C13.77 0.42, 13.77 0.42, 13.77 0.42" stroke="#000000" stroke-width="2" fill="none"></path></g></g><mask></mask><g transform="translate(85.89881571561608 168.91376793019197) rotate(270.04771877267814 14.100595806855893 5.076214490468118)"><text x="0" y="0" font-family="Virgil, Segoe UI Emoji" font-size="8.032691061839659px" fill="#000000" text-anchor="start" style="white-space: pre;" direction="ltr" dominant-baseline="text-before-edge">Output</text></g><g transform="translate(76.74096098051854 329.4571368182519) rotate(270.04771877267814 1.9157846499600168 3.7251368193667247)"><text x="0" y="0" font-family="Virgil, Segoe UI Emoji" font-size="5.960218910986753px" fill="#000000" text-anchor="start" style="white-space: pre;" direction="ltr" dominant-baseline="text-before-edge">X</text></g><g transform="translate(79.82974356089193 326.76768930261) rotate(270.04771877267814 0.9578923249800084 3.7251368193667247)"><text x="0" y="0" font-family="Virgil, Segoe UI Emoji" font-size="5.960218910986753px" fill="#000000" text-anchor="start" style="white-space: pre;" direction="ltr" dominant-baseline="text-before-edge">1</text></g><g transform="translate(119.36995721344528 328.29345251481874) rotate(270.04771877267814 1.9325689684523297 3.736300005674508)"><text x="0" y="0" font-family="Virgil, Segoe UI Emoji" font-size="5.960218910986753px" fill="#000000" text-anchor="start" style="white-space: pre;" direction="ltr" dominant-baseline="text-before-edge">X</text></g><g transform="translate(121.24418399185987 324.38843723331956) rotate(270.04771877267814 2.190244830912633 3.736300005674508)"><text x="0" y="0" font-family="Virgil, Segoe UI Emoji" font-size="5.960218910986753px" fill="#000000" text-anchor="start" style="white-space: pre;" direction="ltr" dominant-baseline="text-before-edge">2</text></g><g stroke-linecap="round"><g transform="translate(71.59535111490749 318.23011365342825) rotate(270.04771877267814 8.315902833946382 0)"><path d="M0.05 0.35 C2.88 0.38, 13.73 0.52, 16.5 0.49 M-0.58 0.05 C2.19 -0.08, 13.18 -0.09, 15.99 -0.23" stroke="#364fc7" stroke-width="2" fill="none"></path></g><g transform="translate(71.59535111490749 318.23011365342825) rotate(270.04771877267814 8.315902833946382 0)"><path d="M16.45 -1.21 L8.95 2.66 L9.28 -2.63 L15.94 -0.34" stroke="none" stroke-width="0" fill="#364fc7" fill-rule="evenodd"></path><path d="M15.99 -0.23 C14.62 0.48, 13.09 1.4, 8.54 3.46 M15.99 -0.23 C13.65 1.11, 11.18 2.22, 8.54 3.46 M8.54 3.46 C8.42 2.02, 8.73 -0.09, 8.38 -3.57 M8.54 3.46 C8.56 1.75, 8.41 -0.04, 8.38 -3.57 M8.38 -3.57 C10.9 -2.69, 13.32 -1.21, 15.99 -0.23 M8.38 -3.57 C11.22 -2.37, 14.26 -0.96, 15.99 -0.23 M15.99 -0.23 C15.99 -0.23, 15.99 -0.23, 15.99 -0.23 M15.99 -0.23 C15.99 -0.23, 15.99 -0.23, 15.99 -0.23" stroke="#364fc7" stroke-width="2" fill="none"></path></g></g><mask></mask><g stroke-linecap="round"><g transform="translate(114.6310784214599 317.2790464915649) rotate(270.04771877267814 8.315902833946382 0)"><path d="M-0.14 0.49 C2.63 0.46, 13.84 0.25, 16.64 0.17 M0.8 0.26 C3.48 0.03, 13.62 -0.76, 16.21 -0.71" stroke="#364fc7" stroke-width="2" fill="none"></path></g><g transform="translate(114.6310784214599 317.2790464915649) rotate(270.04771877267814 8.315902833946382 0)"><path d="M16.62 -1.51 L9.7 4.02 L8.49 -4.06 L15.55 -1.54" stroke="none" stroke-width="0" fill="#364fc7" fill-rule="evenodd"></path><path d="M16.21 -0.71 C14.29 0.46, 11.76 1.63, 8.8 3.08 M16.21 -0.71 C14.14 0.45, 11.67 1.42, 8.8 3.08 M8.8 3.08 C8.96 0.05, 8.47 -2.56, 8.55 -3.95 M8.8 3.08 C8.62 0.4, 8.62 -2.54, 8.55 -3.95 M8.55 -3.95 C11.12 -2.65, 13.78 -1.89, 16.21 -0.71 M8.55 -3.95 C10.66 -3, 12.83 -2.22, 16.21 -0.71 M16.21 -0.71 C16.21 -0.71, 16.21 -0.71, 16.21 -0.71 M16.21 -0.71 C16.21 -0.71, 16.21 -0.71, 16.21 -0.71" stroke="#364fc7" stroke-width="2" fill="none"></path></g></g><mask></mask><g stroke-linecap="round" transform="translate(73.23661017421392 297.9660790731624) rotate(359.91350357589585 5.84828665382301 5.650039648608697)"><path d="M6.14 0.28 C7.34 0.1, 8.79 0.17, 9.65 0.97 C10.51 1.77, 11.09 3.8, 11.27 5.09 C11.46 6.38, 11.27 7.82, 10.76 8.71 C10.25 9.61, 9.38 10.16, 8.19 10.47 C7 10.78, 4.78 10.9, 3.62 10.58 C2.47 10.26, 1.8 9.58, 1.26 8.56 C0.72 7.53, 0.17 5.63, 0.36 4.44 C0.55 3.25, 1.46 2.12, 2.4 1.39 C3.34 0.67, 5.3 0.33, 5.99 0.09 C6.68 -0.15, 6.49 -0.2, 6.54 -0.06 M6.67 -0.24 C7.8 -0.04, 9.46 1.29, 10.23 2.23 C10.99 3.17, 11.35 4.11, 11.27 5.37 C11.19 6.64, 10.43 8.89, 9.77 9.82 C9.1 10.74, 8.51 10.93, 7.29 10.93 C6.07 10.93, 3.51 10.4, 2.43 9.8 C1.36 9.21, 1.06 8.35, 0.84 7.37 C0.61 6.39, 0.65 4.95, 1.1 3.91 C1.55 2.87, 2.47 1.86, 3.54 1.11 C4.61 0.36, 6.86 -0.35, 7.52 -0.59 C8.17 -0.83, 7.42 -0.68, 7.46 -0.34" stroke="#000000" stroke-width="4" fill="none"></path></g><g stroke-linecap="round" transform="translate(116.1066898369258 298.0017834143276) rotate(359.91350357589585 5.84828665382301 5.650039648608697)"><path d="M6.71 -0.3 C7.8 -0.19, 9.06 1.29, 9.87 2.29 C10.67 3.29, 11.39 4.64, 11.55 5.7 C11.7 6.76, 11.58 7.8, 10.8 8.65 C10.01 9.5, 8.04 10.45, 6.83 10.8 C5.63 11.15, 4.6 11.27, 3.57 10.72 C2.55 10.18, 1.19 8.66, 0.69 7.53 C0.2 6.41, 0.27 5.07, 0.6 3.97 C0.92 2.87, 1.54 1.61, 2.62 0.93 C3.7 0.25, 6.28 -0.05, 7.05 -0.11 C7.83 -0.17, 7.23 0.43, 7.27 0.56 M5.37 -0.03 C6.58 -0.17, 8.08 -0.18, 9.05 0.63 C10.03 1.43, 10.78 3.58, 11.23 4.81 C11.68 6.03, 12.31 7.08, 11.74 8 C11.17 8.92, 8.98 9.81, 7.79 10.32 C6.6 10.84, 5.65 11.3, 4.6 11.1 C3.55 10.89, 2.2 10.06, 1.5 9.1 C0.8 8.14, 0.26 6.73, 0.39 5.33 C0.52 3.93, 1.36 1.69, 2.3 0.7 C3.23 -0.29, 5.3 -0.62, 5.98 -0.6 C6.66 -0.58, 6.41 0.64, 6.35 0.82" stroke="#000000" stroke-width="4" fill="none"></path></g><g stroke-linecap="round"><g transform="translate(131.54869209525276 275.7254078350461) rotate(180.047718772678 -3.3996894618137503 9.873257546941517)"><path d="M0.31 0.31 C-0.77 3.61, -5.24 16.61, -6.49 19.79 M-0.19 0 C-1.32 3.4, -5.78 17.21, -6.76 20.51" stroke="#e67700" stroke-width="2" fill="none"></path></g></g><mask></mask><g stroke-linecap="round"><g transform="translate(111.77087963211096 276.2376740980859) rotate(180.047718772678 3.6525646750047542 9.942491579278027)"><path d="M0.31 0.04 C1.41 3.24, 5.67 16.24, 6.91 19.52 M-0.2 -0.42 C1.05 2.82, 6.63 16.58, 7.94 20.03" stroke="#0000ff" stroke-width="2" fill="none"></path></g></g><mask></mask><g stroke-linecap="round"><g transform="translate(88.18647750415386 275.8160359459851) rotate(180.047718772678 -3.401168407564171 9.900008810060655)"><path d="M-0.4 -0.37 C-1.51 2.9, -5.32 16.21, -6.35 19.64 M0.4 0.63 C-0.77 3.97, -5.35 17.14, -6.55 20.25" stroke="#000000" stroke-width="2" fill="none"></path></g></g><mask></mask><g stroke-linecap="round"><g transform="translate(68.57764515304615 276.28779513201806) rotate(180.047718772678 3.862802140385895 9.944589828652255)"><path d="M0.45 -0.16 C1.85 3.28, 6.86 16.97, 7.98 20.27 M0.02 -0.72 C1.4 2.6, 6.31 16.03, 7.68 19.5" stroke="#000000" stroke-width="2" fill="none"></path></g></g><mask></mask><g stroke-linecap="round"><g transform="translate(96.86875330675497 263.42073902056256) rotate(90.04771877267812 11.595413810713978 23.763440649117513)"><path d="M0.56 0.83 C4.06 8.73, 18.39 39.03, 22.01 47.01 M-0.61 0.23 C3.15 8.31, 19.89 40.48, 24.11 48.27" stroke="#ff0000" stroke-width="2" fill="none"></path></g></g><mask></mask><g stroke-linecap="round"><g transform="translate(87.65491693035011 274.2573474400289) rotate(90.04771877267812 11.022800783024422 13.313252893782732)"><path d="M-1.18 -0.52 C2.25 3.97, 17.23 23.15, 21.14 27.78 M0.41 1.82 C4.16 5.93, 19.84 22.35, 23.37 26.26" stroke="#ff0000" stroke-width="2" fill="none"></path></g></g><mask></mask><g stroke-linecap="round"><g transform="translate(91.06498192417536 301.6134822370113) rotate(90.04771877267812 11.738567067636353 -13.026946379937897)"><path d="M-0.91 1.15 C3.24 -2.99, 19.72 -20.99, 23.69 -25.4 M0.81 0.72 C4.92 -3.73, 19.34 -22.51, 22.86 -27.18" stroke="#1864ab" stroke-width="2" fill="none"></path></g></g><mask></mask><g stroke-linecap="round"><g transform="translate(80.44353093223964 313.244473475508) rotate(90.04771877267812 12.311180095325966 -23.190827621427957)"><path d="M0.22 0.65 C4.38 -7.15, 19.99 -37.75, 24.09 -45.65 M-1.13 -0.05 C2.91 -7.68, 18.65 -39.8, 22.87 -47.39" stroke="#c92a2a" stroke-width="2" fill="none"></path></g></g><mask></mask><g stroke-linecap="round" transform="translate(53.60376047379481 446.65931561127184) rotate(0 47.20001220703125 49.5)"><path d="M25.94 5.94 C32.21 1.49, 40.5 -0.37, 48.3 -0.19 C56.1 0, 65.81 2.71, 72.74 7.05 C79.68 11.39, 86.47 18.36, 89.92 25.85 C93.36 33.33, 93.96 43.53, 93.4 51.96 C92.84 60.39, 90.71 69.46, 86.55 76.41 C82.4 83.36, 75.38 89.77, 68.49 93.65 C61.59 97.54, 52.96 100.03, 45.2 99.73 C37.43 99.43, 28.61 96.27, 21.9 91.86 C15.19 87.45, 8.64 80.74, 4.94 73.25 C1.25 65.76, -0.64 55.35, -0.26 46.92 C0.12 38.5, 2.33 29.88, 7.22 22.71 C12.11 15.54, 24.53 7.23, 29.07 3.91 C33.62 0.59, 34.22 1.88, 34.48 2.77 M50 -0.33 C57.47 -0.8, 65.2 3.53, 71.88 8.04 C78.55 12.54, 86.34 19.28, 90.06 26.67 C93.78 34.06, 94.75 44.25, 94.2 52.37 C93.65 60.49, 90.97 68.66, 86.77 75.39 C82.56 82.12, 76.13 88.58, 68.99 92.73 C61.86 96.89, 51.81 100.66, 43.94 100.31 C36.07 99.96, 27.99 95.08, 21.76 90.64 C15.52 86.2, 9.96 80.67, 6.53 73.68 C3.1 66.69, 1.12 57.09, 1.17 48.72 C1.21 40.35, 2.67 30.64, 6.79 23.47 C10.9 16.3, 18.94 9.46, 25.87 5.7 C32.81 1.95, 44.66 1.73, 48.39 0.94 C52.11 0.16, 47.92 0.54, 48.23 0.99" stroke="none" stroke-width="0" fill="#ffec99"></path><path d="M67.14 4.07 C73.87 6.83, 80.68 15.26, 85.34 22.25 C89.99 29.24, 94.41 37.8, 95.08 46 C95.76 54.21, 92.81 64.09, 89.37 71.48 C85.93 78.88, 80.81 85.94, 74.43 90.38 C68.05 94.82, 58.96 97.59, 51.08 98.13 C43.2 98.68, 34.42 97.29, 27.16 93.65 C19.9 90.02, 12.06 83.27, 7.52 76.34 C2.98 69.41, 0.28 60.06, -0.09 52.07 C-0.47 44.09, 1.79 35.56, 5.28 28.42 C8.77 21.28, 14.38 14.1, 20.84 9.24 C27.3 4.38, 36.03 -0.19, 44.03 -0.74 C52.04 -1.29, 64.3 4.69, 68.87 5.94 C73.44 7.19, 71.75 6.17, 71.46 6.77 M32.75 2.98 C39.97 -0.04, 51.15 -0.85, 59.06 0.72 C66.97 2.29, 74.87 6.67, 80.21 12.4 C85.55 18.13, 88.7 27.23, 91.11 35.08 C93.51 42.93, 96.12 51.51, 94.65 59.5 C93.17 67.5, 87.78 76.97, 82.25 83.07 C76.72 89.18, 68.89 93.64, 61.46 96.13 C54.03 98.63, 45.21 99.8, 37.68 98.03 C30.15 96.27, 22.32 91.16, 16.26 85.54 C10.2 79.92, 3.91 72.16, 1.31 64.33 C-1.28 56.51, -1.37 46.84, 0.69 38.59 C2.75 30.34, 8.05 20.85, 13.67 14.86 C19.29 8.87, 31.32 4.77, 34.42 2.64 C37.51 0.52, 32.01 1.23, 32.23 2.09" stroke="#1e1e1e" stroke-width="2" fill="none"></path></g><g transform="translate(76.20834564462689 466.15752994253774) rotate(0 24.71997833251953 30)"><text x="24.71997833251953" y="0" font-family="Virgil, Segoe UI Emoji" font-size="16px" fill="#1e1e1e" text-anchor="middle" style="white-space: pre;" direction="ltr" dominant-baseline="text-before-edge">corpus</text><text x="24.71997833251953" y="20" font-family="Virgil, Segoe UI Emoji" font-size="16px" fill="#1e1e1e" text-anchor="middle" style="white-space: pre;" direction="ltr" dominant-baseline="text-before-edge">trg </text><text x="24.71997833251953" y="40" font-family="Virgil, Segoe UI Emoji" font-size="16px" fill="#1e1e1e" text-anchor="middle" style="white-space: pre;" direction="ltr" dominant-baseline="text-before-edge">data</text></g><g stroke-linecap="round"><g transform="translate(100.00375437027918 445.6643436468322) rotate(0 0 -24.302517069538)"><path d="M-0.46 0.15 C-0.62 -8.05, -0.49 -40.83, -0.47 -48.9 M0.31 -0.25 C0.26 -8.41, 0.44 -40.2, 0.53 -48.35" stroke="#1e1e1e" stroke-width="2" fill="none"></path></g><g transform="translate(100.00375437027918 445.6643436468322) rotate(0 0 -24.302517069538)"><path d="M-0.1 -49.23 L6.71 -35.1 L-5.33 -35.03 L0.85 -47.61" stroke="none" stroke-width="0" fill="#1e1e1e" fill-rule="evenodd"></path><path d="M0.53 -48.35 C3.26 -43.53, 5.14 -37.91, 6.76 -34.71 M0.53 -48.35 C3.16 -43.65, 5.12 -38.05, 6.76 -34.71 M6.76 -34.71 C2.45 -34.51, -2.64 -35.07, -5.91 -34.8 M6.76 -34.71 C3.17 -34.72, -0.55 -34.94, -5.91 -34.8 M-5.91 -34.8 C-4.86 -37.39, -2.68 -40.53, 0.53 -48.35 M-5.91 -34.8 C-4.4 -38.77, -2.55 -42.65, 0.53 -48.35 M0.53 -48.35 C0.53 -48.35, 0.53 -48.35, 0.53 -48.35 M0.53 -48.35 C0.53 -48.35, 0.53 -48.35, 0.53 -48.35" stroke="#1e1e1e" stroke-width="2" fill="none"></path></g></g><mask></mask><g stroke-linecap="round" transform="translate(32.00375437027918 15.459288145451524) rotate(0 66.40000915527344 35.5)"><path d="M89.79 2.29 C99.99 3.79, 111.35 8.73, 118.23 13.5 C125.11 18.27, 129.56 25.26, 131.07 30.92 C132.58 36.58, 131.19 42.25, 127.31 47.47 C123.43 52.69, 116.25 58.46, 107.79 62.24 C99.33 66.02, 87.35 68.95, 76.57 70.16 C65.78 71.36, 53.25 71.38, 43.06 69.44 C32.86 67.51, 22.31 63.39, 15.42 58.52 C8.53 53.65, 3.7 46.08, 1.72 40.23 C-0.25 34.38, -0.26 28.78, 3.58 23.44 C7.42 18.1, 15.84 11.97, 24.77 8.19 C33.7 4.42, 45.28 1.39, 57.16 0.81 C69.05 0.22, 88.54 3.87, 96.1 4.67 C103.65 5.47, 102.75 5.21, 102.5 5.6 M69.19 0.68 C79.57 0.36, 90.62 2.93, 100.17 6.03 C109.73 9.13, 121.24 14.39, 126.51 19.27 C131.78 24.15, 132.43 29.36, 131.79 35.33 C131.14 41.31, 128.46 49.64, 122.63 55.11 C116.8 60.58, 106.57 65.45, 96.82 68.17 C87.07 70.89, 75.25 71.7, 64.13 71.43 C53 71.16, 39.24 69.52, 30.06 66.55 C20.88 63.58, 14.29 59.16, 9.04 53.6 C3.8 48.03, -1.76 39.29, -1.39 33.14 C-1.02 26.99, 5.12 21.57, 11.28 16.71 C17.43 11.84, 25.73 6.94, 35.56 3.95 C45.39 0.97, 64.53 -0.6, 70.26 -1.2 C75.99 -1.8, 70.34 -0.54, 69.94 0.34" stroke="none" stroke-width="0" fill="#a5d8ff"></path><path d="M56.98 0.19 C67.29 -1.12, 81.68 0.03, 91.87 2.14 C102.07 4.24, 111.56 7.99, 118.15 12.81 C124.74 17.63, 129.96 25.2, 131.41 31.07 C132.87 36.93, 130.79 42.41, 126.9 47.99 C123.01 53.56, 116.57 60.65, 108.09 64.49 C99.6 68.33, 87.12 70.28, 76.01 71.01 C64.89 71.75, 51.72 71.19, 41.38 68.92 C31.04 66.65, 20.9 62.27, 13.95 57.4 C7.01 52.52, 1.29 45.48, -0.29 39.68 C-1.88 33.89, -0.02 27.93, 4.47 22.62 C8.96 17.31, 16.89 11.52, 26.63 7.83 C36.38 4.13, 55.75 1.74, 62.94 0.47 C70.14 -0.81, 69.86 -0.29, 69.8 0.16 M49.3 2.27 C59.62 0.3, 73.56 0.51, 84.31 1.77 C95.05 3.03, 106.3 5.61, 113.77 9.82 C121.23 14.03, 126.27 21.09, 129.11 27.02 C131.94 32.95, 133.11 39.74, 130.78 45.41 C128.45 51.08, 122.93 57.15, 115.11 61.05 C107.29 64.94, 94.78 67.49, 83.85 68.78 C72.93 70.06, 60.37 70.12, 49.57 68.78 C38.77 67.44, 26.75 64.5, 19.06 60.74 C11.37 56.98, 6.36 51.76, 3.45 46.23 C0.55 40.7, -0.72 33.26, 1.63 27.56 C3.97 21.87, 9.68 16.46, 17.51 12.07 C25.34 7.67, 43.57 2.92, 48.61 1.2 C53.66 -0.52, 47.31 1, 47.78 1.75" stroke="#1e1e1e" stroke-width="2" fill="none"></path></g><g transform="translate(57.62789980102946 30.856997413329083) rotate(0 40.82396697998047 20)"><text x="40.82396697998047" y="0" font-family="Virgil, Segoe UI Emoji" font-size="16px" fill="#1e1e1e" text-anchor="middle" style="white-space: pre;" direction="ltr" dominant-baseline="text-before-edge">embeddings</text><text x="40.82396697998047" y="20" font-family="Virgil, Segoe UI Emoji" font-size="16px" fill="#1e1e1e" text-anchor="middle" style="white-space: pre;" direction="ltr" dominant-baseline="text-before-edge">vector db</text></g><g stroke-linecap="round"><g transform="translate(100.00375437027918 125.85929730072496) rotate(0 -0.8000030517578125 -20.800003051757812)"><path d="M-0.05 -0.3 C-0.28 -7.35, -0.93 -34.97, -1.11 -41.9 M-0.74 0.73 C-1.03 -6.28, -1.2 -34.32, -1.29 -41.36" stroke="#1e1e1e" stroke-width="2" fill="none"></path></g><g transform="translate(100.00375437027918 125.85929730072496) rotate(0 -0.8000030517578125 -20.800003051757812)"><path d="M-0.65 -40.98 L4.72 -26.97 L-6.99 -27.71 L-0.79 -41.16" stroke="none" stroke-width="0" fill="#1e1e1e" fill-rule="evenodd"></path><path d="M-1.29 -41.36 C0.61 -35.94, 2.88 -31.24, 5.18 -27.82 M-1.29 -41.36 C0.2 -38.21, 1.64 -34.84, 5.18 -27.82 M5.18 -27.82 C1.04 -27.67, -4.16 -28.03, -7.5 -27.7 M5.18 -27.82 C1.14 -27.78, -2.78 -27.69, -7.5 -27.7 M-7.5 -27.7 C-4.9 -33.44, -3.31 -38.51, -1.29 -41.36 M-7.5 -27.7 C-5.14 -33.24, -2.68 -38.7, -1.29 -41.36 M-1.29 -41.36 C-1.29 -41.36, -1.29 -41.36, -1.29 -41.36 M-1.29 -41.36 C-1.29 -41.36, -1.29 -41.36, -1.29 -41.36" stroke="#1e1e1e" stroke-width="2" fill="none"></path></g></g><mask></mask><g stroke-linecap="round" transform="translate(268.80377268082606 131.4593034042406) rotate(0 60.800018310546875 132.40000915527344)"><path d="M30.4 0 C52.18 -0.13, 77.94 1.8, 91.2 0 C108.3 2.29, 120.29 8.36, 121.6 30.4 C123.85 78.25, 120.42 127.9, 121.6 234.4 C122.53 251.29, 115.03 266.14, 91.2 264.8 C80.5 266.69, 68.86 266.83, 30.4 264.8 C11.56 266.91, 3.05 252.24, 0 234.4 C-1.27 192.89, -0.06 148.16, 0 30.4 C2.12 12.54, 6.67 -0.59, 30.4 0" stroke="none" stroke-width="0" fill="#b2f2bb"></path><path d="M30.4 0 C46.73 0.03, 62.1 2.21, 91.2 0 M30.4 0 C48.35 0.03, 67.86 0.32, 91.2 0 M91.2 0 C111.88 0.42, 122.28 11.89, 121.6 30.4 M91.2 0 C112.01 0.51, 121.99 8.6, 121.6 30.4 M121.6 30.4 C123.9 73.27, 122.86 115.57, 121.6 234.4 M121.6 30.4 C121.25 95.45, 121.64 159.91, 121.6 234.4 M121.6 234.4 C121.99 254.78, 112.73 264.3, 91.2 264.8 M121.6 234.4 C119.53 254.4, 112.09 264.21, 91.2 264.8 M91.2 264.8 C77.19 264.56, 63.87 262.97, 30.4 264.8 M91.2 264.8 C78.71 264.62, 66.27 264.5, 30.4 264.8 M30.4 264.8 C10.12 264.68, -0.02 256.32, 0 234.4 M30.4 264.8 C9.2 266.67, 1.07 256.38, 0 234.4 M0 234.4 C-0.16 161.27, -0.69 84.2, 0 30.4 M0 234.4 C-1.28 169.46, 0.24 104.66, 0 30.4 M0 30.4 C-0.53 9.67, 8.45 -1.05, 30.4 0 M0 30.4 C-0.18 12.36, 8.59 0.05, 30.4 0" stroke="#1e1e1e" stroke-width="2" fill="none"></path></g><g transform="translate(299.8598105836581 253.85931255951402) rotate(0 29.743980407714844 10)"><text x="29.743980407714844" y="0" font-family="Virgil, Segoe UI Emoji" font-size="16px" fill="#1e1e1e" text-anchor="middle" style="white-space: pre;" direction="ltr" dominant-baseline="text-before-edge">decoder</text></g><g stroke-linecap="round"><g transform="translate(164.00375437027918 50.659300352482774) rotate(0 51.90000915527344 109.42204302961488)"><path d="M0.72 0.41 C7.52 4.46, 31.2 -8.28, 39.66 25.37 C48.12 59.02, 40.9 170.17, 51.48 202.31 C62.07 234.46, 94.34 215.51, 103.18 218.24 M-0.36 -0.42 C6.42 4.33, 30.42 -7.21, 38.95 26.79 C47.49 60.79, 40.17 171.54, 50.87 203.58 C61.56 235.62, 94.35 216.46, 103.11 219.03" stroke="#1e1e1e" stroke-width="2" fill="none"></path></g><g transform="translate(164.00375437027918 50.659300352482774) rotate(0 51.90000915527344 109.42204302961488)"><path d="M101.95 217.54 L90.59 227.87 L90.71 214.75 L103.69 218.55" stroke="none" stroke-width="0" fill="#1e1e1e" fill-rule="evenodd"></path><path d="M103.11 219.03 C101.07 221.31, 97.64 222.73, 90.37 226.95 M103.11 219.03 C99.8 221.18, 96.23 223.1, 90.37 226.95 M90.37 226.95 C89.42 223.36, 90.63 221.18, 88.85 214.36 M90.37 226.95 C89.84 224.22, 89.26 221.25, 88.85 214.36 M88.85 214.36 C93.96 215.71, 97.62 217.09, 103.11 219.03 M88.85 214.36 C92.51 215.86, 97.41 218, 103.11 219.03 M103.11 219.03 C103.11 219.03, 103.11 219.03, 103.11 219.03 M103.11 219.03 C103.11 219.03, 103.11 219.03, 103.11 219.03" stroke="#1e1e1e" stroke-width="2" fill="none"></path></g></g><mask></mask><g stroke-linecap="round" transform="translate(267.41022501665833 10.001867712893272) rotate(0.40062654311066 63.02891489951895 35.5)"><path d="M88.76 3.6 C98.19 5.45, 107.95 10.3, 114.09 14.91 C120.23 19.52, 124.41 25.42, 125.61 31.29 C126.81 37.15, 125.64 44.67, 121.3 50.09 C116.97 55.51, 108.25 60.32, 99.59 63.79 C90.93 67.25, 79.81 70.09, 69.33 70.9 C58.85 71.71, 46.36 70.95, 36.71 68.64 C27.07 66.32, 17.44 62.08, 11.47 57.01 C5.5 51.95, 2.07 44.16, 0.91 38.25 C-0.26 32.35, 0.41 26.69, 4.49 21.6 C8.56 16.5, 16.59 11.14, 25.34 7.69 C34.1 4.24, 45.36 1.24, 57.02 0.9 C68.69 0.56, 88.1 4.51, 95.33 5.66 C102.56 6.8, 101.04 7.47, 100.42 7.79 M47.5 2.28 C56.6 0.36, 68.94 0.36, 78.94 1.7 C88.95 3.05, 99.95 6.14, 107.53 10.37 C115.11 14.6, 121.83 21.6, 124.42 27.1 C127 32.6, 125.66 37.88, 123.05 43.38 C120.44 48.87, 115.9 55.41, 108.76 60.06 C101.62 64.7, 90.74 69.75, 80.22 71.24 C69.71 72.72, 56.16 70.93, 45.68 68.97 C35.19 67, 24.53 63.34, 17.34 59.45 C10.14 55.56, 5.23 51.03, 2.51 45.63 C-0.22 40.24, -1.65 32.78, 0.98 27.07 C3.61 21.35, 10.59 15.63, 18.3 11.35 C26.01 7.06, 42.28 3.03, 47.25 1.34 C52.22 -0.34, 47.74 0.71, 48.12 1.24" stroke="none" stroke-width="0" fill="#ffc9c9"></path><path d="M68.78 -0.84 C78.78 -0.93, 90.79 3.14, 99.3 6.55 C107.82 9.95, 115.49 14.31, 119.86 19.59 C124.24 24.87, 126.41 32.25, 125.56 38.22 C124.7 44.19, 120.69 50.43, 114.73 55.41 C108.78 60.39, 99.12 65.66, 89.81 68.1 C80.5 70.54, 69.13 70.68, 58.86 70.04 C48.6 69.41, 36.94 67.45, 28.22 64.3 C19.5 61.14, 11.08 56.31, 6.54 51.12 C2 45.92, 0.07 38.98, 0.98 33.11 C1.89 27.23, 6.28 20.67, 12.02 15.87 C17.77 11.07, 25.11 6.7, 35.46 4.31 C45.81 1.92, 66.54 1.74, 74.13 1.54 C81.71 1.33, 81.08 2.77, 80.98 3.09 M85.12 1.45 C94.73 3.32, 106.89 9.48, 113.36 14.17 C119.84 18.85, 122.74 23.78, 123.96 29.54 C125.17 35.3, 124.17 43.17, 120.68 48.71 C117.18 54.26, 111.23 59.29, 102.99 62.78 C94.75 66.27, 81.78 68.51, 71.21 69.65 C60.65 70.8, 49.36 71.66, 39.58 69.67 C29.8 67.68, 19.15 62.39, 12.52 57.71 C5.88 53.04, 1.03 47.24, -0.24 41.61 C-1.51 35.98, 0.88 29.65, 4.91 23.93 C8.93 18.21, 15.77 11.34, 23.91 7.31 C32.06 3.28, 43.21 0.62, 53.79 -0.25 C64.37 -1.13, 82.15 1.39, 87.41 2.05 C92.68 2.7, 85.82 2.83, 85.39 3.69" stroke="#1e1e1e" stroke-width="2" fill="none"></path></g><g transform="translate(292.20298277110857 25.39957698077083) rotate(0.40062654311066 38.16798400878906 20)"><text x="38.16798400878906" y="0" font-family="Virgil, Segoe UI Emoji" font-size="16px" fill="#1e1e1e" text-anchor="middle" style="white-space: pre;" direction="ltr" dominant-baseline="text-before-edge">generate </text><text x="38.16798400878906" y="20" font-family="Virgil, Segoe UI Emoji" font-size="16px" fill="#1e1e1e" text-anchor="middle" style="white-space: pre;" direction="ltr" dominant-baseline="text-before-edge">text</text></g><g stroke-linecap="round"><g transform="translate(328.0037848878573 130.6592850936937) rotate(0 0.399993896484375 -24)"><path d="M0.35 -0.5 C0.49 -8.46, 1.22 -40.24, 1.25 -48.09 M-0.14 0.43 C-0.06 -7.41, 1.02 -39.3, 1.06 -47.44" stroke="#1e1e1e" stroke-width="2" fill="none"></path></g><g transform="translate(328.0037848878573 130.6592850936937) rotate(0 0.399993896484375 -24)"><path d="M1.99 -47.4 L7.83 -34.05 L-4.62 -33.42 L1.5 -46.86" stroke="none" stroke-width="0" fill="#1e1e1e" fill-rule="evenodd"></path><path d="M1.06 -47.44 C2.59 -41.71, 5.41 -37.53, 7.11 -33.71 M1.06 -47.44 C3.74 -42.52, 5.72 -37.24, 7.11 -33.71 M7.11 -33.71 C2.51 -34.25, -0.92 -33.34, -5.57 -33.98 M7.11 -33.71 C2.8 -33.74, -0.76 -33.62, -5.57 -33.98 M-5.57 -33.98 C-2.99 -38.57, -0.97 -43.59, 1.06 -47.44 M-5.57 -33.98 C-3.84 -37.79, -1.8 -41.19, 1.06 -47.44 M1.06 -47.44 C1.06 -47.44, 1.06 -47.44, 1.06 -47.44 M1.06 -47.44 C1.06 -47.44, 1.06 -47.44, 1.06 -47.44" stroke="#1e1e1e" stroke-width="2" fill="none"></path></g></g><mask></mask><g stroke-linecap="round" transform="translate(282.4038093019198 449.85929730072496) rotate(0 49.199981689453125 49.5)"><path d="M67.7 3.79 C75.26 6.34, 83.87 13.42, 88.92 19.98 C93.96 26.53, 96.87 35.01, 97.98 43.13 C99.09 51.25, 98.8 61.2, 95.59 68.72 C92.38 76.24, 85.19 83.25, 78.74 88.23 C72.29 93.21, 64.8 97.42, 56.87 98.62 C48.95 99.82, 38.78 98.67, 31.16 95.41 C23.55 92.14, 16.47 85.56, 11.19 79.03 C5.92 72.49, 0.61 64.3, -0.49 56.21 C-1.59 48.12, 1.43 38.17, 4.58 30.51 C7.73 22.85, 11.97 15.28, 18.39 10.24 C24.81 5.19, 34.34 1.09, 43.11 0.25 C51.87 -0.58, 66.14 4.13, 70.97 5.22 C75.81 6.32, 72.76 6.31, 72.13 6.81 M46.12 -0.13 C53.86 -1.12, 64.48 1.89, 71.81 5.61 C79.14 9.32, 85.85 15.59, 90.08 22.16 C94.32 28.72, 96.7 37.14, 97.21 45.02 C97.72 52.9, 96.75 61.99, 93.14 69.44 C89.53 76.89, 82.09 84.86, 75.57 89.72 C69.04 94.57, 62.09 97.67, 54 98.57 C45.91 99.46, 34.35 98.69, 27.02 95.08 C19.7 91.48, 14.56 84.02, 10.03 76.92 C5.51 69.83, 0.56 60.6, -0.15 52.52 C-0.86 44.45, 2.18 35.83, 5.77 28.47 C9.36 21.1, 14.79 13, 21.41 8.32 C28.02 3.64, 41.46 1.58, 45.44 0.39 C49.43 -0.8, 45.36 0.18, 45.31 1.18" stroke="none" stroke-width="0" fill="#ffec99"></path><path d="M66.99 2.13 C74.58 4.08, 82.59 11.18, 87.61 17.81 C92.63 24.45, 95.74 33.65, 97.13 41.94 C98.53 50.22, 98.81 59.81, 95.96 67.53 C93.11 75.26, 86.53 83.22, 80.03 88.3 C73.54 93.38, 65.08 96.79, 57.01 98.04 C48.95 99.29, 39.41 98.76, 31.64 95.8 C23.87 92.85, 15.66 86.71, 10.41 80.29 C5.17 73.87, 1.41 65.29, 0.17 57.28 C-1.08 49.27, 0.04 39.75, 2.94 32.23 C5.85 24.72, 11.36 17.3, 17.6 12.2 C23.83 7.1, 31.91 3.11, 40.36 1.64 C48.8 0.16, 63.35 2.78, 68.27 3.36 C73.19 3.94, 70.2 4.38, 69.89 5.12 M65.31 1.37 C72.85 3.1, 81.47 11.22, 86.93 17.7 C92.39 24.17, 96.5 32.44, 98.09 40.25 C99.67 48.06, 99.12 56.91, 96.43 64.55 C93.75 72.2, 88.14 80.74, 81.96 86.09 C75.78 91.44, 67.45 95.08, 59.35 96.64 C51.26 98.2, 41.16 97.97, 33.39 95.45 C25.63 92.94, 18.05 87.42, 12.76 81.56 C7.47 75.69, 3.16 68.24, 1.66 60.25 C0.15 52.27, 1.05 41.76, 3.71 33.64 C6.38 25.52, 11.63 16.94, 17.62 11.53 C23.61 6.12, 31.91 2.55, 39.67 1.18 C47.44 -0.19, 60.29 2.74, 64.21 3.32 C68.13 3.91, 63.24 4.16, 63.2 4.67" stroke="#1e1e1e" stroke-width="2" fill="none"></path></g><g transform="translate(302.12618491144025 479.35751163199086) rotate(0 29.687965393066406 20)"><text x="29.687965393066406" y="0" font-family="Virgil, Segoe UI Emoji" font-size="16px" fill="#1e1e1e" text-anchor="middle" style="white-space: pre;" direction="ltr" dominant-baseline="text-before-edge">input </text><text x="29.687965393066406" y="20" font-family="Virgil, Segoe UI Emoji" font-size="16px" fill="#1e1e1e" text-anchor="middle" style="white-space: pre;" direction="ltr" dominant-baseline="text-before-edge">prompts</text></g><g stroke-linecap="round"><g transform="translate(330.40374826676356 452.25929119720934) rotate(0 -0.399993896484375 -27.599990844726562)"><path d="M-0.6 -0.43 C-1.08 -9.44, -2.09 -45.9, -1.96 -54.98 M1.29 -1.7 C1.08 -11.02, 0.36 -48.37, 0.15 -56.98" stroke="#1e1e1e" stroke-width="2" fill="none"></path></g><g transform="translate(330.40374826676356 452.25929119720934) rotate(0 -0.399993896484375 -27.599990844726562)"><path d="M-0.54 -58.28 L7.57 -41.73 L-5.51 -41.29 L1.41 -56.68" stroke="none" stroke-width="0" fill="#1e1e1e" fill-rule="evenodd"></path><path d="M0.15 -56.98 C2 -53.36, 5.29 -45.59, 6.78 -43.53 M0.15 -56.98 C1.71 -53.11, 4.03 -47.67, 6.78 -43.53 M6.78 -43.53 C3.36 -42.19, -1.73 -44.44, -5.9 -43.26 M6.78 -43.53 C3.41 -43.04, 0.35 -42.78, -5.9 -43.26 M-5.9 -43.26 C-4.44 -47.35, -1.78 -50.91, 0.15 -56.98 M-5.9 -43.26 C-4.48 -48.03, -1.45 -52.61, 0.15 -56.98 M0.15 -56.98 C0.15 -56.98, 0.15 -56.98, 0.15 -56.98 M0.15 -56.98 C0.15 -56.98, 0.15 -56.98, 0.15 -56.98" stroke="#1e1e1e" stroke-width="2" fill="none"></path></g></g><mask></mask><g transform="translate(-45.59625173323644 253.0592789901781) rotate(270.66681099966354 66.36795043945312 10)"><text x="0" y="0" font-family="Virgil, Segoe UI Emoji" font-size="16px" fill="#1e1e1e" text-anchor="start" style="white-space: pre;" direction="ltr" dominant-baseline="text-before-edge">Embedding models</text></g><g transform="translate(292.4629565288997 256.23215690968266) rotate(89.99999999999984 120.76792907714855 11.227131235768667)"><text x="0" y="0" font-family="Virgil, Segoe UI Emoji" font-size="17.963409977229848px" fill="#1e1e1e" text-anchor="start" style="white-space: pre;" direction="ltr" dominant-baseline="text-before-edge">Popular LLMs like chat gpt</text></g></svg>