<svg version="1.1" xmlns="http://www.w3.org/2000/svg" viewBox="0 0 851.5001373291016 146.9000244140625" width="851.5001373291016" height="146.9000244140625">
  <!-- svg-source:excalidraw -->
  
  <defs>
    <style class="style-fonts">
      @font-face {
        font-family: "Virgil";
        src: url("https://file%2B.vscode-resource.vscode-cdn.net/c%3A/Users/samra/.vscode/extensions/pomdtr.excalidraw-editor-3.7.4/public//dist/excalidraw-assets/Virgil.woff2");
      }
      @font-face {
        font-family: "Cascadia";
        src: url("https://file%2B.vscode-resource.vscode-cdn.net/c%3A/Users/samra/.vscode/extensions/pomdtr.excalidraw-editor-3.7.4/public//dist/excalidraw-assets/Cascadia.woff2");
      }
      @font-face {
        font-family: "Assistant";
        src: url("https://file%2B.vscode-resource.vscode-cdn.net/c%3A/Users/samra/.vscode/extensions/pomdtr.excalidraw-editor-3.7.4/public//dist/excalidraw-assets/Assistant-Regular.woff2");
      }
    </style>
    
  </defs>
  <rect x="0" y="0" width="851.5001373291016" height="146.9000244140625" fill="#ffffff"></rect><g stroke-linecap="round" transform="translate(10 10.4000244140625) rotate(0 27.4000244140625 22.399993896484375)"><path d="M11.2 0 C18.86 -1.28, 28.81 2.17, 43.6 0 M11.2 0 C20.06 0.93, 28.21 0.54, 43.6 0 M43.6 0 C50.01 -0.29, 56.33 3.85, 54.8 11.2 M43.6 0 C51.11 -1.48, 55.12 4.97, 54.8 11.2 M54.8 11.2 C54.03 17.8, 52.91 21.77, 54.8 33.6 M54.8 11.2 C54.9 18.08, 54.06 23.18, 54.8 33.6 M54.8 33.6 C53.61 39.89, 52.53 43.86, 43.6 44.8 M54.8 33.6 C53.83 41.11, 49.05 43.94, 43.6 44.8 M43.6 44.8 C36.74 46.08, 30.43 44.69, 11.2 44.8 M43.6 44.8 C35.31 44.35, 24.85 43.74, 11.2 44.8 M11.2 44.8 C2.26 45.08, 0.35 39.49, 0 33.6 M11.2 44.8 C5.18 43.76, -1.9 41.66, 0 33.6 M0 33.6 C1.05 28.29, -1.32 23.31, 0 11.2 M0 33.6 C0.05 27.81, -0.66 22.3, 0 11.2 M0 11.2 C0.37 2.14, 4.75 -1.29, 11.2 0 M0 11.2 C-0.24 5.42, 4.57 0.54, 11.2 0" stroke="#1e1e1e" stroke-width="2" fill="none"></path></g><g stroke-linecap="round" transform="translate(19.20001220703125 94.40008544921875) rotate(0 21.071990966796875 21)"><path d="M17.45 -0.1 C21.49 -1.13, 26.9 0.4, 30.8 2.66 C34.7 4.92, 39.21 9.22, 40.85 13.44 C42.49 17.66, 42.16 23.66, 40.65 27.97 C39.14 32.29, 35.68 37.08, 31.79 39.34 C27.89 41.6, 21.76 42.29, 17.3 41.56 C12.85 40.82, 7.87 38.34, 5.04 34.94 C2.22 31.54, 0.42 25.71, 0.36 21.14 C0.31 16.57, 1.81 10.95, 4.71 7.53 C7.61 4.1, 15.5 1.79, 17.76 0.6 C20.02 -0.59, 18.3 0.12, 18.27 0.38 M23.87 0.82 C28.27 0.99, 33.48 3, 36.57 6.21 C39.67 9.43, 42.32 15.48, 42.42 20.09 C42.53 24.69, 40.1 30.16, 37.2 33.84 C34.3 37.53, 29.34 41.18, 25.04 42.19 C20.75 43.19, 15.41 41.92, 11.41 39.87 C7.41 37.82, 2.82 33.98, 1.05 29.89 C-0.73 25.8, -0.81 19.71, 0.74 15.32 C2.29 10.92, 6.47 6.11, 10.32 3.51 C14.17 0.91, 21.6 0.23, 23.87 -0.29 C26.13 -0.82, 23.87 -0.06, 23.89 0.36" stroke="none" stroke-width="0" fill="#40c057"></path><path d="M16.58 0.57 C20.73 -0.5, 26.66 0.76, 30.63 2.85 C34.59 4.93, 38.65 8.93, 40.34 13.1 C42.04 17.27, 42.12 23.51, 40.8 27.86 C39.48 32.2, 36.24 36.79, 32.42 39.18 C28.61 41.57, 22.38 42.97, 17.91 42.19 C13.43 41.41, 8.54 38, 5.59 34.51 C2.63 31.02, 0.38 25.76, 0.16 21.25 C-0.06 16.75, 1.28 10.94, 4.27 7.49 C7.26 4.04, 15.7 1.66, 18.09 0.55 C20.48 -0.56, 18.52 0.6, 18.61 0.82 M25.23 0.95 C29.53 1.46, 34.12 4.01, 37 7.47 C39.87 10.93, 42.53 17.28, 42.46 21.73 C42.39 26.17, 39.58 30.86, 36.59 34.14 C33.6 37.43, 28.98 40.66, 24.51 41.44 C20.04 42.21, 13.65 41.05, 9.76 38.8 C5.87 36.55, 2.69 32.2, 1.18 27.94 C-0.32 23.68, -0.92 17.43, 0.72 13.24 C2.36 9.05, 7 4.92, 11.02 2.82 C15.05 0.72, 22.65 0.99, 24.87 0.64 C27.09 0.29, 24.46 0.49, 24.37 0.72" stroke="#9c36b5" stroke-width="2" fill="none"></path></g><g transform="translate(30.37186309749893 105.55084304430125) rotate(0 9.999992370605469 10)"><text x="9.999992370605469" y="0" font-family="Virgil, Segoe UI Emoji" font-size="16px" fill="#1e1e1e" text-anchor="middle" style="white-space: pre;" direction="ltr" dominant-baseline="text-before-edge">x0</text></g><g stroke-linecap="round"><g transform="translate(35.93220431142345 93.79244296029947) rotate(0 -0.6969356031884217 -18.79621537663411)"><path d="M-0.15 0.38 C-0.22 -5.96, -0.72 -31.09, -0.9 -37.48 M0.78 0.1 C0.71 -6.18, -0.69 -32.12, -1.08 -38.38" stroke="#1e1e1e" stroke-width="2" fill="none"></path></g><g transform="translate(35.93220431142345 93.79244296029947) rotate(0 -0.6969356031884217 -18.79621537663411)"><path d="M-1.33 -37.57 L5.83 -24.66 L-6.24 -23.79 L-1.2 -37.42" stroke="none" stroke-width="0" fill="#1e1e1e" fill-rule="evenodd"></path><path d="M-1.08 -38.38 C1.06 -34.8, 2.26 -32.41, 6.02 -25.17 M-1.08 -38.38 C0.91 -35.25, 2.6 -31.79, 6.02 -25.17 M6.02 -25.17 C3.09 -25.65, 1.13 -24.37, -6.64 -24.45 M6.02 -25.17 C2.9 -25.23, 0.46 -24.9, -6.64 -24.45 M-6.64 -24.45 C-5.09 -29.35, -3.03 -34.96, -1.08 -38.38 M-6.64 -24.45 C-5.33 -27.14, -4.42 -30.25, -1.08 -38.38 M-1.08 -38.38 C-1.08 -38.38, -1.08 -38.38, -1.08 -38.38 M-1.08 -38.38 C-1.08 -38.38, -1.08 -38.38, -1.08 -38.38" stroke="#1e1e1e" stroke-width="2" fill="none"></path></g></g><mask></mask><g stroke-linecap="round" transform="translate(95.39999389648438 10.800018310546875) rotate(0 27.4000244140625 22.399993896484375)"><path d="M11.2 0 C22.21 -2.06, 32.62 1.5, 43.6 0 M11.2 0 C23.15 0.48, 35.45 -0.81, 43.6 0 M43.6 0 C52.23 1.54, 56.75 2.95, 54.8 11.2 M43.6 0 C49.89 -0.03, 55.3 5.54, 54.8 11.2 M54.8 11.2 C55.41 18.29, 53.99 27.7, 54.8 33.6 M54.8 11.2 C55.94 15.42, 53.98 20.47, 54.8 33.6 M54.8 33.6 C54.58 40.73, 52.99 45.84, 43.6 44.8 M54.8 33.6 C53.92 40.32, 50.74 46.62, 43.6 44.8 M43.6 44.8 C34.98 43.42, 24.81 44.03, 11.2 44.8 M43.6 44.8 C31.24 44.66, 19.26 45.07, 11.2 44.8 M11.2 44.8 C5.49 45.95, 0.64 40.22, 0 33.6 M11.2 44.8 C3.11 43, -1.33 40.39, 0 33.6 M0 33.6 C-1.75 26.16, 1.89 20.91, 0 11.2 M0 33.6 C0 27.18, -0.07 19.6, 0 11.2 M0 11.2 C0.03 4.04, 1.78 -0.38, 11.2 0 M0 11.2 C1.82 2.7, 2.2 -1.41, 11.2 0" stroke="#1e1e1e" stroke-width="2" fill="none"></path></g><g stroke-linecap="round" transform="translate(104.60000610351562 94.80007934570312) rotate(0 17 17.199981689453125)"><path d="M20.61 0.44 C24.03 0.98, 28.5 3.97, 30.66 6.92 C32.83 9.86, 33.71 14.38, 33.61 18.09 C33.5 21.81, 32.42 26.55, 30.02 29.2 C27.61 31.85, 22.84 33.53, 19.17 33.98 C15.5 34.43, 10.97 33.78, 7.98 31.89 C4.99 30.01, 2.4 26.23, 1.22 22.68 C0.05 19.14, -0.41 14.1, 0.92 10.64 C2.25 7.18, 5.9 3.54, 9.21 1.91 C12.52 0.28, 18.86 0.96, 20.8 0.86 C22.74 0.75, 20.85 0.97, 20.83 1.26 M15.23 -0.04 C18.89 -0.55, 24.33 1.32, 27.3 3.38 C30.28 5.44, 32.23 8.72, 33.08 12.3 C33.93 15.88, 33.84 21.46, 32.39 24.87 C30.93 28.29, 27.72 31.23, 24.35 32.79 C20.99 34.35, 15.81 35.14, 12.22 34.25 C8.62 33.35, 4.83 30.36, 2.77 27.42 C0.71 24.48, -0.51 20.27, -0.15 16.59 C0.22 12.91, 2.34 8.11, 4.95 5.33 C7.56 2.56, 13.67 0.72, 15.52 -0.07 C17.38 -0.86, 15.96 0.2, 16.06 0.58" stroke="#1e1e1e" stroke-width="2" fill="none"></path></g><g stroke-linecap="round"><g transform="translate(121 95.60000610351562) rotate(0 -0.5999908447265625 -19.600006103515625)"><path d="M0.46 0.36 C0.38 -6.15, -0.75 -32.58, -1.02 -39.12 M0.03 0.06 C-0.06 -6.34, -1.11 -31.73, -1.35 -38.38" stroke="#1e1e1e" stroke-width="2" fill="none"></path></g><g transform="translate(121 95.60000610351562) rotate(0 -0.5999908447265625 -19.600006103515625)"><path d="M-1.03 -38.8 L5.24 -25.82 L-7.74 -24.85 L-1.14 -39.11" stroke="none" stroke-width="0" fill="#1e1e1e" fill-rule="evenodd"></path><path d="M-1.35 -38.38 C0.54 -35.41, 1.57 -32.82, 5.51 -25.04 M-1.35 -38.38 C1.33 -33.36, 3.9 -29.09, 5.51 -25.04 M5.51 -25.04 C2.86 -24.69, -1.19 -24.93, -7.16 -24.55 M5.51 -25.04 C1.47 -25.2, -2.83 -24.65, -7.16 -24.55 M-7.16 -24.55 C-4.79 -30.11, -2.63 -34.82, -1.35 -38.38 M-7.16 -24.55 C-5.14 -29.11, -3.05 -34.23, -1.35 -38.38 M-1.35 -38.38 C-1.35 -38.38, -1.35 -38.38, -1.35 -38.38 M-1.35 -38.38 C-1.35 -38.38, -1.35 -38.38, -1.35 -38.38" stroke="#1e1e1e" stroke-width="2" fill="none"></path></g></g><mask></mask><g stroke-linecap="round" transform="translate(190.99996948242188 11.40008544921875) rotate(0 27.4000244140625 22.399993896484375)"><path d="M11.2 0 C21.99 -1.61, 29.12 0.22, 43.6 0 M11.2 0 C23.47 -0.36, 34.25 -1.04, 43.6 0 M43.6 0 C52.62 -1.95, 53.99 3.84, 54.8 11.2 M43.6 0 C52.16 1.28, 53.87 3.84, 54.8 11.2 M54.8 11.2 C55.93 19.65, 54.05 26.44, 54.8 33.6 M54.8 11.2 C53.98 18.12, 55.32 25.85, 54.8 33.6 M54.8 33.6 C54.13 40.85, 52.2 45.32, 43.6 44.8 M54.8 33.6 C55.14 41.34, 50.52 46.67, 43.6 44.8 M43.6 44.8 C34.2 45.36, 26.05 43.04, 11.2 44.8 M43.6 44.8 C36.79 44.94, 30.1 44.09, 11.2 44.8 M11.2 44.8 C4.2 44.24, 1.99 40.84, 0 33.6 M11.2 44.8 C1.6 42.96, 0.93 40.94, 0 33.6 M0 33.6 C-1.76 27.61, 1.91 23.85, 0 11.2 M0 33.6 C0.83 27.03, -0.29 21.97, 0 11.2 M0 11.2 C-1.81 5.47, 3.84 1.24, 11.2 0 M0 11.2 C-1.29 3.43, 4.17 -0.18, 11.2 0" stroke="#1e1e1e" stroke-width="2" fill="none"></path></g><g stroke-linecap="round" transform="translate(200.19998168945312 95.400146484375) rotate(0 17 17.199981689453125)"><path d="M17.76 0.15 C21.16 -0.15, 25.52 1.33, 28.13 3.79 C30.74 6.25, 32.93 11.24, 33.42 14.92 C33.91 18.6, 32.89 22.74, 31.07 25.87 C29.26 29.01, 25.86 32.51, 22.54 33.71 C19.22 34.9, 14.56 34.41, 11.17 33.05 C7.77 31.69, 3.94 28.69, 2.14 25.54 C0.35 22.39, -0.34 17.69, 0.4 14.14 C1.14 10.59, 3.73 6.51, 6.59 4.23 C9.45 1.94, 15.6 1.08, 17.57 0.42 C19.54 -0.24, 18.42 0.11, 18.41 0.27 M13.4 0.25 C16.75 -0.52, 22.32 0.51, 25.58 2.3 C28.83 4.1, 31.72 7.53, 32.94 11.03 C34.17 14.53, 34.12 19.95, 32.93 23.31 C31.73 26.68, 28.87 29.4, 25.77 31.21 C22.66 33.03, 17.87 34.57, 14.32 34.2 C10.77 33.84, 6.96 31.91, 4.47 29.02 C1.98 26.13, -0.51 20.62, -0.64 16.86 C-0.77 13.1, 1.34 9.21, 3.68 6.48 C6.03 3.74, 11.82 1.49, 13.44 0.44 C15.05 -0.62, 13.25 -0.1, 13.37 0.13" stroke="#1e1e1e" stroke-width="2" fill="none"></path></g><g stroke-linecap="round"><g transform="translate(216.5999755859375 96.2000732421875) rotate(0 -0.5999908447265625 -19.600006103515625)"><path d="M0.04 0.38 C0.01 -6.05, -0.48 -32.11, -0.66 -38.71 M-0.6 0.1 C-0.62 -6.47, -0.7 -32.97, -0.82 -39.43" stroke="#1e1e1e" stroke-width="2" fill="none"></path></g><g transform="translate(216.5999755859375 96.2000732421875) rotate(0 -0.5999908447265625 -19.600006103515625)"><path d="M0.18 -39.54 L4.72 -26.69 L-6.63 -25.83 L-1.54 -39.34" stroke="none" stroke-width="0" fill="#1e1e1e" fill-rule="evenodd"></path><path d="M-0.82 -39.43 C1.09 -35.77, 2.63 -33.35, 5.65 -25.89 M-0.82 -39.43 C1.31 -35.81, 2.76 -31.46, 5.65 -25.89 M5.65 -25.89 C1.27 -25.85, -3.06 -25.53, -7.03 -25.77 M5.65 -25.89 C1.4 -25.73, -3.42 -25.94, -7.03 -25.77 M-7.03 -25.77 C-6.17 -29.09, -4.29 -31.46, -0.82 -39.43 M-7.03 -25.77 C-5.1 -29.93, -3.02 -35.02, -0.82 -39.43 M-0.82 -39.43 C-0.82 -39.43, -0.82 -39.43, -0.82 -39.43 M-0.82 -39.43 C-0.82 -39.43, -0.82 -39.43, -0.82 -39.43" stroke="#1e1e1e" stroke-width="2" fill="none"></path></g></g><mask></mask><g stroke-linecap="round" transform="translate(503.9999694824219 10) rotate(0 27.4000244140625 22.399993896484375)"><path d="M11.2 0 C20.24 -0.19, 28.63 -0.53, 43.6 0 M11.2 0 C18.58 -0.01, 23.63 -0.38, 43.6 0 M43.6 0 C49.11 -1.16, 56.25 4.86, 54.8 11.2 M43.6 0 C52.11 2.01, 54.17 5.12, 54.8 11.2 M54.8 11.2 C56.63 16.06, 56.79 26.15, 54.8 33.6 M54.8 11.2 C55.19 19.17, 55.2 26.45, 54.8 33.6 M54.8 33.6 C54.1 41.9, 49.49 43.03, 43.6 44.8 M54.8 33.6 C53.24 42.1, 50.38 44.74, 43.6 44.8 M43.6 44.8 C35.6 43.31, 27.74 45.6, 11.2 44.8 M43.6 44.8 C35.79 44.01, 28.65 45.35, 11.2 44.8 M11.2 44.8 C4.58 42.91, 0.61 40.14, 0 33.6 M11.2 44.8 C2.83 46.94, 1.57 41.49, 0 33.6 M0 33.6 C-1.24 29.65, 0.27 23.24, 0 11.2 M0 33.6 C0.53 29.92, -0.05 24.92, 0 11.2 M0 11.2 C-1.38 3.37, 2.32 -1.25, 11.2 0 M0 11.2 C-1.36 5.93, 3.81 0.01, 11.2 0" stroke="#1e1e1e" stroke-width="2" fill="none"></path></g><g stroke-linecap="round" transform="translate(513.1999816894531 94.00006103515625) rotate(0 17 17.199981689453125)"><path d="M16.7 0.39 C20.25 -0.07, 24.69 1.06, 27.5 3.16 C30.31 5.27, 32.83 9.28, 33.55 13.01 C34.26 16.74, 33.41 22.14, 31.78 25.53 C30.15 28.91, 27.01 32.01, 23.76 33.33 C20.52 34.65, 15.77 34.6, 12.3 33.46 C8.83 32.31, 4.93 29.48, 2.95 26.45 C0.97 23.42, -0.08 18.99, 0.42 15.25 C0.92 11.51, 3.15 6.49, 5.96 4 C8.77 1.51, 15.38 0.95, 17.3 0.31 C19.22 -0.33, 17.56 -0.11, 17.49 0.17 M19.81 0.6 C23.1 0.81, 27.23 2.73, 29.51 5.58 C31.79 8.42, 33.46 13.87, 33.49 17.66 C33.53 21.46, 32.08 25.58, 29.72 28.33 C27.35 31.09, 22.74 33.62, 19.31 34.2 C15.88 34.79, 12.29 33.76, 9.12 31.83 C5.96 29.9, 1.62 26.14, 0.3 22.62 C-1.01 19.1, -0.24 14.21, 1.25 10.73 C2.74 7.24, 6.13 3.53, 9.25 1.72 C12.37 -0.1, 18.14 -0.05, 19.98 -0.14 C21.83 -0.22, 20.31 0.97, 20.33 1.21" stroke="#1e1e1e" stroke-width="2" fill="none"></path></g><g stroke-linecap="round"><g transform="translate(529.5999755859375 94.79998779296875) rotate(0 -0.5999908447265625 -19.600006103515625)"><path d="M-0.09 -0.53 C-0.26 -6.96, -0.91 -32.32, -1.03 -38.75 M-0.8 0.39 C-1.03 -6.17, -1.35 -33.02, -1.37 -39.48" stroke="#1e1e1e" stroke-width="2" fill="none"></path></g><g transform="translate(529.5999755859375 94.79998779296875) rotate(0 -0.5999908447265625 -19.600006103515625)"><path d="M-1.06 -39.94 L4.7 -25.01 L-6.91 -25.65 L-2.05 -39.13" stroke="none" stroke-width="0" fill="#1e1e1e" fill-rule="evenodd"></path><path d="M-1.37 -39.48 C-0.17 -35.18, 3.1 -30.79, 5.09 -25.94 M-1.37 -39.48 C0.31 -35.28, 3.06 -30.44, 5.09 -25.94 M5.09 -25.94 C1.09 -25.88, -3.33 -25.47, -7.59 -25.83 M5.09 -25.94 C0.4 -25.76, -4.8 -25.76, -7.59 -25.83 M-7.59 -25.83 C-4.9 -30.84, -3.01 -35.9, -1.37 -39.48 M-7.59 -25.83 C-6.34 -28.74, -5.17 -31.6, -1.37 -39.48 M-1.37 -39.48 C-1.37 -39.48, -1.37 -39.48, -1.37 -39.48 M-1.37 -39.48 C-1.37 -39.48, -1.37 -39.48, -1.37 -39.48" stroke="#1e1e1e" stroke-width="2" fill="none"></path></g></g><mask></mask><g stroke-linecap="round"><g transform="translate(65.20001220703125 34.4000244140625) rotate(0 15 0.000030517578125)"><path d="M-0.13 -0.27 C4.95 -0.23, 25.41 0.52, 30.36 0.52 M0.81 0.78 C5.85 0.66, 25.14 -0.08, 30.11 -0.17" stroke="#1e1e1e" stroke-width="2" fill="none"></path></g><g transform="translate(65.20001220703125 34.4000244140625) rotate(0 15 0.000030517578125)"><path d="M29.33 -0.15 L16.14 7.1 L16.35 -5.5 L30.56 0.63" stroke="none" stroke-width="0" fill="#1e1e1e" fill-rule="evenodd"></path><path d="M30.11 -0.17 C25.95 2.21, 23.23 3.01, 16.71 6.57 M30.11 -0.17 C27.04 1.8, 23.02 3.47, 16.71 6.57 M16.71 6.57 C16.31 3.29, 16.12 -1.39, 16.33 -6.11 M16.71 6.57 C16.75 2.96, 16.4 -1.24, 16.33 -6.11 M16.33 -6.11 C19.12 -4.76, 22.29 -4.02, 30.11 -0.17 M16.33 -6.11 C19.56 -5.03, 22.78 -3.03, 30.11 -0.17 M30.11 -0.17 C30.11 -0.17, 30.11 -0.17, 30.11 -0.17 M30.11 -0.17 C30.11 -0.17, 30.11 -0.17, 30.11 -0.17" stroke="#1e1e1e" stroke-width="2" fill="none"></path></g></g><mask></mask><g stroke-linecap="round"><g transform="translate(151.60000610351562 33.60003662109375) rotate(0 19 -0.4000244140625)"><path d="M-0.39 0.26 C5.97 0.17, 31.52 -0.71, 37.85 -0.88 M0.41 -0.07 C6.71 -0.06, 30.96 -0.21, 37.34 -0.23" stroke="#1e1e1e" stroke-width="2" fill="none"></path></g><g transform="translate(151.60000610351562 33.60003662109375) rotate(0 19 -0.4000244140625)"><path d="M36.52 0.19 L22.94 7.02 L22.97 -6.69 L36.72 -1.16" stroke="none" stroke-width="0" fill="#1e1e1e" fill-rule="evenodd"></path><path d="M37.34 -0.23 C34.34 1.09, 30.53 2.29, 23.77 6.17 M37.34 -0.23 C33.22 1.97, 29.28 3.98, 23.77 6.17 M23.77 6.17 C23.52 1.39, 23.14 -3.38, 23.71 -6.51 M23.77 6.17 C23.53 1.32, 23.45 -2.96, 23.71 -6.51 M23.71 -6.51 C29.18 -4.11, 33.72 -2.62, 37.34 -0.23 M23.71 -6.51 C27.54 -4.92, 31.86 -2.74, 37.34 -0.23 M37.34 -0.23 C37.34 -0.23, 37.34 -0.23, 37.34 -0.23 M37.34 -0.23 C37.34 -0.23, 37.34 -0.23, 37.34 -0.23" stroke="#1e1e1e" stroke-width="2" fill="none"></path></g></g><mask></mask><g stroke-linecap="round"><g transform="translate(249.20004272460938 34.6667881923579) rotate(0 126.89996337890625 -0.2758957060705143)"><path d="M0.65 -0.1 C42.85 -0.43, 210.65 -0.7, 252.69 -0.93 M-0.47 -1.2 C42.13 -0.84, 212.19 0.31, 254.82 0.41" stroke="#1e1e1e" stroke-width="2" fill="none"></path></g><g transform="translate(249.20004272460938 34.6667881923579) rotate(0 126.89996337890625 -0.2758957060705143)"><path d="M254.34 -0.13 L241.73 5 L240.91 -4.95 L252.95 2.39" stroke="none" stroke-width="0" fill="#1e1e1e" fill-rule="evenodd"></path><path d="M254.82 0.41 C251.22 0.73, 247.35 2.6, 241.2 6.69 M254.82 0.41 C251.86 2.28, 249.41 3.94, 241.2 6.69 M241.2 6.69 C241.15 1.96, 241.96 -2.23, 241.26 -5.99 M241.2 6.69 C241.91 4.1, 240.75 1.07, 241.26 -5.99 M241.26 -5.99 C247.26 -4.01, 251.87 -1.69, 254.82 0.41 M241.26 -5.99 C245.53 -4.6, 249.38 -1.89, 254.82 0.41 M254.82 0.41 C254.82 0.41, 254.82 0.41, 254.82 0.41 M254.82 0.41 C254.82 0.41, 254.82 0.41, 254.82 0.41" stroke="#1e1e1e" stroke-width="2" fill="none"></path></g></g><mask></mask><g stroke-linecap="round" transform="translate(605.2999725341797 11.099945068359375) rotate(0 27.4000244140625 22.399993896484375)"><path d="M11.2 0 C20.8 1.54, 29.98 1.24, 43.6 0 M11.2 0 C23.8 -0.24, 35.74 -0.74, 43.6 0 M43.6 0 C52.09 -0.54, 55.13 3.04, 54.8 11.2 M43.6 0 C49.96 1.39, 54.88 2.09, 54.8 11.2 M54.8 11.2 C56.52 14.49, 53.36 22.26, 54.8 33.6 M54.8 11.2 C54.78 20, 54.87 28.59, 54.8 33.6 M54.8 33.6 C54.58 41.26, 50.17 43.08, 43.6 44.8 M54.8 33.6 C53.44 40.41, 49.62 43.19, 43.6 44.8 M43.6 44.8 C33.13 45.86, 19.25 45.73, 11.2 44.8 M43.6 44.8 C31.95 43.97, 21.93 43.93, 11.2 44.8 M11.2 44.8 C1.92 45.47, 1.75 40.48, 0 33.6 M11.2 44.8 C3.43 44, -1.05 43, 0 33.6 M0 33.6 C2.09 26.65, 1.18 14.02, 0 11.2 M0 33.6 C-0.11 24.08, -0.55 16.05, 0 11.2 M0 11.2 C1.73 5.58, 3.42 -1.59, 11.2 0 M0 11.2 C1.41 1.74, 4.4 -0.1, 11.2 0" stroke="#1e1e1e" stroke-width="2" fill="none"></path></g><g stroke-linecap="round" transform="translate(614.4999847412109 95.10000610351562) rotate(0 17 17.199981689453125)"><path d="M20.07 0.54 C23.42 0.97, 27.78 3.63, 30.03 6.5 C32.28 9.37, 33.63 14.07, 33.58 17.74 C33.52 21.42, 32.05 25.85, 29.7 28.55 C27.36 31.26, 23.02 33.38, 19.5 33.95 C15.98 34.51, 11.71 33.89, 8.56 31.97 C5.4 30.04, 1.8 25.87, 0.57 22.4 C-0.66 18.93, -0.25 14.6, 1.18 11.16 C2.61 7.73, 5.84 3.47, 9.17 1.77 C12.5 0.07, 18.83 0.98, 21.15 0.95 C23.46 0.93, 23.14 1.39, 23.06 1.6 M18.12 0.11 C21.54 -0.01, 25.93 1.68, 28.49 4.2 C31.04 6.71, 33.11 11.52, 33.46 15.21 C33.82 18.89, 32.5 23.18, 30.61 26.31 C28.73 29.43, 25.51 32.77, 22.16 33.96 C18.8 35.14, 13.85 35, 10.5 33.41 C7.14 31.83, 3.66 27.82, 2.04 24.46 C0.42 21.1, 0.06 16.88, 0.79 13.26 C1.51 9.63, 3.6 5.02, 6.39 2.74 C9.18 0.46, 15.58 0.07, 17.52 -0.4 C19.46 -0.87, 18.04 -0.5, 18.02 -0.1" stroke="#1e1e1e" stroke-width="2" fill="none"></path></g><g stroke-linecap="round"><g transform="translate(630.8999786376953 95.89993286132812) rotate(0 -0.5999908447265625 -19.600006103515625)"><path d="M0.42 0.41 C0.19 -6.22, -0.65 -32.74, -0.88 -39.37 M-0.03 0.15 C-0.35 -6.45, -0.96 -32.26, -1.15 -38.76" stroke="#1e1e1e" stroke-width="2" fill="none"></path></g><g transform="translate(630.8999786376953 95.89993286132812) rotate(0 -0.5999908447265625 -19.600006103515625)"><path d="M-0.27 -39.06 L5.42 -25.69 L-7.58 -24.17 L-0.2 -39.69" stroke="none" stroke-width="0" fill="#1e1e1e" fill-rule="evenodd"></path><path d="M-1.15 -38.76 C2.09 -33.09, 3.92 -27.93, 5.55 -25.34 M-1.15 -38.76 C0.85 -35.27, 2.5 -31.72, 5.55 -25.34 M5.55 -25.34 C1.91 -25.78, -0.76 -25.02, -7.12 -25.01 M5.55 -25.34 C0.88 -25, -4.05 -25.37, -7.12 -25.01 M-7.12 -25.01 C-5.17 -29.03, -3.65 -33.23, -1.15 -38.76 M-7.12 -25.01 C-6.04 -28.21, -4.28 -30.78, -1.15 -38.76 M-1.15 -38.76 C-1.15 -38.76, -1.15 -38.76, -1.15 -38.76 M-1.15 -38.76 C-1.15 -38.76, -1.15 -38.76, -1.15 -38.76" stroke="#1e1e1e" stroke-width="2" fill="none"></path></g></g><mask></mask><g stroke-linecap="round" transform="translate(691.1001129150391 13.0999755859375) rotate(0 27.4000244140625 22.399993896484375)"><path d="M11.2 0 C27.23 -2.78, 33.66 0.46, 43.6 0 C50.86 1.11, 52.65 6.86, 54.8 11.2 C53.63 18.27, 57.8 21.71, 54.8 33.6 C57.78 41.37, 48.56 44.45, 43.6 44.8 C36.06 47.71, 23.05 41.7, 11.2 44.8 C4.17 43.62, 0.52 44.18, 0 33.6 C0.44 24.69, 0.27 17.51, 0 11.2 C-3.5 5.6, 4.66 3.52, 11.2 0" stroke="none" stroke-width="0" fill="#40c057"></path><path d="M11.2 0 C22.77 0.73, 34.92 0.35, 43.6 0 M11.2 0 C18.36 -0.26, 24.7 0.69, 43.6 0 M43.6 0 C51.14 -1.43, 53.14 3.96, 54.8 11.2 M43.6 0 C51.59 1.95, 53 2.04, 54.8 11.2 M54.8 11.2 C53.44 19.16, 55.55 27.56, 54.8 33.6 M54.8 11.2 C54.33 17.84, 54.18 25.91, 54.8 33.6 M54.8 33.6 C53.55 39.66, 52.37 45.39, 43.6 44.8 M54.8 33.6 C56.11 42.62, 52.07 44, 43.6 44.8 M43.6 44.8 C31.25 42.7, 20.57 44.1, 11.2 44.8 M43.6 44.8 C36.83 44.62, 28.19 44.56, 11.2 44.8 M11.2 44.8 C2.82 46.48, 1.89 39.21, 0 33.6 M11.2 44.8 C4.9 46.96, 2.16 42.18, 0 33.6 M0 33.6 C1.73 29.06, -1.95 23.59, 0 11.2 M0 33.6 C-0.35 26.69, 0.42 20.5, 0 11.2 M0 11.2 C0.58 3.65, 5.43 -1.42, 11.2 0 M0 11.2 C-0.15 3.15, 5.46 1.41, 11.2 0" stroke="#9c36b5" stroke-width="2" fill="none"></path></g><g transform="translate(701.3721466064453 25.499969482421875) rotate(0 17.12799072265625 10)"><text x="17.12799072265625" y="0" font-family="Virgil, Segoe UI Emoji" font-size="16px" fill="#1e1e1e" text-anchor="middle" style="white-space: pre;" direction="ltr" dominant-baseline="text-before-edge">h100</text></g><g stroke-linecap="round" transform="translate(689.5003204345703 91.5) rotate(0 35.199951171875 22.70001220703125)"><path d="M39.65 0.37 C46.89 0.54, 55.67 3.37, 60.89 6.95 C66.11 10.52, 70.73 17.03, 70.97 21.83 C71.21 26.63, 67.03 31.87, 62.33 35.75 C57.64 39.63, 49.92 44.07, 42.81 45.11 C35.7 46.15, 26.5 44.2, 19.68 42.02 C12.86 39.83, 4.76 36.27, 1.9 31.98 C-0.97 27.7, 0.18 21.07, 2.47 16.3 C4.76 11.54, 8.64 5.98, 15.62 3.38 C22.6 0.77, 38.93 0.93, 44.35 0.69 C49.78 0.44, 48.36 1.59, 48.18 1.89 M19.62 1 C26.25 -1.04, 37.96 -0.38, 45.53 1.26 C53.1 2.89, 60.81 6.99, 65.03 10.83 C69.26 14.68, 71.66 19.57, 70.9 24.32 C70.14 29.07, 66.16 36.01, 60.47 39.34 C54.77 42.66, 44.59 44.09, 36.75 44.26 C28.91 44.42, 19.42 43.11, 13.43 40.31 C7.44 37.51, 2.71 31.93, 0.82 27.45 C-1.08 22.98, -1.46 17.77, 2.05 13.46 C5.56 9.16, 18.77 3.54, 21.87 1.62 C24.97 -0.3, 20.74 1.32, 20.65 1.95" stroke="#1e1e1e" stroke-width="2" fill="none"></path></g><g transform="translate(707.1381579944591 104.14867964242194) rotate(0 17.67198944091797 10)"><text x="17.67198944091797" y="0" font-family="Virgil, Segoe UI Emoji" font-size="16px" fill="#1e1e1e" text-anchor="middle" style="white-space: pre;" direction="ltr" dominant-baseline="text-before-edge">x100</text></g><g stroke-linecap="round"><g transform="translate(721.1819927144509 88.8340562082185) rotate(0 -0.6952564562435555 -14.967046414656124)"><path d="M0.15 -0.46 C-0.08 -5.45, -0.87 -25.14, -1.11 -30.08 M-0.44 0.49 C-0.74 -4.4, -1.2 -24.44, -1.4 -29.46" stroke="#1e1e1e" stroke-width="2" fill="none"></path></g><g transform="translate(721.1819927144509 88.8340562082185) rotate(0 -0.6952564562435555 -14.967046414656124)"><path d="M-0.45 -30.39 L5.85 -15.14 L-6.37 -15.21 L-2.35 -28.6" stroke="none" stroke-width="0" fill="#1e1e1e" fill-rule="evenodd"></path><path d="M-1.4 -29.46 C0.28 -24.46, 3.04 -20.09, 5.35 -16.08 M-1.4 -29.46 C0.37 -26.2, 1.84 -22.34, 5.35 -16.08 M5.35 -16.08 C0.79 -15.58, -2.32 -15.56, -7.31 -15.7 M5.35 -16.08 C2.51 -15.87, -0.33 -15.86, -7.31 -15.7 M-7.31 -15.7 C-5.96 -19.66, -4.76 -22.22, -1.4 -29.46 M-7.31 -15.7 C-5.24 -20.38, -3.32 -24.67, -1.4 -29.46 M-1.4 -29.46 C-1.4 -29.46, -1.4 -29.46, -1.4 -29.46 M-1.4 -29.46 C-1.4 -29.46, -1.4 -29.46, -1.4 -29.46" stroke="#1e1e1e" stroke-width="2" fill="none"></path></g></g><mask></mask><g stroke-linecap="round" transform="translate(786.7000885009766 12.100006103515625) rotate(0 27.4000244140625 22.399993896484375)"><path d="M11.2 0 C21.25 0.16, 31.69 -1.13, 43.6 0 M11.2 0 C22.04 0.35, 34.77 1.08, 43.6 0 M43.6 0 C49.5 -1.47, 56.14 5.34, 54.8 11.2 M43.6 0 C52.24 -1.77, 54.49 4.39, 54.8 11.2 M54.8 11.2 C55.07 16.92, 53.16 23.25, 54.8 33.6 M54.8 11.2 C55.31 17.57, 55.23 24.04, 54.8 33.6 M54.8 33.6 C55.67 40.37, 51.81 45.42, 43.6 44.8 M54.8 33.6 C52.86 39.42, 48.96 43.43, 43.6 44.8 M43.6 44.8 C35.24 46.26, 24.95 44.24, 11.2 44.8 M43.6 44.8 C35.95 44.14, 26.92 46.01, 11.2 44.8 M11.2 44.8 C5.61 45.77, -1.91 42.78, 0 33.6 M11.2 44.8 C5.02 47.01, 0.04 39.04, 0 33.6 M0 33.6 C1.9 27.52, -1.53 23.29, 0 11.2 M0 33.6 C0.78 28.12, -0.13 23.8, 0 11.2 M0 11.2 C1.5 4.96, 5.46 0.98, 11.2 0 M0 11.2 C0.16 5.98, 1.98 -1.64, 11.2 0" stroke="#1e1e1e" stroke-width="2" fill="none"></path></g><g stroke-linecap="round" transform="translate(795.9001007080078 96.10006713867188) rotate(0 17 17.199981689453125)"><path d="M14.61 -0.29 C17.98 -0.91, 23.16 0.89, 26.35 2.91 C29.53 4.93, 32.71 8.25, 33.69 11.81 C34.68 15.38, 33.7 20.79, 32.27 24.29 C30.83 27.79, 28.34 31.2, 25.09 32.8 C21.84 34.39, 16.35 34.77, 12.76 33.88 C9.17 33, 5.64 30.45, 3.54 27.5 C1.45 24.55, 0.02 19.92, 0.2 16.21 C0.38 12.5, 2.16 7.96, 4.64 5.22 C7.12 2.48, 13.21 0.63, 15.09 -0.23 C16.98 -1.09, 15.92 -0.33, 15.96 0.05 M18.57 -0.21 C22.02 -0.22, 26.68 2.58, 29.13 5.1 C31.58 7.63, 33.07 11.37, 33.28 14.93 C33.49 18.48, 32.34 23.37, 30.37 26.42 C28.4 29.48, 24.97 32.15, 21.47 33.27 C17.96 34.39, 12.54 34.61, 9.35 33.14 C6.17 31.67, 3.84 27.87, 2.35 24.46 C0.86 21.06, -0.31 16.15, 0.42 12.72 C1.15 9.29, 3.63 6.11, 6.72 3.88 C9.81 1.65, 16.97 -0.19, 18.95 -0.65 C20.94 -1.11, 18.62 0.63, 18.6 1.09" stroke="#1e1e1e" stroke-width="2" fill="none"></path></g><g stroke-linecap="round"><g transform="translate(812.3000946044922 96.89999389648438) rotate(0 -0.5999908447265625 -19.600006103515625)"><path d="M-0.26 0.33 C-0.48 -6.24, -0.95 -33.01, -1.18 -39.59 M0.6 0.03 C0.31 -6.47, -1.41 -32.67, -1.6 -39.09" stroke="#1e1e1e" stroke-width="2" fill="none"></path></g><g transform="translate(812.3000946044922 96.89999389648438) rotate(0 -0.5999908447265625 -19.600006103515625)"><path d="M-2.56 -38.24 L5.97 -24.88 L-7.23 -26.08 L-2.03 -39.36" stroke="none" stroke-width="0" fill="#1e1e1e" fill-rule="evenodd"></path><path d="M-1.6 -39.09 C1.05 -34.86, 2.28 -31.31, 5.41 -25.84 M-1.6 -39.09 C0.31 -35.27, 3.04 -30.56, 5.41 -25.84 M5.41 -25.84 C1.15 -25.65, -3.25 -25.47, -7.25 -25.2 M5.41 -25.84 C1.31 -25.78, -2.62 -25.72, -7.25 -25.2 M-7.25 -25.2 C-4.7 -29.96, -3.41 -35.08, -1.6 -39.09 M-7.25 -25.2 C-5.66 -30, -3.53 -34.62, -1.6 -39.09 M-1.6 -39.09 C-1.6 -39.09, -1.6 -39.09, -1.6 -39.09 M-1.6 -39.09 C-1.6 -39.09, -1.6 -39.09, -1.6 -39.09" stroke="#1e1e1e" stroke-width="2" fill="none"></path></g></g><mask></mask><g stroke-linecap="round"><g transform="translate(661.1000213623047 35.994843113908246) rotate(0 14.500045776367188 0.182832346465716)"><path d="M0.02 -0.39 C4.82 -0.38, 23.69 0.22, 28.54 0.43 M-0.63 0.6 C4.36 0.68, 24.63 1.26, 29.54 1.16" stroke="#1e1e1e" stroke-width="2" fill="none"></path></g><g transform="translate(661.1000213623047 35.994843113908246) rotate(0 14.500045776367188 0.182832346465716)"><path d="M30.1 2.12 L16.37 6.3 L16.02 -5.34 L30.41 2.08" stroke="none" stroke-width="0" fill="#1e1e1e" fill-rule="evenodd"></path><path d="M29.54 1.16 C25.72 2.08, 23 4.36, 16.35 7.18 M29.54 1.16 C24.68 3.72, 19.55 5.47, 16.35 7.18 M16.35 7.18 C16.57 3.6, 16.45 -0.12, 16.45 -5.07 M16.35 7.18 C16.22 4.34, 16.63 2.02, 16.45 -5.07 M16.45 -5.07 C20.89 -2.61, 26.04 -1.26, 29.54 1.16 M16.45 -5.07 C19.34 -3.84, 22.08 -2.06, 29.54 1.16 M29.54 1.16 C29.54 1.16, 29.54 1.16, 29.54 1.16 M29.54 1.16 C29.54 1.16, 29.54 1.16, 29.54 1.16" stroke="#1e1e1e" stroke-width="2" fill="none"></path></g></g><mask></mask><g stroke-linecap="round"><g transform="translate(747.3001251220703 35.53427186172394) rotate(0 19 -0.7614674538934878)"><path d="M-0.46 0.06 C5.89 -0.05, 31.79 -0.72, 38.13 -1.06 M0.31 -0.38 C6.6 -0.6, 31.37 -1.59, 37.76 -1.78" stroke="#1e1e1e" stroke-width="2" fill="none"></path></g><g transform="translate(747.3001251220703 35.53427186172394) rotate(0 19 -0.7614674538934878)"><path d="M37.78 -2.66 L23.97 4.77 L24.81 -6.71 L37.6 -2.58" stroke="none" stroke-width="0" fill="#1e1e1e" fill-rule="evenodd"></path><path d="M37.76 -1.78 C33.77 0.4, 30.26 1.72, 24.4 5.04 M37.76 -1.78 C34.95 -0.47, 31.68 1.47, 24.4 5.04 M24.4 5.04 C24.3 1.01, 23.57 -2.83, 23.95 -7.63 M24.4 5.04 C24.52 1.69, 24.37 -1.63, 23.95 -7.63 M23.95 -7.63 C28.92 -6.28, 32.89 -4.32, 37.76 -1.78 M23.95 -7.63 C26.93 -6.05, 30.92 -4.88, 37.76 -1.78 M37.76 -1.78 C37.76 -1.78, 37.76 -1.78, 37.76 -1.78 M37.76 -1.78 C37.76 -1.78, 37.76 -1.78, 37.76 -1.78" stroke="#1e1e1e" stroke-width="2" fill="none"></path></g></g><mask></mask><g stroke-linecap="round"><g transform="translate(562.3999938964844 32.780653188812494) rotate(0 20.949989318847656 0.8052374419104353)"><path d="M-0.25 0.33 C6.79 0.63, 34.97 1.3, 42.01 1.42 M0.62 0.03 C7.63 0.43, 34.79 1.8, 41.64 2.03" stroke="#1e1e1e" stroke-width="2" fill="none"></path></g><g transform="translate(562.3999938964844 32.780653188812494) rotate(0 20.949989318847656 0.8052374419104353)"><path d="M40.94 2.38 L27.86 6.81 L29.31 -4.71 L41 2.26" stroke="none" stroke-width="0" fill="#1e1e1e" fill-rule="evenodd"></path><path d="M41.64 2.03 C38.57 3.61, 34.36 5.05, 27.79 7.78 M41.64 2.03 C38.98 3.35, 36.43 4.4, 27.79 7.78 M27.79 7.78 C28.26 2.82, 28.7 -0.69, 28.33 -4.89 M27.79 7.78 C28.06 4.97, 28.17 1.96, 28.33 -4.89 M28.33 -4.89 C33.14 -2.94, 37.17 0.17, 41.64 2.03 M28.33 -4.89 C31.35 -3.52, 33.91 -1.81, 41.64 2.03 M41.64 2.03 C41.64 2.03, 41.64 2.03, 41.64 2.03 M41.64 2.03 C41.64 2.03, 41.64 2.03, 41.64 2.03" stroke="#1e1e1e" stroke-width="2" fill="none"></path></g></g><mask></mask><g transform="translate(354.8040084838867 64.5) rotate(0 14.795997619628906 22.5)"><text x="0" y="0" font-family="Virgil, Segoe UI Emoji" font-size="36px" fill="#1e1e1e" text-anchor="start" style="white-space: pre;" direction="ltr" dominant-baseline="text-before-edge">...</text></g></svg>