<svg version="1.1" xmlns="http://www.w3.org/2000/svg" viewBox="0 0 1017.3000259399414 534.7320164442062" width="1017.3000259399414" height="534.7320164442062" filter="invert(93%) hue-rotate(180deg)">
  <!-- svg-source:excalidraw -->
  
  <defs>
    <style class="style-fonts">
      @font-face {
        font-family: "Virgil";
        src: url("https://file%2B.vscode-resource.vscode-cdn.net/c%3A/Users/samra/.vscode/extensions/pomdtr.excalidraw-editor-3.7.4/public//dist/excalidraw-assets/Virgil.woff2");
      }
      @font-face {
        font-family: "Cascadia";
        src: url("https://file%2B.vscode-resource.vscode-cdn.net/c%3A/Users/samra/.vscode/extensions/pomdtr.excalidraw-editor-3.7.4/public//dist/excalidraw-assets/Cascadia.woff2");
      }
      @font-face {
        font-family: "Assistant";
        src: url("https://file%2B.vscode-resource.vscode-cdn.net/c%3A/Users/samra/.vscode/extensions/pomdtr.excalidraw-editor-3.7.4/public//dist/excalidraw-assets/Assistant-Regular.woff2");
      }
    </style>
    
  </defs>
  <rect x="0" y="0" width="1017.3000259399414" height="534.7320164442062" fill="#ffffff"></rect><g stroke-linecap="round" transform="translate(10 175.68309098705652) rotate(0 41 20.79999542236328)"><path d="M10.4 0 C21.94 0.13, 41.08 -1.85, 71.6 0 C77.4 -0.12, 85.35 4.41, 82 10.4 C85.1 19.45, 82.02 18.72, 82 31.2 C85.04 40.18, 80.96 41.26, 71.6 41.6 C49.08 43.59, 26.96 45.24, 10.4 41.6 C2.77 40.71, 2.39 40.63, 0 31.2 C-3.88 27.1, -0.3 15.12, 0 10.4 C0.2 2.95, -0.07 3.26, 10.4 0" stroke="none" stroke-width="0" fill="#a5d8ff"></path><path d="M10.4 0 C24.17 -1.34, 38.56 1.69, 71.6 0 M10.4 0 C27.48 -0.08, 42.03 0.17, 71.6 0 M71.6 0 C78.71 -1.19, 82.03 3.46, 82 10.4 M71.6 0 C76.55 -0.64, 83.04 1.69, 82 10.4 M82 10.4 C79.9 14.74, 82.98 24.42, 82 31.2 M82 10.4 C82.47 17.28, 81.89 25.63, 82 31.2 M82 31.2 C81.64 38.37, 78.13 42.19, 71.6 41.6 M82 31.2 C80.22 40.31, 78.51 43.72, 71.6 41.6 M71.6 41.6 C50.76 42.92, 32.34 41.08, 10.4 41.6 M71.6 41.6 C50.43 41.67, 29.31 41.18, 10.4 41.6 M10.4 41.6 C5.27 40.56, -0.91 36.71, 0 31.2 M10.4 41.6 C3.32 41.35, -1.61 40.21, 0 31.2 M0 31.2 C0.58 25.09, 1.38 17.57, 0 10.4 M0 31.2 C-0.46 25.69, -0.6 19.2, 0 10.4 M0 10.4 C1.88 5.11, 2.38 0.09, 10.4 0 M0 10.4 C2.04 2.45, 3.96 0.68, 10.4 0" stroke="#1e1e1e" stroke-width="2" fill="none"></path></g><g transform="translate(39.18000793457031 183.9830864094198) rotate(0 11.819992065429688 12.5)"><text x="11.819992065429688" y="0" font-family="Virgil, Segoe UI Emoji" font-size="20px" fill="#1e1e1e" text-anchor="middle" style="white-space: pre;" direction="ltr" dominant-baseline="text-before-edge">h0</text></g><g stroke-linecap="round" transform="translate(138.79995727539062 173.28308183178308) rotate(0 48.99998474121094 20.000015258789062)"><path d="M10 0 C27.7 0.32, 51.19 -0.88, 88 0 C92.2 -0.25, 99.55 1.64, 98 10 C99.32 17.78, 95.32 21.31, 98 30 C94.84 38.22, 97.1 42.33, 88 40 C66.43 40.48, 46.38 39.63, 10 40 C4.53 42.2, -0.32 36.26, 0 30 C3.4 27.82, 2.98 17.99, 0 10 C-2.16 4.23, 2.67 -1.9, 10 0" stroke="none" stroke-width="0" fill="#a5d8ff"></path><path d="M10 0 C39.58 0.78, 71.87 1.58, 88 0 M10 0 C35.9 -0.1, 61.41 -0.24, 88 0 M88 0 C93.24 1.88, 99.64 2.25, 98 10 M88 0 C94.77 2.04, 96.99 3.83, 98 10 M98 10 C99.59 15.14, 98.46 24.51, 98 30 M98 10 C98.87 15.76, 97.64 21.46, 98 30 M98 30 C96.13 38.29, 96.58 39.92, 88 40 M98 30 C96.14 38.61, 95.98 41.55, 88 40 M88 40 C67.04 39.84, 43.26 40.59, 10 40 M88 40 C59.39 40.5, 29.98 40.6, 10 40 M10 40 C3.67 38.01, 1.8 36.67, 0 30 M10 40 C2.43 40.12, -0.33 34.41, 0 30 M0 30 C0.97 21.09, -0.07 13.64, 0 10 M0 30 C0.65 24.39, -0.82 17.4, 0 10 M0 10 C1.47 3.15, 4.38 -1.23, 10 0 M0 10 C-2.05 4.58, 1.84 0.71, 10 0" stroke="#1e1e1e" stroke-width="2" fill="none"></path></g><g transform="translate(180.1499481201172 180.78309709057214) rotate(0 7.649993896484375 12.5)"><text x="7.649993896484375" y="0" font-family="Virgil, Segoe UI Emoji" font-size="20px" fill="#1e1e1e" text-anchor="middle" style="white-space: pre;" direction="ltr" dominant-baseline="text-before-edge">h1</text></g><g stroke-linecap="round" transform="translate(307.6000061035156 174.0830848835409) rotate(0 49.399993896484375 22)"><path d="M11 0 C29.4 -0.01, 39.69 0.39, 87.8 0 C95.89 3.11, 97.39 6.5, 98.8 11 C98.26 20.18, 98.77 29.36, 98.8 33 C101.66 37.34, 98.58 44.09, 87.8 44 C71.45 41.68, 51.36 43.62, 11 44 C6.03 44.96, 1.87 42.83, 0 33 C1.95 28.68, -1.5 22.89, 0 11 C-1.58 5.55, 2.69 1.57, 11 0" stroke="none" stroke-width="0" fill="#a5d8ff"></path><path d="M11 0 C27.32 -1.44, 41.8 0.75, 87.8 0 M11 0 C34.72 0.4, 60.21 -0.18, 87.8 0 M87.8 0 C95.03 -0.26, 100.54 5.04, 98.8 11 M87.8 0 C93.4 -0.41, 98.54 3.57, 98.8 11 M98.8 11 C100 19.07, 99.69 26.17, 98.8 33 M98.8 11 C98.24 18.24, 98.63 23.47, 98.8 33 M98.8 33 C100.16 41.49, 94.14 42.82, 87.8 44 M98.8 33 C98.14 39.17, 97.33 45.78, 87.8 44 M87.8 44 C57.19 43.35, 26.91 43.66, 11 44 M87.8 44 C68.26 43.33, 48.37 43.44, 11 44 M11 44 C2.93 43.07, 0.21 41.09, 0 33 M11 44 C1.99 44.17, 0.1 41.22, 0 33 M0 33 C-0.95 23.65, 1.29 17.36, 0 11 M0 33 C-1 28.31, 0.39 23.57, 0 11 M0 11 C-1.59 4.27, 3.92 -1.11, 11 0 M0 11 C-1.81 3.45, 1.57 -0.38, 11 0" stroke="#1e1e1e" stroke-width="2" fill="none"></path></g><g transform="translate(344.9400100708008 183.5830848835409) rotate(0 12.059989929199219 12.5)"><text x="12.059989929199219" y="0" font-family="Virgil, Segoe UI Emoji" font-size="20px" fill="#1e1e1e" text-anchor="middle" style="white-space: pre;" direction="ltr" dominant-baseline="text-before-edge">h2</text></g><g stroke-linecap="round"><g transform="translate(444.7999572753906 9.283196272701048) rotate(0 -2.79998779296875 257.6000175476074)"><path d="M-0.87 0.72 C-1.77 86.75, -4.7 429.54, -5.57 515.45" stroke="#1e1e1e" stroke-width="2.5" fill="none" stroke-dasharray="8 10"></path></g></g><mask></mask><g stroke-linecap="round" transform="translate(494.2001190185547 174.68307572826745) rotate(0 41 20.79999542236328)"><path d="M10.4 0 C28.76 -3.11, 53.18 -0.52, 71.6 0 C80.17 3.56, 83.01 2.13, 82 10.4 C80.03 12.42, 83.12 18.31, 82 31.2 C81.39 39.97, 78.32 39.5, 71.6 41.6 C48.51 44.75, 28.64 40.06, 10.4 41.6 C4.27 41.57, 2.02 36.54, 0 31.2 C1.17 25.9, -0.65 13.7, 0 10.4 C2.49 3.09, 1.36 -2.6, 10.4 0" stroke="none" stroke-width="0" fill="#a5d8ff"></path><path d="M10.4 0 C25.09 2.01, 34.93 1.28, 71.6 0 M10.4 0 C30.65 -0.42, 48.72 1.08, 71.6 0 M71.6 0 C77.99 -0.1, 83.09 2.57, 82 10.4 M71.6 0 C76.3 -1.47, 80.37 2.87, 82 10.4 M82 10.4 C82.96 18.87, 80.82 22.96, 82 31.2 M82 10.4 C82.11 16.56, 81.53 24.42, 82 31.2 M82 31.2 C80.74 37, 79.68 42.79, 71.6 41.6 M82 31.2 C81.57 36.9, 78.64 40.81, 71.6 41.6 M71.6 41.6 C50.87 43.02, 29.62 43.23, 10.4 41.6 M71.6 41.6 C57.95 41, 43.74 42.23, 10.4 41.6 M10.4 41.6 C4.76 39.79, 1.6 38.14, 0 31.2 M10.4 41.6 C5.15 43.38, 1.52 40.12, 0 31.2 M0 31.2 C0.64 22.57, -1.14 17.53, 0 10.4 M0 31.2 C0.77 26.41, 0.85 21.23, 0 10.4 M0 10.4 C1.78 4.59, 2.67 -0.61, 10.4 0 M0 10.4 C0.01 2.8, 3.53 1.05, 10.4 0" stroke="#1e1e1e" stroke-width="2" fill="none"></path></g><g transform="translate(527.0601272583008 182.98307115063074) rotate(0 8.139991760253906 12.5)"><text x="8.139991760253906" y="0" font-family="Virgil, Segoe UI Emoji" font-size="20px" fill="#1e1e1e" text-anchor="middle" style="white-space: pre;" direction="ltr" dominant-baseline="text-before-edge">s1</text></g><g stroke-linecap="round" transform="translate(636.6001739501953 173.8830879352987) rotate(0 48.99998474121094 20.000015258789062)"><path d="M10 0 C36.34 0.74, 59.54 4.74, 88 0 C95.68 -1.34, 96.09 0.6, 98 10 C99.23 14.27, 97.23 25.09, 98 30 C97.79 34.57, 97.55 36.86, 88 40 C64.77 39.02, 35.23 41.01, 10 40 C5.35 38.41, 1.43 39.97, 0 30 C-0.46 19.06, 2.34 14.49, 0 10 C-2.1 0.73, 3.57 -1.91, 10 0" stroke="none" stroke-width="0" fill="#a5d8ff"></path><path d="M10 0 C27.3 0.28, 48.17 0.59, 88 0 M10 0 C27.07 1.31, 45.34 0.62, 88 0 M88 0 C95.76 -0.9, 96.06 2.05, 98 10 M88 0 C93.04 -0.59, 98.49 4.71, 98 10 M98 10 C96.78 13.9, 98.59 20.85, 98 30 M98 10 C97.37 16.03, 97.36 20.52, 98 30 M98 30 C99.15 37.86, 94.29 38.93, 88 40 M98 30 C98.1 35.88, 95.33 40.07, 88 40 M88 40 C66.26 42.55, 46.39 41.73, 10 40 M88 40 C61.73 39.84, 37.14 38.49, 10 40 M10 40 C4.93 40, 1.46 38.21, 0 30 M10 40 C4.86 41.98, 0.46 38.1, 0 30 M0 30 C-1.09 23.12, -1.28 15.29, 0 10 M0 30 C0.56 22.62, 0.77 15.77, 0 10 M0 10 C-0.79 2.72, 3.34 -0.58, 10 0 M0 10 C0.07 4.38, 4.02 0.82, 10 0" stroke="#1e1e1e" stroke-width="2" fill="none"></path></g><g transform="translate(673.0501708984375 181.38310319408777) rotate(0 12.54998779296875 12.5)"><text x="12.54998779296875" y="0" font-family="Virgil, Segoe UI Emoji" font-size="20px" fill="#1e1e1e" text-anchor="middle" style="white-space: pre;" direction="ltr" dominant-baseline="text-before-edge">s2</text></g><g stroke-linecap="round" transform="translate(784.6000518798828 173.88307267650964) rotate(0 49.399993896484375 22)"><path d="M11 0 C29.2 3.73, 45.14 -1.17, 87.8 0 C93.23 -2.73, 99.93 1.98, 98.8 11 C98.35 17.53, 98.74 18.29, 98.8 33 C101.68 37.19, 96.7 44.17, 87.8 44 C59.86 43.2, 32.34 41.63, 11 44 C5.1 47.3, 2.82 41.85, 0 33 C2.52 24.94, -2.07 15.04, 0 11 C0.24 1.76, 3.23 -0.84, 11 0" stroke="none" stroke-width="0" fill="#a5d8ff"></path><path d="M11 0 C40.79 0.88, 68.38 1.09, 87.8 0 M11 0 C27.17 -0.55, 44.44 -0.94, 87.8 0 M87.8 0 C93.19 -1.28, 97.38 3.15, 98.8 11 M87.8 0 C95.62 1.38, 97.3 4.63, 98.8 11 M98.8 11 C99.16 21.02, 98.2 28.06, 98.8 33 M98.8 11 C98.04 15.68, 99.24 22.1, 98.8 33 M98.8 33 C98.43 39.26, 95.22 43.32, 87.8 44 M98.8 33 C99.47 40.4, 94.14 43.32, 87.8 44 M87.8 44 C56.76 45.81, 29.39 44.76, 11 44 M87.8 44 C71.4 43.44, 54.52 44.34, 11 44 M11 44 C5.13 45.55, 1.32 42.06, 0 33 M11 44 C4.12 45.44, 0.6 41.22, 0 33 M0 33 C-1.09 26.9, 1.51 25.34, 0 11 M0 33 C0.74 26.52, -0.55 18.6, 0 11 M0 11 C0.01 3.09, 3.72 0.91, 11 0 M0 11 C0.69 4.48, 3.83 -1.17, 11 0" stroke="#1e1e1e" stroke-width="2" fill="none"></path></g><g transform="translate(821.7600555419922 183.38307267650964) rotate(0 12.239990234375 12.5)"><text x="12.239990234375" y="0" font-family="Virgil, Segoe UI Emoji" font-size="20px" fill="#1e1e1e" text-anchor="middle" style="white-space: pre;" direction="ltr" dominant-baseline="text-before-edge">s3</text></g><g transform="translate(158.4000244140625 23.283127608150323) rotate(0 71.15397644042969 22.5)"><text x="0" y="0" font-family="Virgil, Segoe UI Emoji" font-size="36px" fill="#1e1e1e" text-anchor="start" style="white-space: pre;" direction="ltr" dominant-baseline="text-before-edge">Encoding</text></g><g transform="translate(634.8001403808594 14.483139815181516) rotate(0 74.50196838378906 22.5)"><text x="0" y="0" font-family="Virgil, Segoe UI Emoji" font-size="36px" fill="#1e1e1e" text-anchor="start" style="white-space: pre;" direction="ltr" dominant-baseline="text-before-edge">Decoding</text></g><g stroke-linecap="round"><g transform="translate(411.6000061035156 197.07960328488394) rotate(0 40.80005645751953 0.7164107520450216)"><path d="M-1.16 0.94 C12.37 1.42, 68.4 1.74, 82.11 1.85 M0.43 0.39 C13.77 0.59, 68.16 -0.49, 81.43 -0.05" stroke="#1e1e1e" stroke-width="2" fill="none"></path></g><g transform="translate(411.6000061035156 197.07960328488394) rotate(0 40.80005645751953 0.7164107520450216)"><path d="M82.58 1.01 L66.57 7.62 L68 -4.91 L79.91 -1.61" stroke="none" stroke-width="0" fill="#1e1e1e" fill-rule="evenodd"></path><path d="M81.43 -0.05 C77.44 2.82, 71.67 3.92, 67.82 6.25 M81.43 -0.05 C77.56 2.53, 72.59 3.47, 67.82 6.25 M67.82 6.25 C67.97 3.7, 68.86 0.99, 67.86 -6.43 M67.82 6.25 C67.99 1.98, 67.59 -2.06, 67.86 -6.43 M67.86 -6.43 C71 -5.17, 75.98 -3.15, 81.43 -0.05 M67.86 -6.43 C70.93 -5.28, 74.81 -3.13, 81.43 -0.05 M81.43 -0.05 C81.43 -0.05, 81.43 -0.05, 81.43 -0.05 M81.43 -0.05 C81.43 -0.05, 81.43 -0.05, 81.43 -0.05" stroke="#1e1e1e" stroke-width="2" fill="none"></path></g></g><mask></mask><g stroke-linecap="round" transform="translate(161.60000610351562 253.28306657299402) rotate(0 26 24.5)"><path d="M28.03 -0.37 C33.28 -0.36, 40.19 2.04, 44.24 5.89 C48.3 9.74, 51.98 17.4, 52.39 22.73 C52.79 28.06, 49.77 33.68, 46.66 37.86 C43.54 42.05, 39.02 46.22, 33.7 47.83 C28.38 49.44, 19.77 49.45, 14.74 47.53 C9.7 45.61, 5.72 41.28, 3.49 36.31 C1.26 31.34, 0.32 22.96, 1.35 17.71 C2.39 12.46, 4.78 7.63, 9.67 4.81 C14.56 2, 27.09 1.43, 30.7 0.82 C34.3 0.2, 31.44 0.68, 31.28 1.11 M15.1 2.48 C19.53 -0.02, 26.18 -1.06, 31.15 0.17 C36.12 1.39, 41.25 5.43, 44.92 9.83 C48.59 14.24, 52.98 21.28, 53.18 26.6 C53.37 31.92, 50.06 38.21, 46.09 41.74 C42.12 45.26, 34.75 46.98, 29.36 47.76 C23.96 48.53, 18.21 49.2, 13.7 46.4 C9.19 43.61, 4.26 36.34, 2.3 30.98 C0.34 25.62, -0.08 18.9, 1.94 14.24 C3.96 9.59, 12.53 5.06, 14.44 3.05 C16.34 1.04, 13.48 2.07, 13.37 2.18" stroke="none" stroke-width="0" fill="#b2f2bb"></path><path d="M32.86 1.61 C38.03 2.36, 43.34 5.56, 46.57 9.72 C49.8 13.87, 52.48 21.25, 52.25 26.56 C52.02 31.88, 49.34 38.03, 45.21 41.61 C41.08 45.18, 33.15 47.63, 27.47 47.99 C21.79 48.35, 15.72 46.53, 11.14 43.77 C6.56 41.01, 1.39 36.26, -0.01 31.43 C-1.42 26.61, 0.07 19.71, 2.7 14.83 C5.33 9.94, 10.2 4.41, 15.76 2.14 C21.33 -0.14, 32.35 1.07, 36.07 1.19 C39.79 1.3, 38.3 2.33, 38.09 2.82 M32.15 1.63 C37.42 2.55, 43.31 4.59, 46.67 8.75 C50.04 12.91, 52.92 20.97, 52.37 26.58 C51.82 32.19, 47.26 38.55, 43.38 42.41 C39.5 46.27, 34.41 49.44, 29.09 49.75 C23.77 50.06, 15.91 47.56, 11.47 44.28 C7.03 40.99, 4.02 35.06, 2.46 30.04 C0.89 25.03, 0.15 18.77, 2.1 14.2 C4.05 9.63, 9.3 4.84, 14.17 2.6 C19.04 0.37, 28.38 1.05, 31.32 0.77 C34.27 0.49, 31.81 0.3, 31.85 0.93" stroke="#1e1e1e" stroke-width="2" fill="none"></path></g><g transform="translate(179.38523559100526 265.4589504339236) rotate(0 8.329994201660156 12.5)"><text x="8.329994201660156" y="0" font-family="Virgil, Segoe UI Emoji" font-size="20px" fill="#1e1e1e" text-anchor="middle" style="white-space: pre;" direction="ltr" dominant-baseline="text-before-edge">x1</text></g><g stroke-linecap="round" transform="translate(330.0000305175781 257.5830848835409) rotate(0 26 24.5)"><path d="M28.84 0.96 C34.14 1.14, 41.05 3.66, 44.94 7.51 C48.82 11.35, 51.81 18.64, 52.16 24.05 C52.51 29.47, 50.56 35.77, 47.04 39.99 C43.52 44.21, 36.47 48.31, 31.06 49.37 C25.65 50.44, 19.33 49.08, 14.6 46.4 C9.87 43.71, 5.08 38.05, 2.68 33.28 C0.28 28.51, -1.4 22.59, 0.22 17.78 C1.83 12.97, 6.66 7.07, 12.38 4.42 C18.11 1.76, 30.26 1.86, 34.57 1.84 C38.87 1.81, 38.44 3.83, 38.22 4.26 M35.28 1.49 C40.19 2.71, 45.26 7.65, 48.2 12.04 C51.15 16.43, 53.96 22.39, 52.94 27.83 C51.92 33.27, 46.57 41.38, 42.07 44.67 C37.57 47.95, 31.36 47.92, 25.96 47.55 C20.56 47.19, 13.8 45.53, 9.68 42.48 C5.56 39.42, 2.05 34.53, 1.24 29.22 C0.43 23.91, 1.9 15.49, 4.84 10.63 C7.77 5.76, 13.58 1.6, 18.87 0.03 C24.16 -1.54, 33.84 0.68, 36.57 1.21 C39.3 1.74, 35.65 2.89, 35.24 3.22" stroke="none" stroke-width="0" fill="#b2f2bb"></path><path d="M17.1 2.28 C22.01 0.17, 29.95 0.16, 35.06 1.85 C40.16 3.54, 44.91 8.07, 47.72 12.44 C50.53 16.81, 52.73 23.03, 51.91 28.07 C51.1 33.11, 47.17 39.08, 42.83 42.68 C38.5 46.28, 31.39 49.61, 25.91 49.65 C20.44 49.69, 14.18 46.49, 9.98 42.94 C5.78 39.4, 1.72 33.47, 0.73 28.39 C-0.26 23.31, 0.71 17.19, 4.05 12.45 C7.39 7.71, 17.49 1.87, 20.77 -0.04 C24.04 -1.96, 23.77 0.53, 23.68 0.97 M16.36 2.78 C21.06 0.88, 28.2 0.75, 33.29 2.04 C38.37 3.32, 43.74 6.07, 46.86 10.47 C49.99 14.86, 52.78 23.17, 52.03 28.41 C51.27 33.64, 46.73 38.48, 42.35 41.9 C37.97 45.32, 31.04 48.7, 25.76 48.91 C20.47 49.13, 15.07 46.47, 10.64 43.17 C6.21 39.88, 0.7 34.09, -0.82 29.15 C-2.35 24.21, -1.23 18.27, 1.49 13.54 C4.21 8.81, 13.12 2.84, 15.5 0.77 C17.88 -1.3, 15.64 0.44, 15.76 1.1" stroke="#1e1e1e" stroke-width="2" fill="none"></path></g><g transform="translate(343.37526397235285 269.75896874447045) rotate(0 12.739990234375 12.5)"><text x="12.739990234375" y="0" font-family="Virgil, Segoe UI Emoji" font-size="20px" fill="#1e1e1e" text-anchor="middle" style="white-space: pre;" direction="ltr" dominant-baseline="text-before-edge">x2</text></g><g stroke-linecap="round"><g transform="translate(188.79998779296875 255.68309098705652) rotate(0 -0.39996337890625 -20.399993896484375)"><path d="M0.53 0.25 C0.36 -6.4, -0.63 -33.59, -0.94 -40.34 M0.14 -0.1 C-0.12 -6.85, -1.38 -34.24, -1.45 -41.07" stroke="#1e1e1e" stroke-width="2" fill="none"></path></g><g transform="translate(188.79998779296875 255.68309098705652) rotate(0 -0.39996337890625 -20.399993896484375)"><path d="M-1.42 -41.16 L5.37 -27.07 L-6.64 -27.41 L-1.67 -41.98" stroke="none" stroke-width="0" fill="#1e1e1e" fill-rule="evenodd"></path><path d="M-1.45 -41.07 C0.94 -37.12, 3.34 -33.48, 5.3 -27.68 M-1.45 -41.07 C0.97 -35.59, 3.62 -30.57, 5.3 -27.68 M5.3 -27.68 C2.74 -28.21, -1.06 -27.56, -7.37 -27.29 M5.3 -27.68 C2.49 -27.3, -0.73 -27.8, -7.37 -27.29 M-7.37 -27.29 C-6.01 -30.76, -5.49 -33.03, -1.45 -41.07 M-7.37 -27.29 C-6.15 -30.85, -4.8 -34, -1.45 -41.07 M-1.45 -41.07 C-1.45 -41.07, -1.45 -41.07, -1.45 -41.07 M-1.45 -41.07 C-1.45 -41.07, -1.45 -41.07, -1.45 -41.07" stroke="#1e1e1e" stroke-width="2" fill="none"></path></g></g><mask></mask><g stroke-linecap="round"><g transform="translate(354.3999938964844 258.88310319408777) rotate(0 -0.399993896484375 -20.800003051757812)"><path d="M-0.03 0.16 C-0.25 -6.77, -1.05 -34.28, -1.09 -41.26 M-0.71 -0.24 C-0.77 -7.35, -0.07 -35.22, -0.01 -42.04" stroke="#1e1e1e" stroke-width="2" fill="none"></path></g><g transform="translate(354.3999938964844 258.88310319408777) rotate(0 -0.399993896484375 -20.800003051757812)"><path d="M-0.33 -41.4 L6.63 -27.87 L-7.27 -28.25 L0.96 -42.76" stroke="none" stroke-width="0" fill="#1e1e1e" fill-rule="evenodd"></path><path d="M-0.01 -42.04 C2.31 -37.81, 4.63 -32.04, 6.09 -28.34 M-0.01 -42.04 C1.67 -38.25, 3.73 -34.03, 6.09 -28.34 M6.09 -28.34 C1.77 -28.71, -3.88 -27.94, -6.59 -28.56 M6.09 -28.34 C3.36 -28.39, 0.56 -28.53, -6.59 -28.56 M-6.59 -28.56 C-3.81 -33.98, -1.33 -37.7, -0.01 -42.04 M-6.59 -28.56 C-4.59 -32.04, -3.1 -36.04, -0.01 -42.04 M-0.01 -42.04 C-0.01 -42.04, -0.01 -42.04, -0.01 -42.04 M-0.01 -42.04 C-0.01 -42.04, -0.01 -42.04, -0.01 -42.04" stroke="#1e1e1e" stroke-width="2" fill="none"></path></g></g><mask></mask><g stroke-linecap="round"><g transform="translate(93 194.62834506824095) rotate(0 22.29998779296878 -0.31643459815829544)"><path d="M0.49 0.06 C7.96 0.06, 37.02 -0.34, 44.43 -0.4 M0.08 -0.39 C7.49 -0.52, 36.46 -1.11, 43.91 -1.25" stroke="#1e1e1e" stroke-width="2" fill="none"></path></g><g transform="translate(93 194.62834506824095) rotate(0 22.29998779296878 -0.31643459815829544)"><path d="M44.74 -1.04 L31.42 5.95 L29.77 -6.55 L43.84 -0.45" stroke="none" stroke-width="0" fill="#1e1e1e" fill-rule="evenodd"></path><path d="M43.91 -1.25 C40.79 0.14, 37.85 2.38, 30.44 5.36 M43.91 -1.25 C39.42 0.89, 34.24 3.49, 30.44 5.36 M30.44 5.36 C29.83 0.61, 30.62 -3.79, 30.19 -7.32 M30.44 5.36 C30.45 0.96, 30.49 -3.18, 30.19 -7.32 M30.19 -7.32 C34.25 -6.05, 36.6 -4.47, 43.91 -1.25 M30.19 -7.32 C33.34 -5.87, 36.58 -4.22, 43.91 -1.25 M43.91 -1.25 C43.91 -1.25, 43.91 -1.25, 43.91 -1.25 M43.91 -1.25 C43.91 -1.25, 43.91 -1.25, 43.91 -1.25" stroke="#1e1e1e" stroke-width="2" fill="none"></path></g></g><mask></mask><g stroke-linecap="round"><g transform="translate(239.70001983642578 193.03123371344526) rotate(0 33.80000305175781 0.4000091552734375)"><path d="M0.56 -0.25 C12.18 -0.33, 57.57 0.25, 68.63 0.62 M-0.6 -1.43 C11.05 -0.8, 57.15 1.79, 68.22 2.07" stroke="#1e1e1e" stroke-width="2" fill="none"></path></g><g transform="translate(239.70001983642578 193.03123371344526) rotate(0 33.80000305175781 0.4000091552734375)"><path d="M68.62 2.96 L56.21 8.06 L54.66 -4.69 L66.35 2.89" stroke="none" stroke-width="0" fill="#1e1e1e" fill-rule="evenodd"></path><path d="M68.22 2.07 C65.08 4.61, 62.29 3.71, 54.37 7.81 M68.22 2.07 C63.25 3.61, 57.12 6.25, 54.37 7.81 M54.37 7.81 C54.18 3.73, 55.18 1.12, 54.92 -4.86 M54.37 7.81 C54.47 3.16, 54.23 -1.13, 54.92 -4.86 M54.92 -4.86 C58.43 -1.96, 62.65 0.54, 68.22 2.07 M54.92 -4.86 C60.35 -1.95, 65.12 0.19, 68.22 2.07 M68.22 2.07 C68.22 2.07, 68.22 2.07, 68.22 2.07 M68.22 2.07 C68.22 2.07, 68.22 2.07, 68.22 2.07" stroke="#1e1e1e" stroke-width="2" fill="none"></path></g></g><mask></mask><g stroke-linecap="round"><g transform="translate(578.5000381469727 195.50747083405906) rotate(0 28.550067901611328 -0.6904679850266859)"><path d="M-0.94 -0.66 C8.6 -0.88, 46.7 -1.09, 56.44 -1.29 M0.77 1.6 C10.78 1.6, 49.44 0.69, 58.8 0.3" stroke="#1e1e1e" stroke-width="2" fill="none"></path></g><g transform="translate(578.5000381469727 195.50747083405906) rotate(0 28.550067901611328 -0.6904679850266859)"><path d="M60.06 1.15 L44.91 6.58 L44.44 -3.68 L60.8 1.45" stroke="none" stroke-width="0" fill="#1e1e1e" fill-rule="evenodd"></path><path d="M58.8 0.3 C54.85 0.94, 52.67 3.83, 45.41 7.05 M58.8 0.3 C54.74 2.44, 52.26 4.5, 45.41 7.05 M45.41 7.05 C45.47 3.33, 45.2 -0.31, 45.02 -5.62 M45.41 7.05 C45.52 2.85, 44.5 -1.89, 45.02 -5.62 M45.02 -5.62 C48.08 -2.98, 49.96 -2.6, 58.8 0.3 M45.02 -5.62 C50.14 -3.28, 54.36 -1.95, 58.8 0.3 M58.8 0.3 C58.8 0.3, 58.8 0.3, 58.8 0.3 M58.8 0.3 C58.8 0.3, 58.8 0.3, 58.8 0.3" stroke="#1e1e1e" stroke-width="2" fill="none"></path></g></g><mask></mask><g stroke-linecap="round"><g transform="translate(736.5000991821289 194.32461683579584) rotate(0 24.399993896484375 0.5533053870668994)"><path d="M0.31 -0.38 C8.43 -0.19, 40.7 1.14, 48.84 1.31 M-0.19 0.62 C7.85 0.63, 40.24 0.38, 48.43 0.45" stroke="#1e1e1e" stroke-width="2" fill="none"></path></g><g transform="translate(736.5000991821289 194.32461683579584) rotate(0 24.399993896484375 0.5533053870668994)"><path d="M48.26 1.25 L35.08 6.96 L34.25 -5.56 L48.46 -0.36" stroke="none" stroke-width="0" fill="#1e1e1e" fill-rule="evenodd"></path><path d="M48.43 0.45 C43.53 2.59, 39.93 5.04, 34.84 6.8 M48.43 0.45 C45.34 1.67, 42.15 3.61, 34.84 6.8 M34.84 6.8 C34.93 2.21, 34.59 -2.1, 34.83 -5.88 M34.84 6.8 C35.13 2.68, 34.99 -0.98, 34.83 -5.88 M34.83 -5.88 C37.47 -4.11, 40.77 -3.6, 48.43 0.45 M34.83 -5.88 C38.44 -4.48, 42.4 -2.64, 48.43 0.45 M48.43 0.45 C48.43 0.45, 48.43 0.45, 48.43 0.45 M48.43 0.45 C48.43 0.45, 48.43 0.45, 48.43 0.45" stroke="#1e1e1e" stroke-width="2" fill="none"></path></g></g><mask></mask><g stroke-linecap="round" transform="translate(506.4999771118164 337.831221506414) rotate(0 29.399993896484375 26.79998779296875)"><path d="M43.49 2.84 C48.95 4.95, 54.41 11.48, 56.62 16.72 C58.82 21.97, 58.62 29.02, 56.71 34.3 C54.8 39.58, 50.23 45.12, 45.17 48.4 C40.12 51.68, 32.49 54.41, 26.38 54 C20.27 53.58, 12.79 50.2, 8.54 45.9 C4.29 41.59, 1.43 34.02, 0.9 28.17 C0.36 22.32, 1.79 15.41, 5.31 10.8 C8.84 6.18, 15.31 1.44, 22.04 0.47 C28.78 -0.49, 41.29 3.79, 45.73 5.02 C50.17 6.24, 48.75 7.59, 48.67 7.83 M22.03 1.05 C27.72 -0.53, 35.92 0.49, 41.79 2.83 C47.66 5.16, 54.47 10.23, 57.24 15.06 C60.01 19.88, 60.37 26.42, 58.41 31.77 C56.45 37.12, 50.71 43.65, 45.47 47.15 C40.23 50.65, 33.03 52.93, 26.98 52.75 C20.94 52.58, 13.43 49.72, 9.19 46.12 C4.96 42.52, 2.35 36.72, 1.57 31.14 C0.79 25.57, 1.41 17.67, 4.5 12.68 C7.58 7.7, 17.16 3.08, 20.1 1.23 C23.04 -0.62, 21.65 0.98, 22.13 1.58" stroke="none" stroke-width="0" fill="#a5d8ff"></path><path d="M25.13 0.08 C31.01 -0.64, 39.83 2.28, 45.11 5.28 C50.39 8.28, 54.95 12.59, 56.8 18.08 C58.65 23.57, 58.63 32.88, 56.23 38.22 C53.84 43.56, 48.02 47.59, 42.42 50.13 C36.82 52.67, 28.55 54.73, 22.62 53.46 C16.7 52.19, 10.46 47.22, 6.86 42.51 C3.26 37.8, 0.72 30.72, 1.03 25.22 C1.34 19.71, 4.03 13.74, 8.72 9.47 C13.42 5.2, 25.06 1.07, 29.22 -0.42 C33.37 -1.91, 33.7 0.11, 33.65 0.54 M24.27 0.85 C29.95 -0.45, 39.59 2, 44.95 4.62 C50.3 7.24, 54.35 11.38, 56.4 16.55 C58.45 21.73, 59.22 30.14, 57.26 35.69 C55.3 41.24, 50.22 46.81, 44.64 49.87 C39.07 52.92, 30.24 55.09, 23.81 54.01 C17.38 52.93, 10.18 48.14, 6.06 43.4 C1.93 38.67, -1.08 31.4, -0.92 25.59 C-0.76 19.78, 2.91 12.95, 6.99 8.56 C11.08 4.16, 20.76 0.31, 23.6 -0.79 C26.44 -1.89, 24.03 1.23, 24.05 1.95" stroke="#1e1e1e" stroke-width="2" fill="none"></path></g><g transform="translate(522.6810432814723 352.18075619525786) rotate(0 13.42999267578125 12.5)"><text x="13.42999267578125" y="0" font-family="Virgil, Segoe UI Emoji" font-size="20px" fill="#1e1e1e" text-anchor="middle" style="white-space: pre;" direction="ltr" dominant-baseline="text-before-edge">Go</text></g><g stroke-linecap="round" transform="translate(931.7000503540039 178.63123981696089) rotate(0 37.79998779296875 19.600006103515625)"><path d="M9.8 0 C33.92 1.62, 49.19 -2.49, 65.8 0 C69.11 1.38, 75.86 6.42, 75.6 9.8 C77.93 19.03, 78.34 25.53, 75.6 29.4 C72.45 38.61, 73.61 38.45, 65.8 39.2 C46.65 42.23, 31.08 40.15, 9.8 39.2 C4.08 41.85, -0.43 35.9, 0 29.4 C2.99 21.49, -3.29 13.11, 0 9.8 C0.94 1.16, 5.78 3.56, 9.8 0" stroke="none" stroke-width="0" fill="#a5d8ff"></path><path d="M9.8 0 C21.35 0.37, 33.96 -1.46, 65.8 0 M9.8 0 C32.62 0.08, 53.3 -0.37, 65.8 0 M65.8 0 C70.79 1.39, 75.1 1.95, 75.6 9.8 M65.8 0 C70.33 -1.16, 76.3 1.13, 75.6 9.8 M75.6 9.8 C77.07 15.57, 75.29 19.14, 75.6 29.4 M75.6 9.8 C76.5 15.05, 75.02 19.17, 75.6 29.4 M75.6 29.4 C76.18 36.95, 70.37 38.28, 65.8 39.2 M75.6 29.4 C75.94 33.98, 72.91 38.9, 65.8 39.2 M65.8 39.2 C46.84 38.49, 28.07 38, 9.8 39.2 M65.8 39.2 C53.52 39.69, 40.82 39.3, 9.8 39.2 M9.8 39.2 C3.56 37.63, -0.44 36.86, 0 29.4 M9.8 39.2 C3.04 38.23, -1.77 34.06, 0 29.4 M0 29.4 C-0.07 21.74, 1.2 17.62, 0 9.8 M0 29.4 C0.15 24.06, 0.55 18.19, 0 9.8 M0 9.8 C-1.82 2.66, 2.97 -0.51, 9.8 0 M0 9.8 C-1.77 2.42, 4.64 -0.91, 9.8 0" stroke="#1e1e1e" stroke-width="2" fill="none"></path></g><g transform="translate(949.420051574707 185.7312459204765) rotate(0 20.079986572265625 12.5)"><text x="20.079986572265625" y="0" font-family="Virgil, Segoe UI Emoji" font-size="20px" fill="#1e1e1e" text-anchor="middle" style="white-space: pre;" direction="ltr" dominant-baseline="text-before-edge">EOS</text></g><g stroke-linecap="round"><g transform="translate(885.3000259399414 196.63251791547216) rotate(0 24.20001220703125 -0.20063599749782668)"><path d="M0.4 0.16 C8.44 -0.01, 40.76 -0.43, 48.8 -0.49 M-0.06 -0.24 C7.9 -0.08, 40.5 0.31, 48.58 0.16" stroke="#1e1e1e" stroke-width="2" fill="none"></path></g><g transform="translate(885.3000259399414 196.63251791547216) rotate(0 24.20001220703125 -0.20063599749782668)"><path d="M48.53 -0.13 L35.2 7.04 L35.15 -5.95 L48.05 0.56" stroke="none" stroke-width="0" fill="#1e1e1e" fill-rule="evenodd"></path><path d="M48.58 0.16 C43.4 3.29, 37.64 5.62, 34.99 6.51 M48.58 0.16 C44.22 2.31, 39.41 4.11, 34.99 6.51 M34.99 6.51 C35.04 2.24, 35.29 -0.96, 34.98 -6.17 M34.99 6.51 C34.79 3.53, 35.08 0.45, 34.98 -6.17 M34.98 -6.17 C38.17 -3.95, 40.81 -3.17, 48.58 0.16 M34.98 -6.17 C40.14 -4.13, 45.06 -1.54, 48.58 0.16 M48.58 0.16 C48.58 0.16, 48.58 0.16, 48.58 0.16 M48.58 0.16 C48.58 0.16, 48.58 0.16, 48.58 0.16" stroke="#1e1e1e" stroke-width="2" fill="none"></path></g></g><mask></mask><g transform="translate(408.9000015258789 126.63123981696089) rotate(0 40.53997802734375 12.5)"><text x="0" y="0" font-family="Virgil, Segoe UI Emoji" font-size="20px" fill="#1e1e1e" text-anchor="start" style="white-space: pre;" direction="ltr" dominant-baseline="text-before-edge">h2 = s0</text></g><g stroke-linecap="round" transform="translate(508.4999771118164 72.23124592047651) rotate(0 23.400115966796875 23.20000457763672)"><path d="M11.6 0 C19.48 -0.57, 22.46 -1.28, 35.2 0 C40.43 1.94, 46.13 1.29, 46.8 11.6 C44.39 21.55, 45.43 27.3, 46.8 34.8 C49.63 40.6, 43.93 46.82, 35.2 46.4 C28.52 49.95, 23.32 49.24, 11.6 46.4 C2.24 45.82, -0.15 40.72, 0 34.8 C-1.32 24.76, 0.04 19.87, 0 11.6 C-0.99 6.21, 4.31 1.4, 11.6 0" stroke="none" stroke-width="0" fill="#ffc9c9"></path><path d="M11.6 0 C18.45 0.57, 24.59 -0.79, 35.2 0 M11.6 0 C17.62 -0.19, 25.04 -0.28, 35.2 0 M35.2 0 C44.64 1.36, 46.12 5.03, 46.8 11.6 M35.2 0 C44.11 -2.14, 44.92 4.98, 46.8 11.6 M46.8 11.6 C47.8 16.4, 45.73 26.12, 46.8 34.8 M46.8 11.6 C47.09 15.7, 46.41 20.2, 46.8 34.8 M46.8 34.8 C47.34 43.23, 41.83 46.85, 35.2 46.4 M46.8 34.8 C46.4 42.32, 41.35 46.02, 35.2 46.4 M35.2 46.4 C28.44 44.91, 24.21 46.8, 11.6 46.4 M35.2 46.4 C29.13 47.33, 24.64 45.96, 11.6 46.4 M11.6 46.4 C2.56 45.67, 1.6 41.27, 0 34.8 M11.6 46.4 C5.38 48.3, -1.25 42.67, 0 34.8 M0 34.8 C0.31 28.48, -0.38 23.47, 0 11.6 M0 34.8 C-1.02 28.37, 0.23 21.6, 0 11.6 M0 11.6 C0.22 2.72, 3.4 -1.72, 11.6 0 M0 11.6 C1.3 3.17, 4.32 0.6, 11.6 0" stroke="#1e1e1e" stroke-width="2" fill="none"></path></g><g transform="translate(520.1666946411133 82.93125049811323) rotate(0 11.7333984375 12.5)"><text x="11.7333984375" y="0" font-family="Virgil, Segoe UI Emoji" font-size="20px" fill="#1e1e1e" text-anchor="middle" style="white-space: pre;" direction="ltr" dominant-baseline="text-before-edge">मैं </text></g><g stroke-linecap="round" transform="translate(665.499885559082 72.43123523932417) rotate(0 25.200164794921875 22)"><path d="M11 0 C19.61 -2.76, 30.74 -2.55, 39.4 0 C43.46 0.46, 47.85 4.06, 50.4 11 C49.66 18.06, 52.9 28.99, 50.4 33 C51.53 41.62, 48.6 46.47, 39.4 44 C34.46 41.24, 26.74 42.58, 11 44 C1.56 43.61, 3.28 41.72, 0 33 C2.17 28.42, -2.23 14.59, 0 11 C-2.32 6.72, 4.48 2.56, 11 0" stroke="none" stroke-width="0" fill="#ffc9c9"></path><path d="M11 0 C20.31 1.76, 28.15 -0.16, 39.4 0 M11 0 C19.27 0.61, 27.73 0.12, 39.4 0 M39.4 0 C47.35 0.3, 50.62 2.73, 50.4 11 M39.4 0 C47.59 -1.99, 48.97 4.15, 50.4 11 M50.4 11 C52.4 15.88, 49.85 21.32, 50.4 33 M50.4 11 C50.8 16.37, 51.13 19.76, 50.4 33 M50.4 33 C49.96 38.97, 48.26 42.22, 39.4 44 M50.4 33 C52.11 40.57, 46.95 42.14, 39.4 44 M39.4 44 C30.44 43.28, 20.71 42.73, 11 44 M39.4 44 C31.79 44.05, 24.64 45.22, 11 44 M11 44 C4.37 45.2, 1.68 38.97, 0 33 M11 44 C2.64 45.75, 1.11 40.25, 0 33 M0 33 C-0.18 23.09, 0.63 15.91, 0 11 M0 33 C0.14 23.79, -1.14 16.29, 0 11 M0 11 C-0.53 4.11, 4.23 -0.21, 11 0 M0 11 C-1.17 3.36, 4.73 -0.43, 11 0" stroke="#1e1e1e" stroke-width="2" fill="none"></path></g><g transform="translate(671.9012222290039 81.93123523932417) rotate(0 18.798828125 12.5)"><text x="18.798828125" y="0" font-family="Virgil, Segoe UI Emoji" font-size="20px" fill="#1e1e1e" text-anchor="middle" style="white-space: pre;" direction="ltr" dominant-baseline="text-before-edge">जाता</text></g><g stroke-linecap="round" transform="translate(800.4998245239258 72.8312672827812) rotate(0 25.200164794921875 22)"><path d="M11 0 C23.78 2.4, 34.39 1.43, 39.4 0 C47.84 -3.03, 52.16 1.78, 50.4 11 C47.47 16.71, 52.97 25.38, 50.4 33 C53.97 43.6, 48.7 47.42, 39.4 44 C33.77 44.85, 26.12 45.03, 11 44 C1.78 46.24, -1.36 41.73, 0 33 C-1.84 26.06, 2.66 23.66, 0 11 C0.4 4.51, 0.48 2.41, 11 0" stroke="none" stroke-width="0" fill="#ffc9c9"></path><path d="M11 0 C19.1 1.26, 30.93 -0.19, 39.4 0 M11 0 C17.05 1.09, 23.7 0.96, 39.4 0 M39.4 0 C47.73 1.49, 50.62 2.62, 50.4 11 M39.4 0 C47.23 0.73, 50.41 3.92, 50.4 11 M50.4 11 C50.42 17.82, 49.32 23.04, 50.4 33 M50.4 11 C50.72 15.96, 49.78 22.08, 50.4 33 M50.4 33 C48.97 39.43, 45.33 44.22, 39.4 44 M50.4 33 C48.81 41.01, 45.82 43.03, 39.4 44 M39.4 44 C28.1 43.19, 19.22 45.92, 11 44 M39.4 44 C32.22 43.98, 23.19 43.08, 11 44 M11 44 C5.41 44.62, -1.47 40.46, 0 33 M11 44 C5.63 45.13, 1.24 40.85, 0 33 M0 33 C-1.74 25.48, 0.52 20.05, 0 11 M0 33 C-1.02 27.78, -1.03 21.12, 0 11 M0 11 C0.37 2.76, 4.01 0.72, 11 0 M0 11 C1.74 3.57, 5.85 1.38, 11 0" stroke="#1e1e1e" stroke-width="2" fill="none"></path></g><g transform="translate(819.6794815063477 82.3312672827812) rotate(0 6.0205078125 12.5)"><text x="6.0205078125" y="0" font-family="Virgil, Segoe UI Emoji" font-size="20px" fill="#1e1e1e" text-anchor="middle" style="white-space: pre;" direction="ltr" dominant-baseline="text-before-edge">हूँ</text></g><g stroke-linecap="round"><g transform="translate(532.5000381469727 173.83125202399214) rotate(0 -1 -27.199989318847656)"><path d="M-0.38 -0.25 C-0.49 -8.97, -0.8 -44.46, -1.13 -53.44 M1.63 -1.42 C1.46 -10.37, -0.8 -46.52, -1.62 -55.06" stroke="#1e1e1e" stroke-width="2" fill="none"></path></g><g transform="translate(532.5000381469727 173.83125202399214) rotate(0 -1 -27.199989318847656)"><path d="M-0.29 -57.05 L5.21 -41.4 L-6.8 -41.09 L-2.86 -54.28" stroke="none" stroke-width="0" fill="#1e1e1e" fill-rule="evenodd"></path><path d="M-1.62 -55.06 C-0.09 -50.47, 3.36 -48.49, 5.72 -41.98 M-1.62 -55.06 C0.82 -50.8, 2.7 -46.3, 5.72 -41.98 M5.72 -41.98 C2.08 -40.91, -0.87 -40.7, -6.92 -41.03 M5.72 -41.98 C2.46 -41.15, -0.93 -41.91, -6.92 -41.03 M-6.92 -41.03 C-5.06 -43.6, -5.29 -47.91, -1.62 -55.06 M-6.92 -41.03 C-5.14 -44.99, -3.95 -50.03, -1.62 -55.06 M-1.62 -55.06 C-1.62 -55.06, -1.62 -55.06, -1.62 -55.06 M-1.62 -55.06 C-1.62 -55.06, -1.62 -55.06, -1.62 -55.06" stroke="#1e1e1e" stroke-width="2" fill="none"></path></g></g><mask></mask><g stroke-linecap="round"><g transform="translate(696.5000381469727 175.43125812750776) rotate(0 0.600006103515625 -29.600006103515625)"><path d="M-0.45 -0.78 C-0.44 -10.66, 0.48 -50.63, 0.63 -60.37 M1.51 1.42 C1.26 -8.26, -0.86 -49.56, -0.62 -59.44" stroke="#1e1e1e" stroke-width="2" fill="none"></path></g><g transform="translate(696.5000381469727 175.43125812750776) rotate(0 0.600006103515625 -29.600006103515625)"><path d="M0.01 -60.6 L5.58 -47.05 L-8.19 -45.65 L0.79 -60.97" stroke="none" stroke-width="0" fill="#1e1e1e" fill-rule="evenodd"></path><path d="M-0.62 -59.44 C0.58 -55.45, 2.39 -50.98, 5.98 -45.97 M-0.62 -59.44 C1.78 -54.92, 3.54 -51.54, 5.98 -45.97 M5.98 -45.97 C2.45 -46.81, -0.99 -47.05, -6.69 -45.73 M5.98 -45.97 C2.32 -46.39, -1.27 -45.63, -6.69 -45.73 M-6.69 -45.73 C-4.11 -48.61, -3.75 -51.37, -0.62 -59.44 M-6.69 -45.73 C-4.54 -50.87, -2.21 -54.48, -0.62 -59.44 M-0.62 -59.44 C-0.62 -59.44, -0.62 -59.44, -0.62 -59.44 M-0.62 -59.44 C-0.62 -59.44, -0.62 -59.44, -0.62 -59.44" stroke="#1e1e1e" stroke-width="2" fill="none"></path></g></g><mask></mask><g stroke-linecap="round"><g transform="translate(834.9000625610352 173.83125202399214) rotate(0 -0.600006103515625 -28.400001525878906)"><path d="M-0.07 0.41 C-0.11 -8.7, -0.73 -46.36, -1.05 -55.7 M-1.56 -0.42 C-1.67 -9.74, -2.26 -47.75, -1.92 -57.25" stroke="#1e1e1e" stroke-width="2" fill="none"></path></g><g transform="translate(834.9000625610352 173.83125202399214) rotate(0 -0.600006103515625 -28.400001525878906)"><path d="M-0.33 -57.48 L5.47 -44.33 L-10.34 -43.73 L-1.14 -58.8" stroke="none" stroke-width="0" fill="#1e1e1e" fill-rule="evenodd"></path><path d="M-1.92 -57.25 C-0.08 -53.9, 2.23 -51.9, 4.33 -43.61 M-1.92 -57.25 C0.99 -51.85, 3.46 -46.54, 4.33 -43.61 M4.33 -43.61 C-0.3 -43.51, -4.23 -42.79, -8.35 -43.69 M4.33 -43.61 C-0.02 -43.91, -4.83 -44.16, -8.35 -43.69 M-8.35 -43.69 C-5.99 -45.97, -5.65 -48.67, -1.92 -57.25 M-8.35 -43.69 C-7.02 -48.17, -4.84 -52.85, -1.92 -57.25 M-1.92 -57.25 C-1.92 -57.25, -1.92 -57.25, -1.92 -57.25 M-1.92 -57.25 C-1.92 -57.25, -1.92 -57.25, -1.92 -57.25" stroke="#1e1e1e" stroke-width="2" fill="none"></path></g></g><mask></mask><g stroke-linecap="round"><g transform="translate(556.5000381469727 96.23124592047651) rotate(0 42 42.399993896484375)"><path d="M0.48 -0.66 C9.16 0.46, 44.61 -5.09, 51.22 7.35 C57.83 19.8, 34.85 60.98, 40.16 74.01 C45.47 87.05, 75.82 83.87, 83.09 85.55" stroke="#1e1e1e" stroke-width="2.5" fill="none" stroke-dasharray="8 10"></path></g><g transform="translate(556.5000381469727 96.23124592047651) rotate(0 42 42.399993896484375)"><path d="M81.87 85.99 L69.25 92.88 L69.06 79.13 L84.26 83.72" stroke="none" stroke-width="0" fill="#1e1e1e" fill-rule="evenodd"></path><path d="M83.09 85.55 C79.08 87.88, 76.89 89.3, 69.1 90.96 M69.1 90.96 C69.21 86.85, 68.64 85.42, 69.95 78.31 M69.95 78.31 C75.58 81.38, 78.05 83.87, 83.09 85.55 M83.09 85.55 C83.09 85.55, 83.09 85.55, 83.09 85.55" stroke="#1e1e1e" stroke-width="2.5" fill="none"></path></g></g><mask></mask><g stroke-linecap="round"><g transform="translate(718.1000137329102 96.23124592047651) rotate(0 34.4000244140625 42.80000305175781)"><path d="M-0.75 -0.45 C5.44 -0.44, 31.02 -12.74, 37.65 0.93 C44.28 14.61, 34.04 67.42, 39.05 81.63 C44.06 95.84, 62.79 85.51, 67.72 86.2" stroke="#1e1e1e" stroke-width="2.5" fill="none" stroke-dasharray="8 10"></path></g><g transform="translate(718.1000137329102 96.23124592047651) rotate(0 34.4000244140625 42.80000305175781)"><path d="M67.88 86.23 L54.88 94.81 L52.31 82.95 L67.58 85.84" stroke="none" stroke-width="0" fill="#1e1e1e" fill-rule="evenodd"></path><path d="M67.72 86.2 C63.07 89.17, 60.63 90.9, 55.53 94.94 M55.53 94.94 C54.75 91.38, 54.28 86.51, 53.19 82.48 M53.19 82.48 C55.95 82.78, 60.65 82.82, 67.72 86.2 M67.72 86.2 C67.72 86.2, 67.72 86.2, 67.72 86.2" stroke="#1e1e1e" stroke-width="2.5" fill="none"></path></g></g><mask></mask><g stroke-linecap="round"><g transform="translate(851.7000503540039 98.63123981696089) rotate(0 39.5999755859375 42.800010681152344)"><path d="M0.79 -0.34 C7.59 -0.42, 32.21 -14.93, 39.8 -1.6 C47.39 11.73, 39.85 64.74, 46.32 79.65 C52.8 94.55, 73.16 86.46, 78.64 87.85" stroke="#1e1e1e" stroke-width="2.5" fill="none" stroke-dasharray="8 10"></path></g><g transform="translate(851.7000503540039 98.63123981696089) rotate(0 39.5999755859375 42.800010681152344)"><path d="M77.12 86.67 L65.6 93.7 L66.45 84.02 L78.36 87.99" stroke="none" stroke-width="0" fill="#1e1e1e" fill-rule="evenodd"></path><path d="M78.64 87.85 C75.28 89.22, 72.83 90.9, 65.4 94.9 M65.4 94.9 C65.31 92.29, 63.99 86.83, 64.73 82.24 M64.73 82.24 C70.3 83.71, 75.52 85.41, 78.64 87.85 M78.64 87.85 C78.64 87.85, 78.64 87.85, 78.64 87.85" stroke="#1e1e1e" stroke-width="2.5" fill="none"></path></g></g><mask></mask><g stroke-linecap="round" transform="translate(124.90006256103516 333.83128254157026) rotate(0 57.99998474121094 30)"><path d="M15 0 C45.4 -0.8, 70.52 0.08, 101 0 C109.48 1.1, 118.02 5.96, 116 15 C118.13 20.57, 113.92 33.9, 116 45 C113.78 53.06, 113.7 62.68, 101 60 C76.97 56.19, 55.97 56.98, 15 60 C1.72 63.01, 1.96 55.44, 0 45 C2.64 36.62, -2.8 29, 0 15 C2.93 5.19, 1.75 2.44, 15 0" stroke="none" stroke-width="0" fill="#a5d8ff"></path><path d="M15 0 C38.45 -0.57, 66.97 1.27, 101 0 M15 0 C37.52 -1.22, 61.76 -1.41, 101 0 M101 0 C110.05 1.46, 115.3 4.33, 116 15 M101 0 C108.79 -0.53, 117.4 6.66, 116 15 M116 15 C115.92 26.16, 116.62 36.29, 116 45 M116 15 C115.6 26.3, 114.78 35.45, 116 45 M116 45 C118 54.05, 109.89 59.5, 101 60 M116 45 C116.05 55.33, 112.83 58.84, 101 60 M101 60 C70.45 59.8, 35.63 60.1, 15 60 M101 60 C78.32 59.16, 55.68 59.8, 15 60 M15 60 C3.15 58.82, -0.7 53.81, 0 45 M15 60 C5.63 60.63, 1.5 53.63, 0 45 M0 45 C-1.78 34.66, 0.39 19.7, 0 15 M0 45 C-0.58 37.82, 0.28 30.99, 0 15 M0 15 C-0.5 6.63, 3.56 0.6, 15 0 M0 15 C-1.55 3.97, 4.38 0.19, 15 0" stroke="#1e1e1e" stroke-width="2" fill="none"></path></g><g transform="translate(136.03009033203125 351.33128254157026) rotate(0 46.869956970214844 12.5)"><text x="46.869956970214844" y="0" font-family="Virgil, Segoe UI Emoji" font-size="20px" fill="#1e1e1e" text-anchor="middle" style="white-space: pre;" direction="ltr" dominant-baseline="text-before-edge">Embedding</text></g><g stroke-linecap="round" transform="translate(161.3000259399414 417.83125202399214) rotate(0 29.800003051757812 24.49999999999997)"><path d="M18.12 1.4 C23.58 -0.72, 33.56 -0.37, 39.65 1.39 C45.75 3.15, 51.39 7.64, 54.7 11.96 C58.02 16.29, 60.52 22.22, 59.55 27.36 C58.58 32.5, 53.6 39.1, 48.89 42.79 C44.19 46.47, 37.52 49.37, 31.33 49.49 C25.14 49.61, 17.02 46.66, 11.76 43.51 C6.5 40.36, 1.09 35.75, -0.22 30.59 C-1.53 25.43, 0.21 17.55, 3.9 12.53 C7.58 7.52, 18.02 2.6, 21.89 0.49 C25.76 -1.62, 26.84 -0.49, 27.11 -0.12 M24.03 1.75 C29.96 0.48, 39.37 0.68, 44.86 3.04 C50.36 5.41, 54.99 11.14, 57 15.94 C59 20.75, 58.71 26.82, 56.9 31.85 C55.09 36.89, 51.5 43.53, 46.13 46.15 C40.75 48.77, 30.96 48.63, 24.64 47.59 C18.32 46.55, 12.44 43.64, 8.23 39.93 C4.03 36.23, -0.34 30.44, -0.59 25.36 C-0.84 20.28, 2.55 13.43, 6.73 9.45 C10.9 5.47, 21.37 2.97, 24.47 1.49 C27.57 0.01, 25.29 0.57, 25.33 0.57" stroke="none" stroke-width="0" fill="#b2f2bb"></path><path d="M25.41 -0.73 C31.36 -1.68, 40.27 0.05, 45.65 3.08 C51.03 6.11, 55.86 12.47, 57.71 17.47 C59.56 22.47, 59.19 28.2, 56.73 33.08 C54.28 37.97, 48.41 44.17, 42.99 46.77 C37.57 49.38, 30.19 50.07, 24.22 48.72 C18.24 47.37, 11.25 42.8, 7.13 38.68 C3.01 34.55, -0.46 28.91, -0.5 23.97 C-0.54 19.03, 1.38 13.15, 6.88 9.05 C12.38 4.95, 27.18 0.53, 32.51 -0.63 C37.85 -1.78, 39.05 1.61, 38.87 2.12 M19.32 2.23 C24.41 -0.27, 32.28 -1.34, 38.2 0.02 C44.12 1.38, 51.5 5.8, 54.84 10.39 C58.18 14.98, 58.88 22.16, 58.22 27.56 C57.55 32.97, 55.4 39.26, 50.88 42.83 C46.35 46.39, 37.74 48.73, 31.06 48.94 C24.39 49.15, 15.65 47.58, 10.81 44.07 C5.98 40.56, 3.42 33.04, 2.05 27.88 C0.68 22.72, -0.41 17.39, 2.61 13.1 C5.63 8.81, 17.43 3.81, 20.16 2.14 C22.9 0.46, 18.83 2.75, 19.01 3.04" stroke="#1e1e1e" stroke-width="2" fill="none"></path></g><g transform="translate(185.57824780617926 430.0071358849217) rotate(0 5.4499969482421875 12.5)"><text x="5.4499969482421875" y="0" font-family="Virgil, Segoe UI Emoji" font-size="20px" fill="#1e1e1e" text-anchor="middle" style="white-space: pre;" direction="ltr" dominant-baseline="text-before-edge">I</text></g><g stroke-linecap="round"><g transform="translate(190.90003204345703 417.03123371344526) rotate(0 -0.600006103515625 -11.199996948242188)"><path d="M-0.53 -0.21 C-0.75 -3.89, -0.86 -18.39, -0.95 -22.01 M0.19 -0.79 C-0.11 -4.63, -1 -19.12, -1.25 -22.77" stroke="#1e1e1e" stroke-width="2" fill="none"></path></g><g transform="translate(190.90003204345703 417.03123371344526) rotate(0 -0.600006103515625 -11.199996948242188)"><path d="M-0.95 -22.9 L3.98 -12.92 L-5.56 -12.54 L-1.05 -21.84" stroke="none" stroke-width="0" fill="#1e1e1e" fill-rule="evenodd"></path><path d="M-1.25 -22.77 C0.54 -18.85, 3.14 -15.31, 4.14 -12.93 M-1.25 -22.77 C0.78 -19.04, 3.09 -15.01, 4.14 -12.93 M4.14 -12.93 C0.81 -12.38, -3.44 -12.17, -5.32 -12.32 M4.14 -12.93 C0.68 -12.78, -3.23 -12.41, -5.32 -12.32 M-5.32 -12.32 C-4.32 -15.06, -3.44 -17.52, -1.25 -22.77 M-5.32 -12.32 C-4.69 -14.29, -3.53 -16.43, -1.25 -22.77 M-1.25 -22.77 C-1.25 -22.77, -1.25 -22.77, -1.25 -22.77 M-1.25 -22.77 C-1.25 -22.77, -1.25 -22.77, -1.25 -22.77" stroke="#1e1e1e" stroke-width="2" fill="none"></path></g></g><mask></mask><g stroke-linecap="round"><g transform="translate(186.90003204345703 331.43125812750776) rotate(0 0.1999969482421875 -14.800003051757812)"><path d="M-0.43 -0.14 C-0.43 -4.95, 0.23 -24.22, 0.36 -29.05 M0.35 -0.69 C0.25 -5.62, -0.03 -24.86, -0.09 -29.74" stroke="#1e1e1e" stroke-width="2" fill="none"></path></g><g transform="translate(186.90003204345703 331.43125812750776) rotate(0 0.1999969482421875 -14.800003051757812)"><path d="M-0.67 -30.64 L5.4 -17.24 L-7 -15.82 L-0.36 -29.27" stroke="none" stroke-width="0" fill="#1e1e1e" fill-rule="evenodd"></path><path d="M-0.09 -29.74 C2.04 -24.91, 5.31 -20.05, 6.35 -16.41 M-0.09 -29.74 C2.45 -24.51, 4.82 -19.73, 6.35 -16.41 M6.35 -16.41 C1.75 -16.77, -3.69 -16.42, -6.16 -16.24 M6.35 -16.41 C3.05 -16.39, -0.35 -16.61, -6.16 -16.24 M-6.16 -16.24 C-4.56 -19.99, -1.53 -24.49, -0.09 -29.74 M-6.16 -16.24 C-3.47 -21.68, -1.2 -27.2, -0.09 -29.74 M-0.09 -29.74 C-0.09 -29.74, -0.09 -29.74, -0.09 -29.74 M-0.09 -29.74 C-0.09 -29.74, -0.09 -29.74, -0.09 -29.74" stroke="#1e1e1e" stroke-width="2" fill="none"></path></g></g><mask></mask><g stroke-linecap="round" transform="translate(293.10005950927734 340.2001657396264) rotate(0 57.99998474121094 30)"><path d="M15 0 C37.74 2.06, 57.73 -0.66, 101 0 C112.71 -1.49, 115.82 6.74, 116 15 C114.92 26.73, 117.32 39.71, 116 45 C116.61 57.85, 109.07 58.4, 101 60 C83.18 58.41, 58.25 63.89, 15 60 C7.72 63.3, 1.19 57.82, 0 45 C-2.68 34.95, -0.05 32.42, 0 15 C-0.59 6.29, 7.88 -1.59, 15 0" stroke="none" stroke-width="0" fill="#a5d8ff"></path><path d="M15 0 C35.31 -0.04, 54.3 0.22, 101 0 M15 0 C47.9 -0.64, 80.28 1, 101 0 M101 0 C109.1 0.68, 115.56 6.61, 116 15 M101 0 C109.27 0.04, 116.32 5.34, 116 15 M116 15 C116.63 22.46, 115.87 34.56, 116 45 M116 15 C115.49 26.06, 116.13 36.23, 116 45 M116 45 C117.38 54.49, 112.17 60.02, 101 60 M116 45 C116.03 56.95, 109.39 57.79, 101 60 M101 60 C81.46 61.38, 61.83 61.32, 15 60 M101 60 C78.8 60.11, 55.84 59.88, 15 60 M15 60 C5.89 61.7, -0.08 53.01, 0 45 M15 60 C5.79 59.44, 0.15 55, 0 45 M0 45 C0.36 37.07, -0.13 28.97, 0 15 M0 45 C0.15 35.57, 0.88 26.73, 0 15 M0 15 C-0.28 3.58, 6.91 0.3, 15 0 M0 15 C0.71 5.79, 2.77 0.84, 15 0" stroke="#1e1e1e" stroke-width="2" fill="none"></path></g><g transform="translate(304.23008728027344 357.7001657396264) rotate(0 46.869956970214844 12.5)"><text x="46.869956970214844" y="0" font-family="Virgil, Segoe UI Emoji" font-size="20px" fill="#1e1e1e" text-anchor="middle" style="white-space: pre;" direction="ltr" dominant-baseline="text-before-edge">Embedding</text></g><g stroke-linecap="round" transform="translate(328.6999740600586 422.6001596361108) rotate(0 29.800003051757812 24.5)"><path d="M30.2 -0.46 C36.29 -0.56, 44.95 2.56, 49.78 6.07 C54.6 9.57, 58.28 15.38, 59.15 20.58 C60.02 25.77, 58.31 32.69, 55.01 37.24 C51.7 41.79, 45.5 46.07, 39.33 47.87 C33.15 49.68, 24.08 50.06, 17.96 48.06 C11.85 46.07, 5.63 40.52, 2.63 35.91 C-0.38 31.31, -1.56 25.48, -0.07 20.42 C1.41 15.36, 5.72 9.05, 11.55 5.54 C17.38 2.03, 30.42 0.08, 34.9 -0.65 C39.39 -1.39, 38.6 0.46, 38.47 1.13 M29.62 0.71 C35.37 0.54, 43.07 2.14, 48.1 5.5 C53.13 8.85, 58.45 15.78, 59.82 20.87 C61.18 25.95, 59.61 31.51, 56.27 36.01 C52.93 40.5, 45.74 45.69, 39.75 47.85 C33.77 50.01, 26.26 50.57, 20.37 48.96 C14.47 47.34, 7.86 43.01, 4.4 38.16 C0.94 33.3, -1.25 25.05, -0.4 19.83 C0.44 14.6, 4.37 9.94, 9.47 6.81 C14.58 3.69, 27.06 2.27, 30.24 1.08 C33.41 -0.1, 28.42 -0.73, 28.52 -0.31" stroke="none" stroke-width="0" fill="#b2f2bb"></path><path d="M24.62 1.05 C30.74 -0.25, 40.59 0.1, 46.22 2.69 C51.85 5.27, 56.41 11.54, 58.42 16.56 C60.43 21.57, 60.71 27.84, 58.3 32.78 C55.9 37.72, 49.71 43.57, 43.98 46.2 C38.25 48.83, 30.33 49.64, 23.94 48.57 C17.55 47.5, 9.53 44.06, 5.62 39.79 C1.7 35.51, 0.12 28.09, 0.45 22.92 C0.78 17.75, 2.26 12.47, 7.58 8.78 C12.9 5.09, 27.28 2.1, 32.37 0.76 C37.45 -0.58, 38.13 0.45, 38.1 0.72 M32.39 0.05 C38.3 0.31, 45.93 4.59, 50.26 7.94 C54.58 11.3, 57.8 15.28, 58.35 20.2 C58.89 25.12, 56.99 32.91, 53.51 37.46 C50.02 42.01, 43.12 46.07, 37.44 47.49 C31.76 48.91, 24.92 48.06, 19.44 45.98 C13.96 43.9, 7.49 39.5, 4.56 35.01 C1.64 30.53, 0.48 24.11, 1.9 19.08 C3.33 14.05, 7.99 8.07, 13.11 4.83 C18.24 1.6, 29.47 0.17, 32.64 -0.33 C35.81 -0.83, 32.37 1.59, 32.15 1.81" stroke="#1e1e1e" stroke-width="2" fill="none"></path></g><g transform="translate(344.99820019875744 434.77604349704035) rotate(0 13.42999267578125 12.5)"><text x="13.42999267578125" y="0" font-family="Virgil, Segoe UI Emoji" font-size="20px" fill="#1e1e1e" text-anchor="middle" style="white-space: pre;" direction="ltr" dominant-baseline="text-before-edge">Go</text></g><g stroke-linecap="round"><g transform="translate(355.1000289916992 337.8001413255639) rotate(0 0.1999969482421875 -14.800003051757812)"><path d="M0.36 -0.46 C0.52 -5.3, 0.91 -24.34, 0.83 -29.16 M-0.12 0.49 C0.02 -4.49, 0.45 -24.76, 0.62 -29.91" stroke="#1e1e1e" stroke-width="2" fill="none"></path></g><g transform="translate(355.1000289916992 337.8001413255639) rotate(0 0.1999969482421875 -14.800003051757812)"><path d="M0.69 -29.91 L6.04 -16.9 L-6.46 -16.57 L0.44 -30.06" stroke="none" stroke-width="0" fill="#1e1e1e" fill-rule="evenodd"></path><path d="M0.62 -29.91 C1.58 -25.67, 4.39 -23.28, 6.52 -16.33 M0.62 -29.91 C2.3 -25.39, 4.6 -20.81, 6.52 -16.33 M6.52 -16.33 C2.95 -16.98, -1.14 -16.18, -5.99 -16.66 M6.52 -16.33 C1.89 -16.28, -2.31 -16.52, -5.99 -16.66 M-5.99 -16.66 C-3.52 -21.56, -0.46 -26.98, 0.62 -29.91 M-5.99 -16.66 C-4.82 -19.47, -2.89 -22.3, 0.62 -29.91 M0.62 -29.91 C0.62 -29.91, 0.62 -29.91, 0.62 -29.91 M0.62 -29.91 C0.62 -29.91, 0.62 -29.91, 0.62 -29.91" stroke="#1e1e1e" stroke-width="2" fill="none"></path></g></g><mask></mask><g stroke-linecap="round"><g transform="translate(354.42636968232 424.72134685729515) rotate(0 -0.600006103515625 -11.199996948242188)"><path d="M-0.05 0.06 C-0.12 -3.74, -0.68 -18.8, -0.82 -22.54 M-0.73 -0.38 C-0.81 -4.13, -1 -18.34, -1.06 -21.91" stroke="#1e1e1e" stroke-width="2" fill="none"></path></g><g transform="translate(354.42636968232 424.72134685729515) rotate(0 -0.600006103515625 -11.199996948242188)"><path d="M-1.4 -21.88 L4.46 -11.84 L-4.81 -12.49 L-0.97 -21.44" stroke="none" stroke-width="0" fill="#1e1e1e" fill-rule="evenodd"></path><path d="M-1.06 -21.91 C0.14 -19.23, 1.05 -16.99, 3.83 -11.82 M-1.06 -21.91 C0.22 -19.16, 1.66 -15.95, 3.83 -11.82 M3.83 -11.82 C1.25 -11.3, -0.85 -11.36, -5.65 -11.68 M3.83 -11.82 C1.03 -11.83, -2.02 -11.53, -5.65 -11.68 M-5.65 -11.68 C-4.38 -14.68, -2.88 -18.01, -1.06 -21.91 M-5.65 -11.68 C-4.56 -14.21, -3.52 -16.69, -1.06 -21.91 M-1.06 -21.91 C-1.06 -21.91, -1.06 -21.91, -1.06 -21.91 M-1.06 -21.91 C-1.06 -21.91, -1.06 -21.91, -1.06 -21.91" stroke="#1e1e1e" stroke-width="2" fill="none"></path></g></g><mask></mask><g stroke-linecap="round" transform="translate(474.30004119873047 250.29216689781168) rotate(0 57.99998474121094 30)"><path d="M15 0 C42.93 -1.02, 73.02 -2.43, 101 0 C108.12 3.55, 115.74 6.05, 116 15 C118.26 20.66, 118.37 30.96, 116 45 C119.5 54.65, 111.09 59.01, 101 60 C77.72 59.49, 50.19 59.04, 15 60 C6.09 59.24, 0.31 55.76, 0 45 C2.32 35.45, 1.34 31.29, 0 15 C-3.16 6.27, 7.26 -1.44, 15 0" stroke="none" stroke-width="0" fill="#a5d8ff"></path><path d="M15 0 C38.04 -0.94, 62.04 -1.69, 101 0 M15 0 C39.92 -0.69, 64.04 -0.72, 101 0 M101 0 C110.68 0.17, 115.02 3.89, 116 15 M101 0 C112.28 1.69, 116.36 3.59, 116 15 M116 15 C117.26 27.39, 117.4 38.08, 116 45 M116 15 C115 24.36, 115.79 34.33, 116 45 M116 45 C115.97 55.06, 109.02 58.54, 101 60 M116 45 C113.79 56.58, 111.87 61.88, 101 60 M101 60 C72.92 59.97, 43.37 59.34, 15 60 M101 60 C69.93 60.81, 37.85 61.53, 15 60 M15 60 C3.82 60.52, -0.29 54.22, 0 45 M15 60 C4.93 57.9, -0.68 54.62, 0 45 M0 45 C1.95 36.74, -1.59 28.86, 0 15 M0 45 C-0.36 37.18, -0.08 30.09, 0 15 M0 15 C1.72 5.93, 4.61 -1.23, 15 0 M0 15 C-0.85 6.34, 5.99 -1.57, 15 0" stroke="#1e1e1e" stroke-width="2" fill="none"></path></g><g transform="translate(485.43006896972656 267.7921668978117) rotate(0 46.869956970214844 12.5)"><text x="46.869956970214844" y="0" font-family="Virgil, Segoe UI Emoji" font-size="20px" fill="#1e1e1e" text-anchor="middle" style="white-space: pre;" direction="ltr" dominant-baseline="text-before-edge">Embedding</text></g><g stroke-linecap="round"><g transform="translate(536.3000106811523 247.89214248374918) rotate(0 0.1999969482421875 -14.800003051757812)"><path d="M-0.42 -0.06 C-0.3 -5.04, 0.36 -24.74, 0.5 -29.74 M0.36 -0.57 C0.43 -5.48, 0.17 -24.25, 0.13 -29.12" stroke="#1e1e1e" stroke-width="2" fill="none"></path></g><g transform="translate(536.3000106811523 247.89214248374918) rotate(0 0.1999969482421875 -14.800003051757812)"><path d="M-0.02 -29.51 L6.5 -16.69 L-6.27 -15.8 L-0.44 -29.79" stroke="none" stroke-width="0" fill="#1e1e1e" fill-rule="evenodd"></path><path d="M0.13 -29.12 C1.73 -25.48, 3.28 -22.11, 6.53 -15.78 M0.13 -29.12 C1.36 -26.27, 2.57 -23.72, 6.53 -15.78 M6.53 -15.78 C1.7 -15.15, -2.27 -16.09, -5.98 -15.63 M6.53 -15.78 C1.97 -15.65, -2.78 -15.65, -5.98 -15.63 M-5.98 -15.63 C-4.03 -18.72, -3.18 -22.51, 0.13 -29.12 M-5.98 -15.63 C-4.39 -18.41, -3.04 -21.76, 0.13 -29.12 M0.13 -29.12 C0.13 -29.12, 0.13 -29.12, 0.13 -29.12 M0.13 -29.12 C0.13 -29.12, 0.13 -29.12, 0.13 -29.12" stroke="#1e1e1e" stroke-width="2" fill="none"></path></g></g><mask></mask><g stroke-linecap="round"><g transform="translate(535.6263513717731 334.81334801548036) rotate(0 -0.600006103515625 -11.199996948242188)"><path d="M0.1 -0.14 C-0.02 -3.95, -0.89 -19.11, -1.17 -22.9 M-0.51 -0.69 C-0.66 -4.45, -1.6 -18.81, -1.59 -22.46" stroke="#1e1e1e" stroke-width="2" fill="none"></path></g><g transform="translate(535.6263513717731 334.81334801548036) rotate(0 -0.600006103515625 -11.199996948242188)"><path d="M-1.62 -23.37 L3.22 -12.64 L-6.52 -12.8 L-1.12 -21.58" stroke="none" stroke-width="0" fill="#1e1e1e" fill-rule="evenodd"></path><path d="M-1.59 -22.46 C-0.61 -20.21, 0.17 -18.41, 3.51 -12.47 M-1.59 -22.46 C-0.69 -20.57, 0.66 -18.15, 3.51 -12.47 M3.51 -12.47 C0.59 -12.64, -2.18 -12.05, -5.96 -12.13 M3.51 -12.47 C-0.19 -12.36, -3.63 -12.2, -5.96 -12.13 M-5.96 -12.13 C-4.65 -15.85, -3.73 -19, -1.59 -22.46 M-5.96 -12.13 C-4.29 -15.95, -2.93 -19.76, -1.59 -22.46 M-1.59 -22.46 C-1.59 -22.46, -1.59 -22.46, -1.59 -22.46 M-1.59 -22.46 C-1.59 -22.46, -1.59 -22.46, -1.59 -22.46" stroke="#1e1e1e" stroke-width="2" fill="none"></path></g></g><mask></mask></svg>