<svg version="1.1" xmlns="http://www.w3.org/2000/svg" viewBox="0 0 770.2634887695312 259.68146130584864" width="770.2634887695312" height="259.68146130584864">
  <!-- svg-source:excalidraw -->
  
  <defs>
    <style class="style-fonts">
      @font-face {
        font-family: "Virgil";
        src: url("https://file%2B.vscode-resource.vscode-cdn.net/c%3A/Users/rr703f/.vscode/extensions/pomdtr.excalidraw-editor-3.7.4/public//dist/excalidraw-assets/Virgil.woff2");
      }
      @font-face {
        font-family: "Cascadia";
        src: url("https://file%2B.vscode-resource.vscode-cdn.net/c%3A/Users/rr703f/.vscode/extensions/pomdtr.excalidraw-editor-3.7.4/public//dist/excalidraw-assets/Cascadia.woff2");
      }
      @font-face {
        font-family: "Assistant";
        src: url("https://file%2B.vscode-resource.vscode-cdn.net/c%3A/Users/rr703f/.vscode/extensions/pomdtr.excalidraw-editor-3.7.4/public//dist/excalidraw-assets/Assistant-Regular.woff2");
      }
    </style>
    
  </defs>
  <rect x="0" y="0" width="770.2634887695312" height="259.68146130584864" fill="#ffffff"></rect><g stroke-linecap="round"><g transform="translate(84.00003051757815 28) rotate(0 -10.333335876464844 0.0000152587890625)"><path d="M0.1 -0.25 C-3.3 -0.33, -16.73 -0.34, -20.14 -0.24 M-0.51 0.81 C-3.96 0.78, -16.96 0.57, -20.31 0.34" stroke="#1e1e1e" stroke-width="2" fill="none"></path></g></g><mask></mask><g stroke-linecap="round"><g transform="translate(65.33335876464847 27.333343505859375) rotate(0 -1.666656494140625 72.99998474121094)"><path d="M-0.11 1.17 C-0.56 25.76, -1.61 122.76, -2.34 146.78 M-1.62 0.75 C-2.18 25.07, -2.67 120.82, -2.77 145.07" stroke="#1e1e1e" stroke-width="2" fill="none"></path></g></g><mask></mask><g stroke-linecap="round"><g transform="translate(65.33335876464847 174.66665649414062) rotate(0 8.000007629394531 0.3333282470703125)"><path d="M-0.55 0.42 C2.27 0.56, 13.66 0.35, 16.5 0.42 M0.17 0.15 C2.99 0.41, 13.61 1.05, 16.33 1" stroke="#1e1e1e" stroke-width="2" fill="none"></path></g></g><mask></mask><g stroke-linecap="round"><g transform="translate(147.9020757893825 176.78016342308058) rotate(180.06506415257152 -10.333335876464844 0.0000152587890625)"><path d="M0.29 0.55 C-3.13 0.63, -17.41 0.52, -20.91 0.41 M-0.23 0.35 C-3.7 0.29, -17.99 -0.35, -21.47 -0.35" stroke="#1e1e1e" stroke-width="2" fill="none"></path></g></g><mask></mask><g stroke-linecap="round"><g transform="translate(148.52801516366688 30.295907127494274) rotate(180.06506415257152 0.0000152587890625 73.33331298828125)"><path d="M-0.54 0.89 C-0.66 25.09, -0.05 121.89, -0.1 146.37 M1.38 0.31 C1.04 25.19, -1.13 123.47, -1.11 147.75" stroke="#1e1e1e" stroke-width="2" fill="none"></path></g></g><mask></mask><g stroke-linecap="round"><g transform="translate(129.00174288907078 32.051540888710576) rotate(180.06506415257152 9.333351135253906 -0.3333587646484375)"><path d="M-0.05 -0.14 C3.04 -0.24, 15.13 -0.04, 18.26 -0.18 M-0.74 -0.68 C2.54 -0.96, 16.09 -0.92, 19.29 -0.9" stroke="#1e1e1e" stroke-width="2" fill="none"></path></g></g><mask></mask><g transform="translate(94.33335876464847 44.83332824707031) rotate(0 11.063987731933594 10)"><text x="0" y="0" font-family="Virgil, Segoe UI Emoji" font-size="16px" fill="#1e1e1e" text-anchor="start" style="white-space: pre;" direction="ltr" dominant-baseline="text-before-edge">85</text></g><g transform="translate(93.5033874511719 69.33331298828125) rotate(0 10.063987731933594 10)"><text x="0" y="0" font-family="Virgil, Segoe UI Emoji" font-size="16px" fill="#1e1e1e" text-anchor="start" style="white-space: pre;" direction="ltr" dominant-baseline="text-before-edge">56</text></g><g transform="translate(92.93604278564456 93.66665649414062) rotate(0 10.063987731933594 10)"><text x="0" y="0" font-family="Virgil, Segoe UI Emoji" font-size="16px" fill="#1e1e1e" text-anchor="start" style="white-space: pre;" direction="ltr" dominant-baseline="text-before-edge">65</text></g><g transform="translate(92.60269927978518 118.33331298828125) rotate(0 10.391990661621094 10)"><text x="0" y="0" font-family="Virgil, Segoe UI Emoji" font-size="16px" fill="#1e1e1e" text-anchor="start" style="white-space: pre;" direction="ltr" dominant-baseline="text-before-edge">35</text></g><g transform="translate(94.60803985595706 139.99996948242188) rotate(0 7.111991882324219 10)"><text x="0" y="0" font-family="Virgil, Segoe UI Emoji" font-size="16px" fill="#1e1e1e" text-anchor="start" style="white-space: pre;" direction="ltr" dominant-baseline="text-before-edge">15</text></g><g stroke-linecap="round" transform="translate(385.97788301467523 91.34115459080795) rotate(89.86578480321766 9.39402521900817 9.075583686160428)"><path d="M11.12 -0.08 C12.97 0.21, 15.58 2.13, 16.78 3.76 C17.97 5.4, 18.33 7.86, 18.28 9.75 C18.22 11.65, 17.76 13.74, 16.44 15.14 C15.13 16.55, 12.45 17.91, 10.38 18.17 C8.3 18.42, 5.58 17.85, 3.98 16.69 C2.38 15.54, 1.33 13.17, 0.78 11.23 C0.23 9.3, -0.06 6.85, 0.68 5.05 C1.41 3.26, 3.31 1.31, 5.19 0.46 C7.07 -0.4, 10.75 -0.17, 11.96 -0.07 C13.16 0.04, 12.53 0.79, 12.41 1.08 M9.55 -0.07 C11.52 -0.08, 14.41 1.06, 15.92 2.31 C17.44 3.55, 18.35 5.37, 18.64 7.4 C18.93 9.44, 18.73 12.84, 17.66 14.5 C16.59 16.17, 14.23 16.85, 12.22 17.41 C10.22 17.98, 7.37 18.61, 5.62 17.91 C3.87 17.21, 2.72 15.11, 1.73 13.24 C0.74 11.37, -0.68 8.5, -0.29 6.69 C0.09 4.88, 2.33 3.58, 4.05 2.38 C5.77 1.18, 9.11 -0.07, 10.01 -0.52 C10.91 -0.98, 9.6 -0.69, 9.45 -0.37" stroke="#000000" stroke-width="4" fill="none"></path></g><g stroke-linecap="round" transform="translate(340.4666395481667 57.978569055850016) rotate(89.86578480321766 9.39402521900817 9.075583686160456)"><path d="M10.68 0.19 C12.58 0.44, 14.59 1.81, 15.98 3.23 C17.37 4.66, 18.92 6.79, 19.02 8.72 C19.13 10.66, 17.97 13.3, 16.62 14.85 C15.28 16.4, 12.87 17.74, 10.97 18.03 C9.07 18.32, 6.98 17.62, 5.24 16.6 C3.5 15.59, 1.32 13.77, 0.53 11.94 C-0.27 10.11, -0.18 7.48, 0.49 5.64 C1.17 3.8, 2.74 1.73, 4.58 0.9 C6.43 0.07, 10.44 0.67, 11.57 0.68 C12.7 0.69, 11.41 0.89, 11.35 0.95 M8.67 0.06 C10.57 -0.3, 12.91 -0.02, 14.58 1.17 C16.25 2.36, 18.15 5.33, 18.7 7.21 C19.25 9.09, 18.78 10.73, 17.87 12.47 C16.96 14.21, 14.92 16.75, 13.24 17.63 C11.55 18.51, 9.74 18.38, 7.75 17.75 C5.76 17.13, 2.52 15.37, 1.32 13.89 C0.11 12.41, 0.22 10.83, 0.5 8.89 C0.77 6.95, 1.67 3.82, 2.95 2.26 C4.23 0.69, 7.35 -0.24, 8.17 -0.5 C9 -0.76, 7.98 0.45, 7.92 0.72" stroke="#000000" stroke-width="4" fill="none"></path></g><g stroke-linecap="round" transform="translate(290.467336818447 40.07135337353975) rotate(89.86578480321766 9.39402521900817 9.075583686160456)"><path d="M7.37 0.24 C9.3 -0.22, 12.61 0.1, 14.42 1.09 C16.22 2.07, 17.59 4.27, 18.18 6.14 C18.77 8.01, 18.59 10.58, 17.96 12.32 C17.33 14.06, 16.13 15.69, 14.39 16.57 C12.66 17.45, 9.61 17.97, 7.56 17.6 C5.51 17.22, 3.37 15.84, 2.12 14.34 C0.86 12.83, -0.02 10.36, 0.04 8.57 C0.1 6.79, 1.22 4.98, 2.48 3.65 C3.74 2.31, 6.63 1.13, 7.6 0.56 C8.57 -0.01, 8.24 0.15, 8.3 0.21 M9.09 -0.37 C11 -0.42, 13.95 1.4, 15.52 2.63 C17.09 3.85, 18.18 5.12, 18.49 6.98 C18.79 8.85, 18.2 12.08, 17.36 13.81 C16.52 15.54, 15.36 16.83, 13.45 17.39 C11.54 17.94, 7.86 17.67, 5.93 17.15 C3.99 16.63, 2.77 15.91, 1.86 14.25 C0.94 12.59, 0.25 9.3, 0.43 7.21 C0.61 5.12, 1.58 2.85, 2.95 1.73 C4.32 0.61, 7.74 0.73, 8.65 0.49 C9.56 0.26, 8.33 0.34, 8.43 0.32" stroke="#000000" stroke-width="4" fill="none"></path></g><g stroke-linecap="round" transform="translate(290.4673368184472 74.91155479813892) rotate(89.86578480321766 9.39402521900817 9.075583686160456)"><path d="M10.02 -0.17 C12.01 -0.22, 14.24 1.1, 15.65 2.45 C17.06 3.8, 18.13 6.08, 18.48 7.92 C18.82 9.77, 18.78 11.95, 17.72 13.52 C16.66 15.09, 14.12 16.75, 12.13 17.33 C10.15 17.9, 7.64 17.71, 5.8 16.97 C3.96 16.23, 2 14.44, 1.11 12.88 C0.21 11.32, 0.08 9.37, 0.43 7.61 C0.79 5.86, 1.61 3.62, 3.22 2.35 C4.83 1.08, 8.95 0.35, 10.09 -0.02 C11.23 -0.39, 10.08 -0.05, 10.05 0.13 M9.68 0.65 C11.59 0.55, 13.88 0.64, 15.33 1.85 C16.77 3.06, 17.89 5.98, 18.36 7.92 C18.82 9.86, 19.18 11.96, 18.13 13.49 C17.09 15.02, 14.02 16.32, 12.11 17.07 C10.19 17.83, 8.4 18.7, 6.64 18.03 C4.89 17.36, 2.7 14.92, 1.58 13.08 C0.46 11.23, -0.29 8.68, -0.08 6.94 C0.14 5.19, 1.41 3.74, 2.87 2.6 C4.33 1.47, 7.58 0.63, 8.68 0.14 C9.78 -0.35, 9.33 -0.5, 9.47 -0.31" stroke="#000000" stroke-width="4" fill="none"></path></g><g stroke-linecap="round"><g transform="translate(330.58207672386044 41.34693477723215) rotate(89.99999999999994 -5.4608760533647285 15.859282535185088)"><path d="M0.09 -0.54 C-1.65 4.82, -8.92 26.62, -10.79 31.98 M-0.52 0.36 C-2.29 5.58, -9.31 25.84, -11.15 31.15" stroke="#e67700" stroke-width="2" fill="none"></path></g></g><mask></mask><g stroke-linecap="round"><g transform="translate(319.44861059220597 60.77501930619076) rotate(89.99999999999994 5.867066151523716 15.970492242280699)"><path d="M0.13 0.26 C2.04 5.66, 9.59 26.62, 11.54 31.86 M-0.46 -0.08 C1.35 5.45, 9.01 27.14, 11 32.51" stroke="#0000ff" stroke-width="2" fill="none"></path></g></g><mask></mask><g stroke-linecap="round" transform="translate(340.4666395481668 126.8402328221365) rotate(89.86578480321766 9.39402521900817 9.075583686160428)"><path d="M10.13 -0.41 C12.07 -0.53, 14.17 0.65, 15.59 1.94 C17.02 3.23, 18.38 5.41, 18.68 7.33 C18.98 9.26, 18.42 11.69, 17.39 13.5 C16.36 15.31, 14.49 17.45, 12.5 18.19 C10.5 18.94, 7.31 18.77, 5.42 17.95 C3.53 17.13, 2.06 15.09, 1.15 13.28 C0.25 11.47, -0.41 8.95, 0 7.09 C0.4 5.22, 1.9 3.28, 3.57 2.1 C5.25 0.91, 8.96 0.27, 10.04 -0.02 C11.12 -0.3, 10.01 0.27, 10.07 0.41 M9.13 -0.09 C10.99 -0.54, 12.61 -0.12, 14.24 1.08 C15.88 2.27, 18.26 5.22, 18.93 7.1 C19.6 8.98, 19.22 10.73, 18.26 12.33 C17.31 13.94, 15.15 15.72, 13.2 16.72 C11.24 17.73, 8.56 18.72, 6.52 18.35 C4.49 17.97, 2.08 16.22, 1.01 14.47 C-0.06 12.72, -0.21 9.75, 0.1 7.85 C0.41 5.96, 1.42 4.49, 2.87 3.1 C4.31 1.71, 7.89 -0.07, 8.76 -0.5 C9.64 -0.93, 8.21 0.26, 8.1 0.53" stroke="#000000" stroke-width="4" fill="none"></path></g><g stroke-linecap="round" transform="translate(290.46733681844745 109.45611242462655) rotate(89.86578480321766 9.39402521900817 9.075583686160428)"><path d="M9.52 -0.4 C11.37 -0.48, 14.06 0.49, 15.59 1.77 C17.12 3.06, 18.38 5.23, 18.72 7.32 C19.06 9.4, 18.76 12.48, 17.63 14.29 C16.5 16.09, 13.88 17.61, 11.95 18.14 C10.01 18.67, 7.86 18.29, 6.03 17.49 C4.19 16.68, 1.91 15, 0.93 13.33 C-0.05 11.66, -0.3 9.36, 0.13 7.46 C0.57 5.57, 1.95 3.16, 3.54 1.95 C5.12 0.73, 8.48 0.5, 9.66 0.2 C10.84 -0.1, 10.61 0.05, 10.61 0.14 M10.17 -0.45 C12.06 -0.22, 15.33 1.96, 16.82 3.4 C18.31 4.84, 19.15 6.41, 19.11 8.19 C19.07 9.97, 17.97 12.37, 16.6 14.08 C15.23 15.79, 12.94 17.91, 10.89 18.43 C8.84 18.96, 5.98 18.32, 4.3 17.25 C2.61 16.18, 1.38 13.78, 0.77 12.02 C0.15 10.27, -0.04 8.57, 0.6 6.71 C1.25 4.85, 3.03 1.91, 4.63 0.86 C6.23 -0.19, 9.31 0.46, 10.23 0.39 C11.14 0.33, 10.13 0.26, 10.11 0.46" stroke="#000000" stroke-width="4" fill="none"></path></g><g stroke-linecap="round" transform="translate(290.46733681844745 144.44413574828002) rotate(89.86578480321766 9.39402521900817 9.075583686160428)"><path d="M7.44 -0.3 C9.31 -0.79, 12.04 -0.41, 13.85 0.67 C15.67 1.75, 17.65 4.22, 18.33 6.17 C19 8.12, 18.53 10.6, 17.88 12.36 C17.23 14.12, 16.09 15.81, 14.42 16.74 C12.75 17.68, 9.87 18.21, 7.86 17.97 C5.85 17.74, 3.66 16.76, 2.35 15.32 C1.04 13.88, 0.11 11.28, 0.01 9.34 C-0.09 7.4, 0.35 5.21, 1.76 3.66 C3.16 2.11, 7.33 0.63, 8.44 0.03 C9.54 -0.58, 8.38 -0.21, 8.38 0.02 M9.45 0.44 C11.49 0.24, 13.95 0.32, 15.43 1.34 C16.92 2.36, 18.04 4.48, 18.34 6.55 C18.64 8.62, 18.25 11.91, 17.23 13.75 C16.22 15.59, 14.04 17.01, 12.27 17.6 C10.51 18.18, 8.42 17.78, 6.64 17.24 C4.87 16.7, 2.69 16.01, 1.63 14.36 C0.58 12.71, 0.16 9.3, 0.33 7.36 C0.49 5.42, 1.25 3.89, 2.61 2.7 C3.96 1.51, 7.45 0.52, 8.45 0.21 C9.44 -0.11, 8.49 0.7, 8.57 0.82" stroke="#000000" stroke-width="4" fill="none"></path></g><g stroke-linecap="round"><g transform="translate(330.5389651961471 110.16920459260803) rotate(89.99999999999994 -5.463251664291363 15.902252734023932)"><path d="M-0.46 -0.11 C-2.36 5.11, -9.53 26.46, -11.37 31.79 M0.31 -0.65 C-1.43 4.63, -8.57 26.96, -10.36 32.48" stroke="#000000" stroke-width="2" fill="none"></path></g></g><mask></mask><g stroke-linecap="round"><g transform="translate(319.0716429920412 129.8918520753631) rotate(89.99999999999994 6.204767801370167 15.9738626323973)"><path d="M-0.44 -0.02 C1.61 5.33, 9.8 26.62, 11.86 31.99 M0.34 -0.5 C2.59 4.95, 10.7 27.42, 12.82 32.71" stroke="#000000" stroke-width="2" fill="none"></path></g></g><mask></mask><g stroke-linecap="round"><g transform="translate(384.45920968977174 68.01501630692621) rotate(89.99999999999994 -11.142298832474353 14.825946574374228)"><path d="M0 0 C-3.71 4.94, -18.57 24.71, -22.28 29.65 M0 0 C-3.71 4.94, -18.57 24.71, -22.28 29.65" stroke="#000000" stroke-width="4" fill="none"></path></g></g><mask></mask><g stroke-linecap="round"><g transform="translate(361.86965514093214 103.11764598716798) rotate(89.99999999999994 11.067079359775079 14.98224441247055)"><path d="M0 0 C3.69 4.99, 18.45 24.97, 22.13 29.96 M0 0 C3.69 4.99, 18.45 24.97, 22.13 29.96" stroke="#862e9c" stroke-width="4" fill="none"></path></g></g><mask></mask><g stroke-linecap="round"><g transform="translate(309.2157906921596 50.97533463565287) rotate(0 18.625559280935192 38.17089926710173)"><path d="M1.16 -1.06 C7.71 11.6, 32.36 63.67, 38.36 76.49 M0.31 0.99 C6.88 13.83, 31.99 65.46, 38 78.1" stroke="#ff0000" stroke-width="2" fill="none"></path></g></g><mask></mask><g stroke-linecap="round"><g transform="translate(310.13557139739106 83.6275496713663) rotate(0 17.705778575703846 21.384901396629346)"><path d="M1.11 0.15 C6.81 7.37, 29.64 35.18, 35.32 42.26 M0.24 -0.82 C5.66 6.65, 28.64 36.07, 34.32 43.53" stroke="#ff0000" stroke-width="2" fill="none"></path></g></g><mask></mask><g stroke-linecap="round"><g transform="translate(310.13557139739106 119.4989971753896) rotate(0 18.855504457242972 -20.92501104401356)"><path d="M-0.09 -0.51 C5.97 -7.53, 31.13 -35.09, 37.5 -41.98 M-1.6 -1.83 C4.19 -8.67, 29.91 -34.06, 36.45 -40.51" stroke="#1864ab" stroke-width="2" fill="none"></path></g></g><mask></mask><g stroke-linecap="round"><g transform="translate(309.67568104477533 152.15121221110326) rotate(0 19.775285162474432 -37.251118561870385)"><path d="M-0.21 -0.13 C6.47 -12.46, 33.38 -62, 39.99 -74.5 M-1.78 -1.24 C4.79 -13.32, 32.53 -60.81, 39.27 -72.96" stroke="#c92a2a" stroke-width="2" fill="none"></path></g></g><mask></mask><g stroke-linecap="round"><g transform="translate(404.41309368360606 100.18360236553099) rotate(0 10.807423286468634 0.16849276021284254)"><path d="M0.2 0 C3.81 0.02, 17.97 -0.07, 21.57 0.07 M-0.36 -0.47 C3.19 -0.38, 17.47 0.55, 21.12 0.63" stroke="#000000" stroke-width="2" fill="none"></path></g><g transform="translate(404.41309368360606 100.18360236553099) rotate(0 10.807423286468634 0.16849276021284254)"><path d="M21.74 0.41 L11.29 4.21 L10.69 -5 L21.71 1.1" stroke="none" stroke-width="0" fill="#000000" fill-rule="evenodd"></path><path d="M21.12 0.63 C18.3 1.77, 15.2 3.17, 11.13 4.75 M21.12 0.63 C17.15 2.35, 13.6 3.75, 11.13 4.75 M11.13 4.75 C11.52 2.8, 11.04 0.32, 11.54 -4.38 M11.13 4.75 C11.03 2.72, 11.37 0.46, 11.54 -4.38 M11.54 -4.38 C14.24 -3.1, 17.93 -1.56, 21.12 0.63 M11.54 -4.38 C14.61 -2.79, 17.69 -1.23, 21.12 0.63 M21.12 0.63 C21.12 0.63, 21.12 0.63, 21.12 0.63 M21.12 0.63 C21.12 0.63, 21.12 0.63, 21.12 0.63" stroke="#000000" stroke-width="2" fill="none"></path></g></g><mask></mask><g transform="translate(431.6041107820086 93.07412708200252) rotate(0 22.478233337402344 8.153855951876096)"><text x="0" y="0" font-family="Virgil, Segoe UI Emoji" font-size="12.902805022748947px" fill="#000000" text-anchor="start" style="white-space: pre;" direction="ltr" dominant-baseline="text-before-edge">Output</text></g><g transform="translate(195.43948357834307 61.17488288336483) rotate(0 2.8614273071289062 5.983637823654107)"><text x="0" y="0" font-family="Virgil, Segoe UI Emoji" font-size="9.573820517846551px" fill="#000000" text-anchor="start" style="white-space: pre;" direction="ltr" dominant-baseline="text-before-edge">X</text></g><g transform="translate(201.3010063443699 64.5941044968821) rotate(0 1.2967300415039062 5.983637823654107)"><text x="0" y="0" font-family="Virgil, Segoe UI Emoji" font-size="9.573820517846551px" fill="#000000" text-anchor="start" style="white-space: pre;" direction="ltr" dominant-baseline="text-before-edge">1</text></g><g transform="translate(197.32085320267998 129.65673720922757) rotate(0 2.8614273071289062 6.001569101634686)"><text x="0" y="0" font-family="Virgil, Segoe UI Emoji" font-size="9.573820517846551px" fill="#000000" text-anchor="start" style="white-space: pre;" direction="ltr" dominant-baseline="text-before-edge">X</text></g><g transform="translate(203.18237596870682 133.07595882274484) rotate(0 3.4069137573242188 6.001569101634686)"><text x="0" y="0" font-family="Virgil, Segoe UI Emoji" font-size="9.573820517846551px" fill="#000000" text-anchor="start" style="white-space: pre;" direction="ltr" dominant-baseline="text-before-edge">2</text></g><g stroke-linecap="round"><g transform="translate(209.5450088161794 68.36755160730104) rotate(0 13.35772433279189 0)"><path d="M-0.36 -0.39 C4.08 -0.32, 22.51 0.31, 27.06 0.32 M0.46 0.6 C4.81 0.52, 22.43 -0.39, 26.81 -0.49" stroke="#364fc7" stroke-width="2" fill="none"></path></g><g transform="translate(209.5450088161794 68.36755160730104) rotate(0 13.35772433279189 0)"><path d="M27.23 -0.7 L15.85 5.43 L15.32 -5.65 L26.37 -0.52" stroke="none" stroke-width="0" fill="#364fc7" fill-rule="evenodd"></path><path d="M26.81 -0.49 C21.8 2.22, 18.12 4.43, 14.93 5.62 M26.81 -0.49 C23.85 1.09, 21.02 2.34, 14.93 5.62 M14.93 5.62 C15.14 2.32, 14.29 -1.68, 14.5 -5.66 M14.93 5.62 C14.66 2, 14.62 -2.09, 14.5 -5.66 M14.5 -5.66 C17.84 -4.3, 20.93 -2.42, 26.81 -0.49 M14.5 -5.66 C18.63 -4.14, 22.23 -2.41, 26.81 -0.49 M26.81 -0.49 C26.81 -0.49, 26.81 -0.49, 26.81 -0.49 M26.81 -0.49 C26.81 -0.49, 26.81 -0.49, 26.81 -0.49" stroke="#364fc7" stroke-width="2" fill="none"></path></g></g><mask></mask><g stroke-linecap="round"><g transform="translate(211.0501045156489 138.3545016326333) rotate(0 13.35772433279189 0)"><path d="M0.35 0.32 C4.9 0.32, 22.59 -0.27, 26.96 -0.39 M-0.14 0 C4.39 0.1, 22.27 0.12, 26.65 0.11" stroke="#364fc7" stroke-width="2" fill="none"></path></g><g transform="translate(211.0501045156489 138.3545016326333) rotate(0 13.35772433279189 0)"><path d="M27.57 -0.08 L15.36 5.76 L14.11 -5.57 L27.14 0.82" stroke="none" stroke-width="0" fill="#364fc7" fill-rule="evenodd"></path><path d="M26.65 0.11 C24.17 1.77, 20.47 2.6, 14.54 5.75 M26.65 0.11 C23.57 1.49, 21.18 2.49, 14.54 5.75 M14.54 5.75 C14.11 1.8, 14.75 -1.9, 14.55 -5.54 M14.54 5.75 C14.52 2.07, 14.48 -1.7, 14.55 -5.54 M14.55 -5.54 C18.45 -3.16, 22.64 -2.41, 26.65 0.11 M14.55 -5.54 C17.03 -4.43, 19.35 -3.39, 26.65 0.11 M26.65 0.11 C26.65 0.11, 26.65 0.11, 26.65 0.11 M26.65 0.11 C26.65 0.11, 26.65 0.11, 26.65 0.11" stroke="#364fc7" stroke-width="2" fill="none"></path></g></g><mask></mask><g stroke-linecap="round" transform="translate(236.6150362847705 58.73111690558483) rotate(89.86578480321766 9.39402521900817 9.075583686160456)"><path d="M9.03 -0.46 C11 -0.65, 13.45 0.52, 14.98 1.76 C16.5 2.99, 17.65 5.05, 18.17 6.95 C18.7 8.86, 19 11.5, 18.12 13.19 C17.24 14.87, 14.74 16.35, 12.89 17.06 C11.04 17.77, 8.9 17.98, 7.05 17.46 C5.19 16.93, 2.86 15.47, 1.76 13.9 C0.66 12.34, 0.28 9.99, 0.46 8.07 C0.65 6.15, 1.46 3.72, 2.84 2.4 C4.23 1.08, 7.73 0.53, 8.8 0.16 C9.86 -0.21, 9.23 0, 9.25 0.19 M10.37 -0.37 C12.4 -0.32, 14.37 0.89, 15.72 2.2 C17.08 3.5, 18.13 5.55, 18.48 7.47 C18.83 9.39, 18.83 12.09, 17.81 13.73 C16.8 15.37, 14.5 16.76, 12.4 17.31 C10.31 17.86, 7.03 17.63, 5.22 17.03 C3.41 16.42, 2.3 15.33, 1.54 13.68 C0.77 12.03, 0.16 9.16, 0.63 7.15 C1.1 5.14, 2.79 2.83, 4.36 1.62 C5.93 0.4, 9.04 0.11, 10.05 -0.16 C11.06 -0.42, 10.37 -0.14, 10.42 0.04" stroke="#000000" stroke-width="4" fill="none"></path></g><g stroke-linecap="round" transform="translate(236.6150362847706 127.59278067187131) rotate(89.86578480321766 9.39402521900817 9.075583686160428)"><path d="M7.94 0.17 C9.7 -0.15, 12.07 0.35, 13.84 1.36 C15.6 2.37, 17.85 4.45, 18.52 6.21 C19.18 7.98, 18.55 10.23, 17.83 11.97 C17.12 13.7, 15.9 15.66, 14.23 16.62 C12.56 17.58, 9.76 18.03, 7.81 17.72 C5.87 17.41, 3.86 16.24, 2.56 14.75 C1.26 13.27, 0.08 10.72, 0 8.82 C-0.07 6.92, 0.75 4.78, 2.11 3.33 C3.46 1.88, 7.1 0.55, 8.11 0.1 C9.13 -0.35, 8.19 0.56, 8.21 0.63 M7.14 0.13 C8.82 -0.43, 11.39 -0.29, 13.28 0.56 C15.16 1.4, 17.55 3.44, 18.43 5.21 C19.31 6.97, 19.28 9.34, 18.55 11.16 C17.81 12.98, 15.63 14.91, 14.02 16.13 C12.41 17.35, 10.7 18.58, 8.87 18.46 C7.05 18.33, 4.43 16.87, 3.08 15.37 C1.72 13.86, 0.93 11.39, 0.76 9.42 C0.6 7.46, 0.93 5.14, 2.1 3.59 C3.27 2.04, 6.85 0.65, 7.8 0.13 C8.74 -0.39, 7.9 0.29, 7.77 0.46" stroke="#000000" stroke-width="4" fill="none"></path></g><g stroke-linecap="round"><g transform="translate(279.5906790887885 130.40595622782962) rotate(269.9999999999999 -5.4608760533647285 15.859282535185116)"><path d="M-0.36 0.36 C-2.25 5.73, -9.7 26.65, -11.45 31.82 M0.45 0.07 C-1.26 5.3, -8.55 25.62, -10.49 30.91" stroke="#e67700" stroke-width="2" fill="none"></path></g></g><mask></mask><g stroke-linecap="round"><g transform="translate(268.06826081066623 110.75545228467968) rotate(269.9999999999999 5.867066151523716 15.97049224228067)"><path d="M-0.53 0.1 C1.49 5.31, 9.72 26.23, 11.78 31.58 M0.2 -0.32 C2.18 4.92, 9.48 26.82, 11.38 32.1" stroke="#0000ff" stroke-width="2" fill="none"></path></g></g><mask></mask><g stroke-linecap="round"><g transform="translate(279.63854183835537 61.49774601477577) rotate(269.9999999999999 -5.463251664291363 15.902252734023932)"><path d="M0.05 -0.36 C-1.66 4.97, -9.01 26.8, -10.81 32.1 M-0.59 0.65 C-2.32 5.81, -9.45 26.09, -11.18 31.29" stroke="#000000" stroke-width="2" fill="none"></path></g></g><mask></mask><g stroke-linecap="round"><g transform="translate(267.769825111138 41.63187873527397) rotate(269.9999999999999 6.204767801370167 15.973862632397328)"><path d="M0.12 0.29 C2.21 5.61, 10.6 26.24, 12.59 31.55 M-0.49 -0.03 C1.54 5.38, 10.24 26.84, 12.25 32.05" stroke="#000000" stroke-width="2" fill="none"></path></g></g><mask></mask><g stroke-linecap="round"><g transform="translate(252.79448166743572 76.27232762839651) rotate(180 18.625559280935192 38.17089926710173)"><path d="M0.4 -0.86 C6.45 11.84, 30.55 63.92, 36.55 76.84 M-0.85 1.3 C5.56 13.58, 32.28 62.17, 38.9 74.98" stroke="#ff0000" stroke-width="2" fill="none"></path></g></g><mask></mask><g stroke-linecap="round"><g transform="translate(253.47619770852754 77.48216655125793) rotate(180 17.705778575703846 21.384901396629346)"><path d="M-0.7 0.5 C5 7.82, 28.66 35.87, 34.57 43.09 M1.14 -0.29 C7.18 6.74, 31.42 34.09, 36.84 41.13" stroke="#ff0000" stroke-width="2" fill="none"></path></g></g><mask></mask><g stroke-linecap="round"><g transform="translate(251.85986729042116 126.22896764748316) rotate(180 18.855504457242972 -20.92501104401356)"><path d="M-0.84 0.32 C5.45 -6.57, 30.65 -33.82, 37.04 -40.85 M0.91 -0.56 C7.66 -7.82, 33.45 -35.79, 39.4 -42.45" stroke="#1864ab" stroke-width="2" fill="none"></path></g></g><mask></mask><g stroke-linecap="round"><g transform="translate(249.6504180165437 125.94458238563982) rotate(180 19.775285162474432 -37.251118561870385)"><path d="M-0.67 1 C6.03 -11.47, 32.69 -61.85, 39.33 -74.5 M1.18 0.48 C7.77 -11.81, 32.1 -60.59, 38.26 -72.96" stroke="#c92a2a" stroke-width="2" fill="none"></path></g></g><mask></mask><g transform="translate(222.6666870117188 176.66665649414062) rotate(0 90.43195343017578 10)"><text x="0" y="0" font-family="Virgil, Segoe UI Emoji" font-size="16px" fill="#1e1e1e" text-anchor="start" style="white-space: pre;" direction="ltr" dominant-baseline="text-before-edge">Trained neural network</text></g><g stroke-linecap="round"><g transform="translate(515.8569999253555 33.91879850816076) rotate(0 -10.333335876464844 0.0000152587890625)"><path d="M0.37 0.37 C-3.02 0.31, -16.57 0, -20.12 -0.14 M-0.1 0.09 C-3.53 0.09, -16.72 0.52, -20.27 0.49" stroke="#1e1e1e" stroke-width="2" fill="none"></path></g></g><mask></mask><g stroke-linecap="round"><g transform="translate(495.8570151841446 33.91879850816076) rotate(0 0.666656494140625 73.33332824707031)"><path d="M1.19 -0.31 C1.19 23.83, 0.8 121.08, 0.79 145.64 M0.36 -1.51 C0.07 22.67, -0.42 122.23, -0.45 146.64" stroke="#1e1e1e" stroke-width="2" fill="none"></path></g></g><mask></mask><g stroke-linecap="round"><g transform="translate(497.19032817242584 180.5854550023014) rotate(0 8.000007629394531 0.3333282470703125)"><path d="M-0.25 -0.47 C2.31 -0.3, 13.12 0.71, 15.89 0.86 M0.62 0.48 C3.05 0.49, 12.81 -0.07, 15.4 0" stroke="#1e1e1e" stroke-width="2" fill="none"></path></g></g><mask></mask><g stroke-linecap="round"><g transform="translate(719.0923581854411 182.03230543710083) rotate(180.06506415257152 -10.333335876464844 0.0000152587890625)"><path d="M-0.11 0.2 C-3.45 0.24, -16.94 -0.25, -20.31 -0.23 M-0.83 -0.18 C-4.19 -0.03, -17.28 0.42, -20.56 0.34" stroke="#1e1e1e" stroke-width="2" fill="none"></path></g></g><mask></mask><g stroke-linecap="round"><g transform="translate(719.7182975597254 35.54804914151441) rotate(180.06506415257152 0.0000152587890625 73.33331298828125)"><path d="M0.78 -0.51 C0.94 23.97, 0.86 122.91, 0.72 147.3 M-0.27 -1.83 C-0.18 22.27, 0.25 120.76, 0.16 145.52" stroke="#1e1e1e" stroke-width="2" fill="none"></path></g></g><mask></mask><g stroke-linecap="round"><g transform="translate(700.1920252851294 37.30368290273077) rotate(180.06506415257152 9.333351135253906 -0.3333587646484375)"><path d="M0.33 0.29 C3.38 0.16, 15.68 -0.81, 18.65 -1.04 M-0.16 -0.03 C2.78 -0.09, 14.99 -0.42, 18.22 -0.54" stroke="#1e1e1e" stroke-width="2" fill="none"></path></g></g><mask></mask><g transform="translate(476.00012207031256 194.15925408828662) rotate(0 142.13168334960938 27.761103608781013)"><text x="0" y="0" font-family="Virgil, Segoe UI Emoji" font-size="14.805921924683222px" fill="#1e1e1e" text-anchor="start" style="white-space: pre;" direction="ltr" dominant-baseline="text-before-edge">750 or more dimensions (columns).</text><text x="0" y="18.507402405854027" font-family="Virgil, Segoe UI Emoji" font-size="14.805921924683222px" fill="#1e1e1e" text-anchor="start" style="white-space: pre;" direction="ltr" dominant-baseline="text-before-edge">Each row is an embedding for </text><text x="0" y="37.01480481170805" font-family="Virgil, Segoe UI Emoji" font-size="14.805921924683222px" fill="#1e1e1e" text-anchor="start" style="white-space: pre;" direction="ltr" dominant-baseline="text-before-edge">each of the token id in the vocabulary</text></g><g stroke-linecap="round"><g transform="translate(648 22.666671752929688) rotate(0 34.66668701171875 0)"><path d="M0.08 -0.08 C11.53 -0.06, 57.55 0.11, 69.07 0.25 M-1.34 -1.17 C9.89 -1.55, 56.36 -1.74, 67.98 -1.74" stroke="#1e1e1e" stroke-width="2" fill="none"></path></g><g transform="translate(648 22.666671752929688) rotate(0 34.66668701171875 0)"><path d="M67.92 -0.65 L52.93 6.15 L55.33 -8.28 L69.04 -2.7" stroke="none" stroke-width="0" fill="#1e1e1e" fill-rule="evenodd"></path><path d="M67.98 -1.74 C63.4 0.04, 59.33 2.31, 54.4 4.64 M67.98 -1.74 C62.75 0.64, 58.9 2.94, 54.4 4.64 M54.4 4.64 C54.57 -0.15, 53.3 -5.74, 54.36 -8.04 M54.4 4.64 C54.32 0.93, 53.99 -4.35, 54.36 -8.04 M54.36 -8.04 C60.12 -6.64, 64.81 -3.03, 67.98 -1.74 M54.36 -8.04 C57.25 -6.98, 60.1 -5.78, 67.98 -1.74 M67.98 -1.74 C67.98 -1.74, 67.98 -1.74, 67.98 -1.74 M67.98 -1.74 C67.98 -1.74, 67.98 -1.74, 67.98 -1.74" stroke="#1e1e1e" stroke-width="2" fill="none"></path></g></g><mask></mask><g stroke-linecap="round"><g transform="translate(564.6666870117188 18) rotate(0 -32 0)"><path d="M-0.78 -1.12 C-11.2 -1.09, -52.81 -0.36, -63.22 -0.14 M1.01 0.91 C-9.44 1.15, -52.99 1.2, -63.76 1.32" stroke="#1e1e1e" stroke-width="2" fill="none"></path></g><g transform="translate(564.6666870117188 18) rotate(0 -32 0)"><path d="M-62.13 -0.6 L-48.87 -4.29 L-52 9.37 L-65.69 -0.38" stroke="none" stroke-width="0" fill="#1e1e1e" fill-rule="evenodd"></path><path d="M-63.76 1.32 C-61.85 0.83, -57.35 -0.76, -50.2 -5.1 M-63.76 1.32 C-60.07 -0.51, -54.84 -2.75, -50.2 -5.1 M-50.2 -5.1 C-50.12 -0.82, -49.55 2.31, -50.13 7.58 M-50.2 -5.1 C-50.16 -1.76, -50.61 -0.2, -50.13 7.58 M-50.13 7.58 C-52.87 7.47, -54.89 4.39, -63.76 1.32 M-50.13 7.58 C-53.28 6.22, -57.9 4.08, -63.76 1.32 M-63.76 1.32 C-63.76 1.32, -63.76 1.32, -63.76 1.32 M-63.76 1.32 C-63.76 1.32, -63.76 1.32, -63.76 1.32" stroke="#1e1e1e" stroke-width="2" fill="none"></path></g></g><mask></mask><g transform="translate(574.666748046875 10) rotate(0 33.647972106933594 10)"><text x="0" y="0" font-family="Virgil, Segoe UI Emoji" font-size="16px" fill="#1e1e1e" text-anchor="start" style="white-space: pre;" direction="ltr" dominant-baseline="text-before-edge">750 cols</text></g><g transform="translate(10 182.66668701171875) rotate(0 92.16795349121094 10)"><text x="0" y="0" font-family="Virgil, Segoe UI Emoji" font-size="16px" fill="#1e1e1e" text-anchor="start" style="white-space: pre;" direction="ltr" dominant-baseline="text-before-edge">Token ids in Vocabulary</text></g></svg>